<svg width="80" height="80" viewBox="0 0 80 80" fill="none" xmlns="http://www.w3.org/2000/svg">
<path fill-rule="evenodd" clip-rule="evenodd" d="M40 79.2C61.6496 79.2 79.2 61.6496 79.2 40C79.2 18.3504 61.6496 0.8 40 0.8C18.3504 0.8 0.8 18.3504 0.8 40C0.8 61.6496 18.3504 79.2 40 79.2ZM40 80C62.0914 80 80 62.0914 80 40C80 17.9086 62.0914 0 40 0C17.9086 0 0 17.9086 0 40C0 62.0914 17.9086 80 40 80Z" fill="#FF4713"/>
<path d="M40.4481 59.2002C36.9825 53.8085 33.6121 48.5705 30.9944 42.8967C29.9978 40.7352 28.9983 38.5528 28.8258 36.1287C28.4257 30.4847 32.7316 25.0675 38.2959 24.1674C44.9281 23.0957 50.7496 27.2783 51.8637 33.9343C52.1701 35.7674 51.9589 37.5856 51.2256 39.2694C49.9702 42.1548 48.7387 45.0671 47.2246 47.8167C45.111 51.6605 42.7476 55.3654 40.4481 59.2002ZM40.7114 29.2367C37.2711 29.2248 34.4659 32.0281 34.4644 35.4793C34.4629 38.9305 37.2636 41.7667 40.6786 41.7697C44.11 41.7727 46.9063 38.9738 46.9286 35.5122C46.9509 32.0684 44.1561 29.2487 40.7114 29.2367Z" fill="#FF4713"/>
</svg>
