<svg width="160" height="160" viewBox="0 0 160 160" fill="none" xmlns="http://www.w3.org/2000/svg">
<g clip-path="url(#clip0_21_123)">
<path d="M61.28 28.0158L76.832 65.0878C77.536 66.7838 79.488 67.5838 81.184 66.8638C82.016 66.5118 82.64 65.8558 82.96 65.0878L98.512 28.0158C102.832 17.7278 97.984 5.88776 87.712 1.58376C77.44 -2.73624 65.6 2.09576 61.28 12.3838C59.104 17.5678 59.28 23.1998 61.28 28.0158Z" fill="#005CB9"/>
<path d="M61.28 132.255L76.832 95.1833C77.536 93.4873 79.488 92.6873 81.184 93.4073C82.016 93.7593 82.64 94.4153 82.96 95.1833L98.512 132.255C102.832 142.543 97.984 154.383 87.712 158.687C77.424 163.007 65.584 158.159 61.28 147.887C59.104 142.703 59.28 137.071 61.28 132.255Z" fill="#005CB9"/>
<path d="M132.032 61.5042L94.96 77.0562C93.264 77.7602 92.464 79.7122 93.184 81.4082C93.536 82.2402 94.192 82.8642 94.96 83.1842L132.032 98.7362C142.32 103.056 154.16 98.2082 158.464 87.9362C162.784 77.6482 157.936 65.8082 147.664 61.5042C142.48 59.3282 136.848 59.5042 132.032 61.5042Z" fill="#005CB9"/>
<path d="M27.792 61.5042L64.864 77.0562C66.56 77.7602 67.36 79.7122 66.64 81.4082C66.288 82.2402 65.632 82.8642 64.864 83.1842L27.792 98.7362C17.504 103.056 5.66401 98.2082 1.36001 87.9362C-2.95999 77.6482 1.88801 65.8082 12.16 61.5042C17.344 59.3282 22.976 59.5042 27.792 61.5042Z" fill="#005CB9"/>
<path d="M103.6 30.1118L88.384 67.3278C87.696 69.0238 88.496 70.9758 90.208 71.6638C91.04 71.9998 91.952 71.9838 92.72 71.6638L129.936 56.4478C140.256 52.2238 145.2 40.4318 140.992 30.1118C136.768 19.7918 124.976 14.8478 114.656 19.0558C109.44 21.1838 105.584 25.2958 103.6 30.1118Z" fill="#005CB9"/>
<path d="M29.888 103.824L67.104 88.6076C68.8 87.9196 70.752 88.7196 71.44 90.4316C71.776 91.2636 71.76 92.1755 71.44 92.9435L56.224 130.16C52 140.48 40.208 145.424 29.888 141.216C19.568 136.992 14.624 125.2 18.832 114.88C20.96 109.664 25.072 105.808 29.888 103.824Z" fill="#005CB9"/>
<path d="M29.888 56.4478L67.104 71.6638C68.8 72.3518 70.752 71.5518 71.44 69.8398C71.776 69.0078 71.76 68.0958 71.44 67.3278L56.224 30.1118C52 19.7918 40.208 14.8478 29.888 19.0558C19.568 23.2798 14.624 35.0718 18.832 45.3918C20.96 50.5918 25.072 54.4638 29.888 56.4478Z" fill="#005CB9"/>
<path d="M103.6 130.159L88.384 92.9434C87.696 91.2474 88.496 89.2954 90.208 88.6074C91.04 88.2714 91.952 88.2874 92.72 88.6074L129.936 103.823C140.256 108.047 145.2 119.839 140.992 130.159C136.768 140.479 124.976 145.423 114.656 141.215C109.44 139.087 105.584 134.975 103.6 130.159Z" fill="#005CB9"/>
<path d="M79.552 86.3036C82.9453 86.3036 85.696 83.5529 85.696 80.1596C85.696 76.7664 82.9453 74.0156 79.552 74.0156C76.1588 74.0156 73.408 76.7664 73.408 80.1596C73.408 83.5529 76.1588 86.3036 79.552 86.3036Z" fill="#005CB9"/>
</g>
<defs>
<clipPath id="clip0_21_123">
<rect width="160" height="160" fill="white"/>
</clipPath>
</defs>
</svg>
