<svg width="248" height="248" viewBox="0 0 248 248" fill="none" xmlns="http://www.w3.org/2000/svg">
<g clip-path="url(#clip0_24_523)">
<path d="M130.557 13.491C129.436 13.6794 128.3 13.7737 127.16 13.7737H126.549C125.195 13.7935 123.831 13.8382 122.467 14.0068C121.088 14.1606 119.774 14.5226 118.41 15.0335C118.088 15.1823 117.74 15.3162 117.393 15.465C117.393 15.465 117.393 15.465 117.388 15.465L116.401 16.0106L115.885 16.2983C115.885 16.2983 115.885 16.2983 115.88 16.2983L115.404 16.6406C115.082 16.8737 114.735 17.1018 114.383 17.3449L114.288 17.4094C113.951 17.6375 113.495 17.5532 113.262 17.2159C113.138 17.0374 113.108 16.8241 113.152 16.6257C113.257 16.1892 113.366 15.7378 113.505 15.2914C113.569 15.0682 113.639 14.8401 113.713 14.6169C113.713 14.6169 113.713 14.6169 113.713 14.6119L114.006 13.977C114.204 13.5505 114.417 13.114 114.66 12.6924C114.923 12.3006 115.191 11.8889 115.484 11.497C115.761 11.0804 116.104 10.7431 116.431 10.3761C116.763 10.014 117.111 9.642 117.488 9.33944C117.86 9.022 118.241 8.6996 118.633 8.38712C119.035 8.1044 119.447 7.83656 119.863 7.5588C121.545 6.52216 123.375 5.72856 125.26 5.26232C126.202 5.0292 127.16 4.8556 128.127 4.7812C128.608 4.7316 129.099 4.7316 129.595 4.72168C129.843 4.72168 130.101 4.74152 130.349 4.75144C130.473 4.7564 130.612 4.77128 130.746 4.78616L130.949 4.806L131.043 4.81592C133.29 5.1036 135.066 7.03304 134.942 9.2948C134.848 11.0903 133.682 12.5337 132.129 13.0991L132.035 13.1338C131.743 13.2678 131.162 13.3868 130.557 13.491Z" fill="white"/>
<path d="M129.089 3.78944C130.135 3.78944 130.984 2.94114 130.984 1.89472C130.984 0.848295 130.135 0 129.089 0C128.043 0 127.194 0.848295 127.194 1.89472C127.194 2.94114 128.043 3.78944 129.089 3.78944Z" fill="white"/>
<path d="M123.797 4.24568C124.569 4.24568 125.195 3.61945 125.195 2.84696C125.195 2.07447 124.569 1.44824 123.797 1.44824C123.024 1.44824 122.398 2.07447 122.398 2.84696C122.398 3.61945 123.024 4.24568 123.797 4.24568Z" fill="white"/>
<path d="M119.635 6.37384C120.386 6.37384 120.994 5.76538 120.994 5.0148C120.994 4.26422 120.386 3.65576 119.635 3.65576C118.885 3.65576 118.276 4.26422 118.276 5.0148C118.276 5.76538 118.885 6.37384 119.635 6.37384Z" fill="white"/>
<path d="M116.317 8.67515C116.895 8.67515 117.364 8.20659 117.364 7.62859C117.364 7.05059 116.895 6.58203 116.317 6.58203C115.739 6.58203 115.27 7.05059 115.27 7.62859C115.27 8.20659 115.739 8.67515 116.317 8.67515Z" fill="white"/>
<path d="M153.383 17.2556C152.247 17.206 151.116 17.0621 150 16.829L149.405 16.705C148.076 16.4421 146.737 16.204 145.363 16.085C143.984 15.9461 142.62 16.0304 141.181 16.2487C140.834 16.328 140.467 16.3876 140.095 16.457C140.095 16.457 140.095 16.457 140.09 16.457L139.014 16.7844L138.448 16.958C138.448 16.958 138.448 16.958 138.444 16.958L137.908 17.1911C137.546 17.3498 137.159 17.5036 136.762 17.6672L136.658 17.7119C136.281 17.8656 135.849 17.6871 135.696 17.3101C135.611 17.1117 135.626 16.8935 135.711 16.71C135.904 16.3032 136.107 15.8866 136.331 15.4799C136.445 15.2765 136.554 15.0632 136.678 14.8599C136.678 14.8599 136.678 14.8599 136.678 14.8549L137.094 14.2944C137.377 13.9175 137.68 13.5356 137.997 13.1735C138.339 12.8412 138.682 12.4989 139.054 12.1765C139.411 11.8293 139.812 11.5714 140.214 11.2788C140.616 10.9911 141.028 10.7034 141.464 10.4852C141.896 10.252 142.337 10.014 142.784 9.79077C143.235 9.59733 143.691 9.41877 144.157 9.24021C146.017 8.57557 147.972 8.18373 149.916 8.11429C150.888 8.07957 151.855 8.11429 152.823 8.23829C153.304 8.28789 153.785 8.39205 154.271 8.48133C154.509 8.53589 154.762 8.60533 155.005 8.66485C155.124 8.69461 155.258 8.74421 155.387 8.77893L155.58 8.84341L155.67 8.87317C157.807 9.62213 159.142 11.8789 158.551 14.0663C158.085 15.8023 156.642 16.9728 155.01 17.201L154.911 17.2159C154.593 17.2853 153.993 17.2804 153.383 17.2556Z" fill="white"/>
<path d="M154.355 7.50428C155.402 7.50428 156.25 6.65599 156.25 5.60956C156.25 4.56314 155.402 3.71484 154.355 3.71484C153.309 3.71484 152.46 4.56314 152.46 5.60956C152.46 6.65599 153.309 7.50428 154.355 7.50428Z" fill="white"/>
<path d="M148.984 6.83943C149.756 6.83943 150.382 6.2132 150.382 5.44071C150.382 4.66822 149.756 4.04199 148.984 4.04199C148.211 4.04199 147.585 4.66822 147.585 5.44071C147.585 6.2132 148.211 6.83943 148.984 6.83943Z" fill="white"/>
<path d="M144.46 8.05499C145.211 8.05499 145.819 7.44653 145.819 6.69595C145.819 5.94538 145.211 5.33691 144.46 5.33691C143.709 5.33691 143.101 5.94538 143.101 6.69595C143.101 7.44653 143.709 8.05499 144.46 8.05499Z" fill="white"/>
<path d="M140.671 9.61216C141.249 9.61216 141.717 9.1436 141.717 8.5656C141.717 7.9876 141.249 7.51904 140.671 7.51904C140.093 7.51904 139.624 7.9876 139.624 8.5656C139.624 9.1436 140.093 9.61216 140.671 9.61216Z" fill="white"/>
<path d="M174.924 25.6882C173.823 25.4055 172.747 25.0285 171.705 24.5672L171.15 24.3192C169.905 23.7885 168.64 23.2727 167.326 22.8709C166.001 22.4493 164.657 22.2459 163.204 22.1616C162.852 22.1666 162.48 22.1467 162.098 22.1418C162.098 22.1418 162.098 22.1418 162.093 22.1418L160.972 22.241L160.382 22.2906C160.382 22.2906 160.382 22.2906 160.377 22.2906L159.801 22.4047C159.414 22.484 159.003 22.5535 158.581 22.6328L158.472 22.6527C158.07 22.7271 157.688 22.4592 157.614 22.0624C157.574 21.8491 157.634 21.6408 157.753 21.4821C158.026 21.125 158.308 20.7629 158.616 20.4058C158.77 20.2272 158.918 20.0437 159.082 19.8701L159.608 19.4088C159.965 19.1013 160.337 18.7888 160.724 18.5011C161.126 18.2482 161.537 17.9853 161.964 17.7472C162.385 17.4794 162.832 17.3107 163.288 17.1074C163.74 16.909 164.206 16.7106 164.677 16.5915C165.148 16.4527 165.624 16.3138 166.11 16.1898C166.592 16.0955 167.078 16.0162 167.569 15.9368C169.528 15.6739 171.522 15.6938 173.436 16.0311C174.394 16.1997 175.336 16.4328 176.254 16.7552C176.715 16.904 177.161 17.1024 177.618 17.2959C177.841 17.3951 178.069 17.5191 178.297 17.6282C178.406 17.6778 178.53 17.7571 178.649 17.8216L178.828 17.9258L178.907 17.9754C180.842 19.1559 181.68 21.6359 180.648 23.6546C179.83 25.2567 178.178 26.0999 176.531 25.9858L176.432 25.9808C176.105 25.9659 175.52 25.837 174.924 25.6882Z" fill="white"/>
<path d="M178.302 16.393C179.349 16.393 180.197 15.5447 180.197 14.4982C180.197 13.4518 179.349 12.6035 178.302 12.6035C177.256 12.6035 176.407 13.4518 176.407 14.4982C176.407 15.5447 177.256 16.393 178.302 16.393Z" fill="white"/>
<path d="M173.084 14.6124C173.857 14.6124 174.483 13.9862 174.483 13.2137C174.483 12.4412 173.857 11.8149 173.084 11.8149C172.312 11.8149 171.685 12.4412 171.685 13.2137C171.685 13.9862 172.312 14.6124 173.084 14.6124Z" fill="white"/>
<path d="M168.397 14.8602C169.148 14.8602 169.756 14.2517 169.756 13.5011C169.756 12.7506 169.148 12.1421 168.397 12.1421C167.646 12.1421 167.038 12.7506 167.038 13.5011C167.038 14.2517 167.646 14.8602 168.397 14.8602Z" fill="white"/>
<path d="M164.3 15.5897C164.878 15.5897 165.347 15.1211 165.347 14.5431C165.347 13.9651 164.878 13.4966 164.3 13.4966C163.722 13.4966 163.253 13.9651 163.253 14.5431C163.253 15.1211 163.722 15.5897 164.3 15.5897Z" fill="white"/>
<path d="M194.248 38.4106C193.232 37.9047 192.255 37.3095 191.337 36.6448L190.846 36.2877C189.735 35.509 188.609 34.7451 187.404 34.0755C186.198 33.3911 184.924 32.9099 183.52 32.5231C183.173 32.4536 182.816 32.3594 182.444 32.2701C182.444 32.2701 182.444 32.2701 182.439 32.2701L181.318 32.1312L180.732 32.0568C180.732 32.0568 180.732 32.0568 180.728 32.0568L180.142 32.0519C179.745 32.0519 179.329 32.032 178.897 32.0221L178.783 32.0172C178.376 32.0072 178.054 31.665 178.064 31.2583C178.069 31.04 178.168 30.8466 178.322 30.7176C178.664 30.425 179.016 30.1274 179.388 29.8447C179.572 29.7008 179.76 29.557 179.954 29.4181C179.954 29.4181 179.954 29.4181 179.959 29.4181L180.569 29.0759C180.98 28.8477 181.412 28.6245 181.848 28.4211C182.295 28.2575 182.751 28.0839 183.217 27.94C183.684 27.7664 184.16 27.692 184.641 27.5928C185.122 27.4936 185.618 27.3994 186.104 27.3746C186.595 27.3399 187.091 27.3002 187.592 27.2754C187.592 27.2754 187.592 27.2754 187.597 27.2754C188.088 27.2853 188.579 27.3101 189.08 27.3299C191.049 27.4787 192.994 27.9152 194.799 28.6443C195.702 29.0064 196.57 29.433 197.403 29.9389C197.825 30.182 198.221 30.4696 198.623 30.7523C198.822 30.8962 199.02 31.0648 199.218 31.2186C199.318 31.293 199.422 31.3922 199.521 31.4815L199.675 31.6203L199.744 31.6848C201.391 33.2423 201.693 35.8413 200.265 37.6021C199.134 39.0008 197.339 39.482 195.751 39.0256L195.657 39.0008C195.34 38.9314 194.794 38.6834 194.248 38.4106Z" fill="white"/>
<path d="M199.873 30.0629C200.92 30.0629 201.768 29.2146 201.768 28.1682C201.768 27.1217 200.92 26.2734 199.873 26.2734C198.827 26.2734 197.978 27.1217 197.978 28.1682C197.978 29.2146 198.827 30.0629 199.873 30.0629Z" fill="white"/>
<path d="M195.037 27.2257C195.81 27.2257 196.436 26.5994 196.436 25.8269C196.436 25.0545 195.81 24.4282 195.037 24.4282C194.265 24.4282 193.638 25.0545 193.638 25.8269C193.638 26.5994 194.265 27.2257 195.037 27.2257Z" fill="white"/>
<path d="M190.395 26.4915C191.145 26.4915 191.754 25.8831 191.754 25.1325C191.754 24.3819 191.145 23.7734 190.395 23.7734C189.644 23.7734 189.036 24.3819 189.036 25.1325C189.036 25.8831 189.644 26.4915 190.395 26.4915Z" fill="white"/>
<path d="M186.169 26.3475C186.747 26.3475 187.215 25.879 187.215 25.301C187.215 24.723 186.747 24.2544 186.169 24.2544C185.591 24.2544 185.122 24.723 185.122 25.301C185.122 25.879 185.591 26.3475 186.169 26.3475Z" fill="white"/>
<path d="M210.497 54.8771C209.605 54.1728 208.776 53.3891 208.012 52.541L207.606 52.0896C206.683 51.0976 205.741 50.1155 204.699 49.2128C203.663 48.2903 202.512 47.5562 201.222 46.8866C200.895 46.7477 200.568 46.5791 200.22 46.4203C200.22 46.4203 200.22 46.4203 200.215 46.4203L199.149 46.0533L198.593 45.8599C198.593 45.8599 198.593 45.8599 198.588 45.8599L198.018 45.7309C197.631 45.6466 197.224 45.5424 196.808 45.4432L196.699 45.4184C196.302 45.3242 196.059 44.9224 196.153 44.5256C196.203 44.3173 196.342 44.1487 196.515 44.0495C196.907 43.8362 197.319 43.6179 197.74 43.4195C197.954 43.3203 198.167 43.2162 198.385 43.1219C198.385 43.1219 198.385 43.1219 198.39 43.1219L199.06 42.9136C199.511 42.7747 199.977 42.6458 200.448 42.5416C200.92 42.4722 201.401 42.3978 201.887 42.3531C202.383 42.2837 202.859 42.3085 203.355 42.3085C203.846 42.3135 204.352 42.3234 204.833 42.4027C205.319 42.4672 205.815 42.5367 206.306 42.616C206.782 42.7251 207.259 42.8541 207.745 42.9781C209.639 43.5336 211.455 44.3669 213.062 45.4531C213.865 45.9987 214.634 46.5939 215.338 47.2586C215.7 47.581 216.028 47.948 216.365 48.3051C216.529 48.4887 216.688 48.692 216.851 48.8855C216.931 48.9797 217.01 49.0987 217.094 49.2029L217.213 49.3666L217.268 49.4459C218.557 51.3109 218.309 53.9149 216.549 55.3434C215.15 56.4743 213.295 56.5735 211.837 55.7997L211.747 55.7551C211.46 55.6112 210.979 55.2541 210.497 54.8771Z" fill="white"/>
<path d="M218.131 47.9232C219.177 47.9232 220.026 47.0749 220.026 46.0285C220.026 44.9821 219.177 44.1338 218.131 44.1338C217.084 44.1338 216.236 44.9821 216.236 46.0285C216.236 47.0749 217.084 47.9232 218.131 47.9232Z" fill="white"/>
<path d="M213.89 44.129C214.663 44.129 215.289 43.5028 215.289 42.7303C215.289 41.9578 214.663 41.3315 213.89 41.3315C213.118 41.3315 212.491 41.9578 212.491 42.7303C212.491 43.5028 213.118 44.129 213.89 44.129Z" fill="white"/>
<path d="M209.491 42.4476C210.241 42.4476 210.85 41.8391 210.85 41.0885C210.85 40.338 210.241 39.7295 209.491 39.7295C208.74 39.7295 208.132 40.338 208.132 41.0885C208.132 41.8391 208.74 42.4476 209.491 42.4476Z" fill="white"/>
<path d="M205.324 41.4208C205.902 41.4208 206.371 40.9522 206.371 40.3742C206.371 39.7962 205.902 39.3276 205.324 39.3276C204.746 39.3276 204.278 39.7962 204.278 40.3742C204.278 40.9522 204.746 41.4208 205.324 41.4208Z" fill="white"/>
<path d="M222.972 74.3602C222.248 73.4823 221.598 72.5448 221.027 71.5628L220.72 71.037C220.026 69.8714 219.306 68.7157 218.478 67.6196C217.655 66.5036 216.683 65.5413 215.562 64.6237C215.274 64.4204 214.981 64.1872 214.679 63.9591C214.679 63.9591 214.679 63.9591 214.674 63.9591L213.707 63.3788L213.201 63.0762C213.201 63.0762 213.201 63.0762 213.196 63.0762L212.665 62.8332C212.303 62.6695 211.931 62.486 211.544 62.2975L211.445 62.2479C211.078 62.0743 210.924 61.6328 211.098 61.2658C211.192 61.0724 211.36 60.9335 211.554 60.8789C211.985 60.75 212.427 60.621 212.883 60.5168C213.111 60.4623 213.339 60.4028 213.573 60.3581C213.573 60.3581 213.573 60.3581 213.578 60.3581L214.272 60.2936C214.743 60.254 215.224 60.2192 215.71 60.2192C215.71 60.2192 215.71 60.2192 215.715 60.2192C216.187 60.249 216.678 60.2788 217.164 60.3383C217.66 60.373 218.126 60.497 218.607 60.6012C219.088 60.7053 219.579 60.8194 220.035 60.998C220.497 61.1616 220.968 61.3303 221.434 61.5138C221.876 61.7221 222.317 61.9453 222.763 62.1636C224.504 63.101 226.102 64.2914 227.451 65.6901C228.125 66.3895 228.75 67.1335 229.301 67.932C229.583 68.3239 229.831 68.7504 230.084 69.172C230.208 69.3853 230.318 69.6184 230.437 69.8416C230.496 69.9508 230.551 70.0847 230.605 70.2037L230.69 70.3922L230.724 70.4815C231.597 72.5746 230.814 75.0695 228.795 76.1012C227.193 76.9146 225.358 76.6269 224.093 75.5655L224.013 75.506C223.76 75.2778 223.364 74.8314 222.972 74.3602Z" fill="white"/>
<path d="M232.282 69.1869C233.328 69.1869 234.176 68.3386 234.176 67.2922C234.176 66.2458 233.328 65.3975 232.282 65.3975C231.235 65.3975 230.387 66.2458 230.387 67.2922C230.387 68.3386 231.235 69.1869 232.282 69.1869Z" fill="white"/>
<path d="M228.815 64.5841C229.587 64.5841 230.213 63.9578 230.213 63.1853C230.213 62.4128 229.587 61.7866 228.815 61.7866C228.042 61.7866 227.416 62.4128 227.416 63.1853C227.416 63.9578 228.042 64.5841 228.815 64.5841Z" fill="white"/>
<path d="M224.852 62.0198C225.602 62.0198 226.211 61.4114 226.211 60.6608C226.211 59.9102 225.602 59.3018 224.852 59.3018C224.101 59.3018 223.493 59.9102 223.493 60.6608C223.493 61.4114 224.101 62.0198 224.852 62.0198Z" fill="white"/>
<path d="M220.928 60.1449C221.506 60.1449 221.975 59.6763 221.975 59.0983C221.975 58.5203 221.506 58.0518 220.928 58.0518C220.35 58.0518 219.882 58.5203 219.882 59.0983C219.882 59.6763 220.35 60.1449 220.928 60.1449Z" fill="white"/>
<path d="M231.126 96.0105C230.6 95.0036 230.164 93.9521 229.807 92.8708L229.618 92.2905C229.177 91.0059 228.716 89.7262 228.135 88.4812C227.565 87.2164 226.811 86.0756 225.903 84.9447C225.66 84.6868 225.427 84.3991 225.179 84.1115L224.356 83.3427L223.924 82.9409C223.924 82.9409 223.924 82.9409 223.919 82.9409L223.448 82.5937C223.126 82.3606 222.803 82.1027 222.461 81.8398L222.372 81.7703C222.049 81.5223 221.99 81.0561 222.238 80.7337C222.372 80.5601 222.565 80.4659 222.764 80.446C223.21 80.4113 223.671 80.3766 224.137 80.3716C224.371 80.3667 224.609 80.3567 224.847 80.3617C224.847 80.3617 224.847 80.3617 224.852 80.3617L225.546 80.446C226.017 80.5055 226.493 80.575 226.97 80.6692C227.426 80.7982 227.897 80.9271 228.358 81.0859C228.84 81.2198 229.266 81.443 229.717 81.6414C230.169 81.8447 230.625 82.058 231.032 82.3259C231.449 82.5838 231.875 82.8467 232.292 83.1195C232.684 83.4121 233.065 83.7246 233.457 84.0321C234.965 85.3118 236.28 86.8097 237.311 88.4564C237.827 89.2798 238.283 90.1379 238.655 91.0356C238.854 91.4771 239.003 91.9433 239.166 92.4095C239.241 92.6427 239.305 92.8956 239.37 93.1387C239.404 93.2577 239.429 93.3966 239.459 93.5305L239.504 93.7289L239.523 93.8231C239.94 96.0502 238.655 98.3318 236.468 98.9171C234.732 99.3833 232.996 98.7187 231.979 97.4142L231.915 97.3398C231.706 97.0719 231.409 96.5511 231.126 96.0105Z" fill="white"/>
<path d="M241.696 92.9257C242.742 92.9257 243.591 92.0774 243.591 91.0309C243.591 89.9845 242.742 89.1362 241.696 89.1362C240.649 89.1362 239.801 89.9845 239.801 91.0309C239.801 92.0774 240.649 92.9257 241.696 92.9257Z" fill="white"/>
<path d="M239.161 87.6929C239.934 87.6929 240.56 87.0667 240.56 86.2942C240.56 85.5217 239.934 84.8955 239.161 84.8955C238.389 84.8955 237.763 85.5217 237.763 86.2942C237.763 87.0667 238.389 87.6929 239.161 87.6929Z" fill="white"/>
<path d="M235.813 84.3646C236.564 84.3646 237.172 83.7561 237.172 83.0055C237.172 82.2549 236.564 81.6465 235.813 81.6465C235.063 81.6465 234.454 82.2549 234.454 83.0055C234.454 83.7561 235.063 84.3646 235.813 84.3646Z" fill="white"/>
<path d="M232.297 81.701C232.875 81.701 233.343 81.2325 233.343 80.6545C233.343 80.0765 232.875 79.6079 232.297 79.6079C231.719 79.6079 231.25 80.0765 231.25 80.6545C231.25 81.2325 231.719 81.701 232.297 81.701Z" fill="white"/>
<path d="M234.598 118.881C234.291 117.785 234.082 116.664 233.963 115.533L233.899 114.928C233.735 113.584 233.552 112.235 233.239 110.891C232.941 109.537 232.445 108.267 231.791 106.967C231.607 106.665 231.439 106.333 231.255 106C231.255 106 231.255 106 231.255 105.995L230.61 105.073L230.273 104.587C230.273 104.587 230.273 104.587 230.273 104.582L229.886 104.14C229.623 103.843 229.355 103.525 229.078 103.198L229.003 103.113C228.74 102.801 228.775 102.34 229.088 102.072C229.251 101.933 229.464 101.878 229.663 101.903C230.109 101.963 230.566 102.027 231.027 102.117C231.255 102.161 231.493 102.201 231.721 102.255C231.721 102.255 231.721 102.255 231.726 102.255L232.386 102.479C232.832 102.632 233.284 102.801 233.73 102.994C234.152 103.218 234.583 103.441 235.005 103.689C235.446 103.922 235.818 104.225 236.22 104.512C236.617 104.805 237.019 105.107 237.361 105.455C237.713 105.792 238.075 106.139 238.427 106.496C238.75 106.863 239.062 107.245 239.38 107.632C240.585 109.199 241.567 110.935 242.227 112.761C242.559 113.673 242.827 114.606 243.005 115.563C243.104 116.039 243.159 116.525 243.219 117.016C243.243 117.259 243.253 117.517 243.268 117.77C243.278 117.889 243.273 118.038 243.278 118.172V118.375V118.47C243.224 120.736 241.492 122.701 239.231 122.815C237.435 122.909 235.878 121.897 235.154 120.414L235.109 120.325C234.94 120.042 234.762 119.472 234.598 118.881Z" fill="white"/>
<path d="M245.971 118.108C247.018 118.108 247.866 117.26 247.866 116.213C247.866 115.167 247.018 114.318 245.971 114.318C244.925 114.318 244.077 115.167 244.077 116.213C244.077 117.26 244.925 118.108 245.971 118.108Z" fill="white"/>
<path d="M244.478 112.448C245.251 112.448 245.877 111.822 245.877 111.05C245.877 110.277 245.251 109.651 244.478 109.651C243.706 109.651 243.08 110.277 243.08 111.05C243.08 111.822 243.706 112.448 244.478 112.448Z" fill="white"/>
<path d="M241.884 108.495C242.635 108.495 243.243 107.886 243.243 107.136C243.243 106.385 242.635 105.777 241.884 105.777C241.134 105.777 240.525 106.385 240.525 107.136C240.525 107.886 241.134 108.495 241.884 108.495Z" fill="white"/>
<path d="M238.933 105.157C239.511 105.157 239.98 104.689 239.98 104.111C239.98 103.533 239.511 103.064 238.933 103.064C238.355 103.064 237.887 103.533 237.887 104.111C237.887 104.689 238.355 105.157 238.933 105.157Z" fill="white"/>
<path d="M233.234 141.98C233.165 140.844 233.189 139.703 233.308 138.572L233.373 137.967C233.492 136.618 233.591 135.259 233.566 133.885C233.556 132.496 233.338 131.152 232.966 129.744C232.852 129.406 232.753 129.049 232.644 128.687C232.644 128.687 232.644 128.687 232.644 128.682L232.202 127.646L231.974 127.1C231.974 127.1 231.974 127.1 231.974 127.095L231.687 126.584C231.488 126.242 231.295 125.87 231.091 125.493L231.037 125.394C230.843 125.037 230.977 124.585 231.334 124.392C231.523 124.288 231.741 124.278 231.93 124.347C232.351 124.496 232.788 124.655 233.219 124.838C233.432 124.927 233.656 125.017 233.869 125.116C233.869 125.116 233.869 125.116 233.874 125.116L234.474 125.473C234.881 125.716 235.288 125.974 235.679 126.257C236.041 126.559 236.423 126.867 236.78 127.199C237.162 127.517 237.465 127.894 237.797 128.261C238.125 128.628 238.457 129.01 238.72 129.421C238.993 129.828 239.28 130.24 239.548 130.661C239.786 131.088 240.009 131.529 240.243 131.971C241.096 133.751 241.691 135.656 241.964 137.58C242.098 138.543 242.167 139.51 242.147 140.482C242.147 140.968 242.098 141.454 242.053 141.945C242.023 142.188 241.984 142.446 241.944 142.694C241.929 142.813 241.894 142.957 241.869 143.086L241.83 143.284L241.81 143.379C241.289 145.581 239.186 147.143 236.949 146.791C235.173 146.508 233.859 145.199 233.462 143.597L233.437 143.503C233.333 143.185 233.274 142.59 233.234 141.98Z" fill="white"/>
<path d="M244.92 143.627C245.966 143.627 246.815 142.779 246.815 141.732C246.815 140.686 245.966 139.837 244.92 139.837C243.873 139.837 243.025 140.686 243.025 141.732C243.025 142.779 243.873 143.627 244.92 143.627Z" fill="white"/>
<path d="M244.528 137.769C245.301 137.769 245.927 137.143 245.927 136.37C245.927 135.598 245.301 134.972 244.528 134.972C243.756 134.972 243.129 135.598 243.129 136.37C243.129 137.143 243.756 137.769 244.528 137.769Z" fill="white"/>
<path d="M242.807 133.36C243.557 133.36 244.166 132.751 244.166 132.001C244.166 131.25 243.557 130.642 242.807 130.642C242.056 130.642 241.448 131.25 241.448 132.001C241.448 132.751 242.056 133.36 242.807 133.36Z" fill="white"/>
<path d="M240.55 129.476C241.128 129.476 241.597 129.007 241.597 128.429C241.597 127.851 241.128 127.383 240.55 127.383C239.972 127.383 239.504 127.851 239.504 128.429C239.504 129.007 239.972 129.476 240.55 129.476Z" fill="white"/>
<path d="M227.103 164.285C227.267 163.159 227.535 162.053 227.882 160.967L228.071 160.386C228.468 159.092 228.849 157.782 229.107 156.433C229.385 155.074 229.45 153.71 229.38 152.257C229.335 151.905 229.316 151.533 229.286 151.156C229.286 151.156 229.286 151.156 229.286 151.151L229.073 150.045L228.959 149.464C228.959 149.464 228.959 149.464 228.959 149.459L228.785 148.899C228.661 148.522 228.552 148.12 228.428 147.709L228.398 147.599C228.284 147.208 228.507 146.796 228.899 146.682C229.107 146.622 229.321 146.657 229.494 146.761C229.876 146.994 230.268 147.242 230.655 147.51C230.848 147.644 231.047 147.778 231.235 147.917C231.235 147.917 231.235 147.917 231.24 147.917L231.751 148.393C232.098 148.715 232.44 149.053 232.768 149.41C233.06 149.782 233.368 150.164 233.651 150.561C233.958 150.952 234.176 151.379 234.424 151.81C234.668 152.237 234.911 152.683 235.084 153.135C235.268 153.586 235.461 154.052 235.635 154.519C235.779 154.985 235.908 155.461 236.041 155.942C236.508 157.862 236.696 159.846 236.557 161.785C236.488 162.757 236.354 163.714 236.131 164.662C236.032 165.138 235.878 165.604 235.734 166.075C235.655 166.309 235.56 166.547 235.471 166.785C235.431 166.899 235.367 167.028 235.317 167.152L235.233 167.34L235.193 167.425C234.221 169.473 231.84 170.564 229.727 169.751C228.051 169.106 227.034 167.549 226.979 165.897L226.975 165.798C226.95 165.485 227.014 164.89 227.103 164.285Z" fill="white"/>
<path d="M238.586 168.367C239.632 168.367 240.481 167.519 240.481 166.472C240.481 165.426 239.632 164.578 238.586 164.578C237.539 164.578 236.691 165.426 236.691 166.472C236.691 167.519 237.539 168.367 238.586 168.367Z" fill="white"/>
<path d="M239.315 162.544C240.088 162.544 240.714 161.918 240.714 161.145C240.714 160.373 240.088 159.747 239.315 159.747C238.543 159.747 237.916 160.373 237.916 161.145C237.916 161.918 238.543 162.544 239.315 162.544Z" fill="white"/>
<path d="M238.541 157.877C239.292 157.877 239.9 157.268 239.9 156.518C239.9 155.767 239.292 155.159 238.541 155.159C237.791 155.159 237.182 155.767 237.182 156.518C237.182 157.268 237.791 157.877 238.541 157.877Z" fill="white"/>
<path d="M237.078 153.601C237.656 153.601 238.125 153.132 238.125 152.554C238.125 151.976 237.656 151.508 237.078 151.508C236.5 151.508 236.031 151.976 236.031 152.554C236.031 153.132 236.5 153.601 237.078 153.601Z" fill="white"/>
<path d="M216.469 184.829C216.866 183.763 217.357 182.731 217.923 181.749L218.225 181.223C218.885 180.038 219.53 178.838 220.065 177.573C220.621 176.303 220.968 174.984 221.201 173.545C221.231 173.193 221.29 172.826 221.34 172.449C221.34 172.449 221.34 172.449 221.34 172.444L221.36 171.318L221.37 170.728C221.37 170.728 221.37 170.728 221.37 170.723L221.315 170.138C221.276 169.741 221.251 169.329 221.216 168.898L221.206 168.784C221.176 168.377 221.479 168.025 221.886 167.99C222.099 167.975 222.302 168.055 222.451 168.188C222.778 168.496 223.111 168.818 223.428 169.161C223.587 169.329 223.756 169.503 223.909 169.681C223.909 169.681 223.909 169.681 223.909 169.686L224.311 170.257C224.584 170.644 224.852 171.045 225.095 171.462C225.303 171.889 225.521 172.325 225.715 172.771C225.933 173.218 226.057 173.684 226.211 174.155C226.36 174.627 226.508 175.108 226.578 175.589C226.662 176.07 226.756 176.561 226.831 177.057C226.831 177.057 226.831 177.057 226.831 177.062C226.875 177.548 226.9 178.044 226.93 178.54C226.984 180.514 226.756 182.493 226.221 184.363C225.953 185.296 225.62 186.208 225.204 187.086C225.005 187.528 224.762 187.954 224.524 188.386C224.4 188.599 224.256 188.812 224.123 189.025C224.058 189.13 223.969 189.244 223.894 189.353L223.775 189.516L223.716 189.591C222.342 191.391 219.788 191.962 217.888 190.727C216.38 189.745 215.71 188.014 216.003 186.387L216.018 186.287C216.068 185.97 216.256 185.405 216.469 184.829Z" fill="white"/>
<path d="M227.242 191.252C228.289 191.252 229.137 190.404 229.137 189.358C229.137 188.311 228.289 187.463 227.242 187.463C226.196 187.463 225.348 188.311 225.348 189.358C225.348 190.404 226.196 191.252 227.242 191.252Z" fill="white"/>
<path d="M229.068 185.697C229.84 185.697 230.466 185.071 230.466 184.299C230.466 183.526 229.84 182.9 229.068 182.9C228.295 182.9 227.669 183.526 227.669 184.299C227.669 185.071 228.295 185.697 229.068 185.697Z" fill="white"/>
<path d="M229.271 180.966C230.022 180.966 230.63 180.357 230.63 179.607C230.63 178.856 230.022 178.248 229.271 178.248C228.52 178.248 227.912 178.856 227.912 179.607C227.912 180.357 228.52 180.966 229.271 180.966Z" fill="white"/>
<path d="M228.661 176.472C229.239 176.472 229.708 176.003 229.708 175.425C229.708 174.847 229.239 174.378 228.661 174.378C228.083 174.378 227.614 174.847 227.614 175.425C227.614 176.003 228.083 176.472 228.661 176.472Z" fill="white"/>
<path d="M201.793 202.715C202.403 201.753 203.097 200.85 203.856 200.002L204.263 199.551C205.156 198.529 206.033 197.487 206.822 196.361C207.631 195.235 208.241 194.015 208.771 192.661C208.876 192.324 209.009 191.977 209.133 191.62C209.133 191.62 209.133 191.62 209.133 191.615L209.386 190.518L209.52 189.943C209.52 189.943 209.52 189.943 209.52 189.938L209.585 189.358C209.629 188.961 209.689 188.549 209.744 188.123L209.758 188.014C209.813 187.612 210.185 187.324 210.587 187.379C210.8 187.408 210.984 187.528 211.098 187.691C211.351 188.058 211.613 188.445 211.852 188.847C211.976 189.045 212.1 189.249 212.214 189.457C212.214 189.457 212.214 189.457 212.214 189.462L212.491 190.107C212.675 190.543 212.853 190.99 213.007 191.451C213.121 191.912 213.245 192.383 213.344 192.864C213.468 193.351 213.488 193.827 213.543 194.318C213.592 194.809 213.632 195.31 213.607 195.796C213.592 196.287 213.578 196.783 213.548 197.284C213.548 197.284 213.548 197.284 213.548 197.289C213.488 197.775 213.414 198.261 213.34 198.757C212.982 200.701 212.348 202.591 211.435 204.307C210.979 205.165 210.468 205.989 209.877 206.762C209.595 207.154 209.262 207.521 208.94 207.893C208.776 208.077 208.588 208.255 208.414 208.434C208.33 208.523 208.221 208.617 208.122 208.707L207.968 208.846L207.893 208.91C206.172 210.388 203.553 210.413 201.956 208.811C200.687 207.536 200.394 205.706 201.014 204.173L201.049 204.079C201.163 203.747 201.465 203.231 201.793 202.715Z" fill="white"/>
<path d="M211.39 211.276C212.437 211.276 213.285 210.427 213.285 209.381C213.285 208.335 212.437 207.486 211.39 207.486C210.344 207.486 209.496 208.335 209.496 209.381C209.496 210.427 210.344 211.276 211.39 211.276Z" fill="white"/>
<path d="M214.227 206.212C215 206.212 215.626 205.586 215.626 204.813C215.626 204.041 215 203.415 214.227 203.415C213.455 203.415 212.829 204.041 212.829 204.813C212.829 205.586 213.455 206.212 214.227 206.212Z" fill="white"/>
<path d="M215.403 201.629C216.153 201.629 216.762 201.02 216.762 200.27C216.762 199.519 216.153 198.911 215.403 198.911C214.652 198.911 214.044 199.519 214.044 200.27C214.044 201.02 214.652 201.629 215.403 201.629Z" fill="white"/>
<path d="M215.676 197.1C216.254 197.1 216.722 196.632 216.722 196.054C216.722 195.476 216.254 195.007 215.676 195.007C215.098 195.007 214.629 195.476 214.629 196.054C214.629 196.632 215.098 197.1 215.676 197.1Z" fill="white"/>
<path d="M183.718 217.159C184.512 216.345 185.38 215.606 186.298 214.931L186.789 214.574C187.875 213.761 188.951 212.928 189.953 211.985C190.98 211.048 191.828 209.986 192.632 208.771C192.805 208.464 193.004 208.151 193.202 207.824C193.202 207.824 193.202 207.824 193.202 207.819L193.678 206.797L193.926 206.261C193.926 206.261 193.926 206.261 193.926 206.256L194.115 205.701C194.239 205.324 194.382 204.932 194.526 204.53L194.566 204.426C194.705 204.044 195.126 203.841 195.508 203.98C195.712 204.054 195.865 204.208 195.945 204.391C196.118 204.808 196.292 205.235 196.441 205.676C196.52 205.894 196.6 206.122 196.669 206.346C196.669 206.346 196.669 206.346 196.669 206.351L196.803 207.035C196.892 207.501 196.976 207.978 197.031 208.454C197.031 208.454 197.031 208.454 197.031 208.459C197.051 208.935 197.071 209.421 197.066 209.907C197.086 210.408 197.006 210.879 196.957 211.37C196.902 211.861 196.838 212.362 196.709 212.828C196.59 213.305 196.476 213.791 196.342 214.272C196.183 214.733 196.009 215.194 195.831 215.666C195.077 217.491 194.065 219.207 192.815 220.695C192.19 221.439 191.516 222.138 190.781 222.773C190.419 223.096 190.023 223.388 189.631 223.686C189.432 223.83 189.214 223.969 189.001 224.107C188.902 224.177 188.773 224.246 188.659 224.316L188.48 224.42L188.396 224.465C186.407 225.551 183.837 225.035 182.607 223.13C181.63 221.622 181.724 219.767 182.647 218.399L182.702 218.314C182.89 218.036 183.292 217.595 183.718 217.159Z" fill="white"/>
<path d="M191.724 227.57C192.77 227.57 193.619 226.721 193.619 225.675C193.619 224.629 192.77 223.78 191.724 223.78C190.677 223.78 189.829 224.629 189.829 225.675C189.829 226.721 190.677 227.57 191.724 227.57Z" fill="white"/>
<path d="M195.444 223.195C196.216 223.195 196.843 222.569 196.843 221.796C196.843 221.024 196.216 220.397 195.444 220.397C194.671 220.397 194.045 221.024 194.045 221.796C194.045 222.569 194.671 223.195 195.444 223.195Z" fill="white"/>
<path d="M197.537 218.954C198.288 218.954 198.896 218.345 198.896 217.595C198.896 216.844 198.288 216.236 197.537 216.236C196.786 216.236 196.178 216.844 196.178 217.595C196.178 218.345 196.786 218.954 197.537 218.954Z" fill="white"/>
<path d="M198.683 214.575C199.261 214.575 199.729 214.106 199.729 213.528C199.729 212.95 199.261 212.481 198.683 212.481C198.105 212.481 197.636 212.95 197.636 213.528C197.636 214.106 198.105 214.575 198.683 214.575Z" fill="white"/>
<path d="M163.04 227.525C163.988 226.895 164.989 226.35 166.026 225.883L166.582 225.635C167.812 225.065 169.037 224.47 170.217 223.76C171.413 223.061 172.469 222.193 173.506 221.171C173.739 220.903 174.002 220.641 174.26 220.363L174.939 219.46L175.296 218.989C175.296 218.989 175.296 218.989 175.296 218.984L175.594 218.478C175.792 218.136 176.016 217.784 176.244 217.417L176.303 217.322C176.516 216.975 176.973 216.866 177.32 217.079C177.504 217.193 177.623 217.377 177.657 217.57C177.742 218.012 177.821 218.468 177.876 218.929C177.905 219.163 177.94 219.396 177.96 219.634C177.96 219.634 177.96 219.634 177.96 219.639L177.95 220.338C177.94 220.809 177.92 221.295 177.876 221.776C177.796 222.243 177.717 222.724 177.608 223.2C177.523 223.691 177.35 224.137 177.196 224.609C177.042 225.075 176.874 225.556 176.65 225.987C176.437 226.429 176.224 226.88 175.991 227.322C175.738 227.743 175.47 228.155 175.202 228.577C174.086 230.208 172.737 231.677 171.204 232.872C170.44 233.472 169.637 234.013 168.784 234.479C168.362 234.722 167.916 234.92 167.469 235.129C167.246 235.228 167.003 235.317 166.77 235.411C166.656 235.461 166.517 235.501 166.393 235.54L166.2 235.605L166.11 235.635C163.938 236.284 161.537 235.243 160.724 233.13C160.079 231.448 160.56 229.658 161.746 228.512L161.815 228.443C162.043 228.215 162.529 227.867 163.04 227.525Z" fill="white"/>
<path d="M169.096 239.414C170.143 239.414 170.991 238.566 170.991 237.519C170.991 236.473 170.143 235.625 169.096 235.625C168.05 235.625 167.202 236.473 167.202 237.519C167.202 238.566 168.05 239.414 169.096 239.414Z" fill="white"/>
<path d="M173.54 235.902C174.313 235.902 174.939 235.276 174.939 234.504C174.939 233.731 174.313 233.105 173.54 233.105C172.768 233.105 172.142 233.731 172.142 234.504C172.142 235.276 172.768 235.902 173.54 235.902Z" fill="white"/>
<path d="M176.467 232.187C177.217 232.187 177.826 231.579 177.826 230.828C177.826 230.078 177.217 229.469 176.467 229.469C175.716 229.469 175.108 230.078 175.108 230.828C175.108 231.579 175.716 232.187 176.467 232.187Z" fill="white"/>
<path d="M178.431 228.135C179.009 228.135 179.478 227.667 179.478 227.089C179.478 226.511 179.009 226.042 178.431 226.042C177.853 226.042 177.384 226.511 177.384 227.089C177.384 227.667 177.853 228.135 178.431 228.135Z" fill="white"/>
<path d="M140.656 233.368C141.712 232.946 142.808 232.624 143.919 232.386L144.515 232.257C145.834 231.954 147.158 231.627 148.458 231.18C149.777 230.744 150.987 230.119 152.212 229.33C152.495 229.117 152.808 228.914 153.12 228.7C153.12 228.7 153.12 228.7 153.125 228.7L153.978 227.961L154.425 227.574L154.821 227.143C155.089 226.85 155.382 226.553 155.675 226.24L155.754 226.161C156.037 225.863 156.503 225.853 156.796 226.136C156.954 226.285 157.029 226.488 157.024 226.687C157.014 227.133 156.999 227.599 156.954 228.066C156.934 228.299 156.92 228.537 156.89 228.77C156.89 228.77 156.89 228.77 156.89 228.775L156.736 229.459C156.627 229.921 156.513 230.387 156.364 230.848C156.185 231.29 156.012 231.741 155.804 232.187C155.62 232.649 155.357 233.05 155.109 233.482C154.861 233.908 154.598 234.34 154.291 234.717C153.988 235.104 153.686 235.501 153.368 235.887C153.036 236.245 152.689 236.597 152.336 236.954C150.908 238.318 149.281 239.474 147.535 240.322C146.662 240.748 145.764 241.11 144.832 241.388C144.371 241.537 143.89 241.641 143.408 241.75C143.165 241.8 142.912 241.834 142.664 241.879C142.545 241.904 142.402 241.914 142.268 241.929L142.064 241.949L141.97 241.958C139.713 242.142 137.576 240.624 137.223 238.387C136.946 236.612 137.784 234.955 139.183 234.082L139.267 234.027C139.54 233.834 140.085 233.596 140.656 233.368Z" fill="white"/>
<path d="M144.5 246.298C145.546 246.298 146.394 245.45 146.394 244.404C146.394 243.357 145.546 242.509 144.5 242.509C143.453 242.509 142.605 243.357 142.605 244.404C142.605 245.45 143.453 246.298 144.5 246.298Z" fill="white"/>
<path d="M149.48 243.774C150.252 243.774 150.878 243.148 150.878 242.375C150.878 241.603 150.252 240.977 149.48 240.977C148.707 240.977 148.081 241.603 148.081 242.375C148.081 243.148 148.707 243.774 149.48 243.774Z" fill="white"/>
<path d="M153.1 240.748C153.851 240.748 154.459 240.14 154.459 239.389C154.459 238.639 153.851 238.03 153.1 238.03C152.35 238.03 151.741 238.639 151.741 239.389C151.741 240.14 152.35 240.748 153.1 240.748Z" fill="white"/>
<path d="M155.804 237.187C156.382 237.187 156.85 236.718 156.85 236.14C156.85 235.562 156.382 235.094 155.804 235.094C155.226 235.094 154.757 235.562 154.757 236.14C154.757 236.718 155.226 237.187 155.804 237.187Z" fill="white"/>
<path d="M117.547 234.429C118.668 234.241 119.804 234.147 120.945 234.147H121.555C122.909 234.127 124.273 234.082 125.637 233.913C127.016 233.76 128.33 233.398 129.694 232.887C130.016 232.738 130.364 232.604 130.711 232.455C130.711 232.455 130.711 232.455 130.716 232.455L131.703 231.91L132.219 231.622C132.219 231.622 132.219 231.622 132.224 231.622L132.7 231.28C133.022 231.047 133.369 230.818 133.722 230.575L133.816 230.511C134.153 230.283 134.609 230.367 134.843 230.704C134.967 230.883 134.996 231.096 134.952 231.295C134.848 231.731 134.738 232.182 134.6 232.629C134.535 232.852 134.466 233.08 134.391 233.303C134.391 233.303 134.391 233.303 134.391 233.308L134.099 233.943C133.9 234.37 133.687 234.806 133.444 235.228C133.181 235.62 132.913 236.031 132.62 236.423C132.343 236.84 132 237.177 131.673 237.544C131.341 237.906 130.994 238.278 130.617 238.581C130.245 238.898 129.863 239.221 129.471 239.533C129.069 239.816 128.657 240.084 128.241 240.361C126.559 241.398 124.729 242.192 122.844 242.658C121.902 242.891 120.945 243.065 119.977 243.139C119.496 243.189 119.005 243.189 118.509 243.199C118.261 243.199 118.003 243.179 117.755 243.169C117.631 243.164 117.492 243.149 117.359 243.134L117.155 243.114L117.061 243.104C114.814 242.817 113.038 240.887 113.162 238.625C113.257 236.83 114.422 235.386 115.975 234.821L116.069 234.786C116.357 234.652 116.942 234.533 117.547 234.429Z" fill="white"/>
<path d="M119.015 247.92C120.062 247.92 120.91 247.072 120.91 246.026C120.91 244.979 120.062 244.131 119.015 244.131C117.969 244.131 117.12 244.979 117.12 246.026C117.12 247.072 117.969 247.92 119.015 247.92Z" fill="white"/>
<path d="M124.303 246.472C125.075 246.472 125.701 245.846 125.701 245.074C125.701 244.301 125.075 243.675 124.303 243.675C123.53 243.675 122.904 244.301 122.904 245.074C122.904 245.846 123.53 246.472 124.303 246.472Z" fill="white"/>
<path d="M128.469 244.265C129.22 244.265 129.828 243.657 129.828 242.906C129.828 242.155 129.22 241.547 128.469 241.547C127.718 241.547 127.11 242.155 127.11 242.906C127.11 243.657 127.718 244.265 128.469 244.265Z" fill="white"/>
<path d="M131.787 241.339C132.365 241.339 132.834 240.87 132.834 240.292C132.834 239.714 132.365 239.246 131.787 239.246C131.209 239.246 130.741 239.714 130.741 240.292C130.741 240.87 131.209 241.339 131.787 241.339Z" fill="white"/>
<path d="M94.7211 230.665C95.857 230.714 96.9878 230.858 98.1038 231.091L98.699 231.215C100.028 231.478 101.368 231.716 102.741 231.835C104.12 231.974 105.484 231.89 106.923 231.672C107.27 231.592 107.637 231.533 108.009 231.463C108.009 231.463 108.009 231.463 108.014 231.463L109.09 231.136L109.656 230.962C109.656 230.962 109.656 230.962 109.661 230.962L110.196 230.729C110.558 230.571 110.945 230.417 111.342 230.253L111.446 230.208C111.823 230.055 112.255 230.233 112.408 230.61C112.493 230.809 112.478 231.027 112.394 231.21C112.2 231.617 111.997 232.034 111.774 232.44C111.66 232.644 111.55 232.857 111.426 233.06C111.426 233.06 111.426 233.06 111.426 233.065L111.01 233.626C110.727 234.003 110.424 234.385 110.107 234.747C109.765 235.079 109.423 235.421 109.051 235.744C108.693 236.091 108.292 236.349 107.89 236.642C107.488 236.929 107.076 237.217 106.64 237.435C106.208 237.668 105.767 237.906 105.321 238.13C104.869 238.323 104.408 238.502 103.947 238.68C102.087 239.345 100.132 239.737 98.1882 239.806C97.216 239.841 96.2488 239.806 95.2816 239.682C94.8005 239.632 94.3194 239.528 93.8333 239.439C93.5952 239.384 93.3422 239.315 93.0992 239.255C92.9802 239.226 92.8462 239.176 92.7173 239.141L92.5238 239.077L92.4346 239.047C90.2968 238.298 88.9626 236.041 89.5528 233.854C90.019 232.118 91.4624 230.948 93.0942 230.719L93.1934 230.704C93.5109 230.635 94.1061 230.64 94.7211 230.665Z" fill="white"/>
<path d="M93.744 244.205C94.7904 244.205 95.6387 243.357 95.6387 242.311C95.6387 241.264 94.7904 240.416 93.744 240.416C92.6976 240.416 91.8493 241.264 91.8493 242.311C91.8493 243.357 92.6976 244.205 93.744 244.205Z" fill="white"/>
<path d="M99.1157 243.878C99.8882 243.878 100.514 243.252 100.514 242.479C100.514 241.707 99.8882 241.081 99.1157 241.081C98.3432 241.081 97.717 241.707 97.717 242.479C97.717 243.252 98.3432 243.878 99.1157 243.878Z" fill="white"/>
<path d="M103.639 242.584C104.39 242.584 104.998 241.975 104.998 241.225C104.998 240.474 104.39 239.866 103.639 239.866C102.889 239.866 102.28 240.474 102.28 241.225C102.28 241.975 102.889 242.584 103.639 242.584Z" fill="white"/>
<path d="M107.429 240.401C108.007 240.401 108.475 239.933 108.475 239.355C108.475 238.777 108.007 238.308 107.429 238.308C106.851 238.308 106.382 238.777 106.382 239.355C106.382 239.933 106.851 240.401 107.429 240.401Z" fill="white"/>
<path d="M73.1749 222.233C74.276 222.515 75.3523 222.892 76.3939 223.354L76.9494 223.602C78.1944 224.132 79.4592 224.648 80.7736 225.05C82.0979 225.472 83.4421 225.675 84.8954 225.759C85.2475 225.754 85.6195 225.774 86.0014 225.779C86.0014 225.779 86.0014 225.779 86.0064 225.779L87.1274 225.68L87.7176 225.63C87.7176 225.63 87.7176 225.63 87.7226 225.63L88.2979 225.516C88.6848 225.437 89.0965 225.367 89.5181 225.288L89.6272 225.268C90.029 225.194 90.4109 225.462 90.4853 225.858C90.525 226.072 90.4654 226.28 90.3464 226.439C90.0736 226.796 89.7909 227.158 89.4834 227.515C89.3296 227.694 89.1808 227.877 89.0171 228.051L88.4914 228.512C88.1343 228.82 87.7623 229.132 87.3754 229.42C86.9736 229.673 86.5619 229.936 86.1354 230.174C85.7138 230.441 85.2674 230.61 84.8111 230.813C84.3597 231.012 83.8935 231.21 83.4223 231.329C82.9511 231.468 82.4749 231.607 81.9888 231.731C81.5077 231.825 81.0216 231.905 80.5306 231.984C78.5714 232.247 76.5774 232.227 74.6629 231.89C73.7056 231.721 72.7632 231.488 71.8456 231.166C71.3843 231.017 70.9379 230.818 70.4816 230.625C70.2584 230.526 70.0302 230.402 69.8021 230.293C69.693 230.243 69.569 230.164 69.4499 230.099L69.2714 229.995L69.192 229.945C67.2576 228.765 66.4194 226.285 67.4511 224.266C68.2695 222.664 69.9211 221.821 71.5678 221.935L71.6671 221.94C71.9994 221.955 72.5797 222.084 73.1749 222.233Z" fill="white"/>
<path d="M69.8021 235.317C70.8485 235.317 71.6968 234.469 71.6968 233.423C71.6968 232.376 70.8485 231.528 69.8021 231.528C68.7557 231.528 67.9074 232.376 67.9074 233.423C67.9074 234.469 68.7557 235.317 69.8021 235.317Z" fill="white"/>
<path d="M75.02 236.106C75.7925 236.106 76.4187 235.479 76.4187 234.707C76.4187 233.934 75.7925 233.308 75.02 233.308C74.2475 233.308 73.6213 233.934 73.6213 234.707C73.6213 235.479 74.2475 236.106 75.02 236.106Z" fill="white"/>
<path d="M79.7072 235.779C80.4578 235.779 81.0662 235.17 81.0662 234.42C81.0662 233.669 80.4578 233.061 79.7072 233.061C78.9566 233.061 78.3482 233.669 78.3482 234.42C78.3482 235.17 78.9566 235.779 79.7072 235.779Z" fill="white"/>
<path d="M83.7992 234.424C84.3772 234.424 84.8458 233.956 84.8458 233.378C84.8458 232.8 84.3772 232.331 83.7992 232.331C83.2212 232.331 82.7526 232.8 82.7526 233.378C82.7526 233.956 83.2212 234.424 83.7992 234.424Z" fill="white"/>
<path d="M53.8557 209.51C54.8725 210.016 55.8496 210.612 56.7672 211.276L57.2582 211.633C58.3693 212.412 59.4952 213.176 60.7005 213.845C61.9058 214.53 63.1805 215.011 64.5842 215.398C64.9314 215.467 65.2885 215.562 65.6605 215.651C65.6605 215.651 65.6605 215.651 65.6654 215.651L66.7864 215.79L67.3717 215.864C67.3717 215.864 67.3717 215.864 67.3766 215.864L67.9619 215.869C68.3587 215.869 68.7754 215.889 69.2069 215.899L69.321 215.904C69.7277 215.914 70.0501 216.256 70.0402 216.663C70.0352 216.881 69.936 217.074 69.7822 217.203C69.44 217.496 69.0878 217.794 68.7158 218.076C68.5323 218.22 68.3438 218.364 68.1504 218.503C68.1504 218.503 68.1504 218.503 68.1454 218.503L67.5354 218.845C67.1237 219.073 66.6922 219.297 66.2557 219.5C65.8093 219.664 65.353 219.837 64.8867 219.981C64.4205 220.155 63.9443 220.229 63.4632 220.328C62.9821 220.427 62.4861 220.522 62 220.546C61.509 220.581 61.013 220.621 60.512 220.646C60.512 220.646 60.512 220.646 60.507 220.646C60.016 220.636 59.525 220.611 59.024 220.591C57.0549 220.442 55.1106 220.006 53.3051 219.277C52.4024 218.915 51.5344 218.488 50.7011 217.982C50.2795 217.739 49.8827 217.451 49.481 217.169C49.2826 217.025 49.0842 216.856 48.8858 216.702C48.7866 216.628 48.6824 216.529 48.5832 216.44L48.4294 216.301L48.36 216.236C46.7133 214.679 46.4107 212.08 47.8392 210.319C48.9701 208.92 50.7656 208.439 52.3528 208.895L52.447 208.92C52.7595 208.99 53.3051 209.238 53.8557 209.51Z" fill="white"/>
<path d="M48.2261 221.647C49.2725 221.647 50.1208 220.799 50.1208 219.753C50.1208 218.706 49.2725 217.858 48.2261 217.858C47.1797 217.858 46.3314 218.706 46.3314 219.753C46.3314 220.799 47.1797 221.647 48.2261 221.647Z" fill="white"/>
<path d="M53.0621 223.493C53.8346 223.493 54.4608 222.867 54.4608 222.094C54.4608 221.322 53.8346 220.695 53.0621 220.695C52.2896 220.695 51.6634 221.322 51.6634 222.094C51.6634 222.867 52.2896 223.493 53.0621 223.493Z" fill="white"/>
<path d="M57.7096 224.147C58.4602 224.147 59.0686 223.539 59.0686 222.788C59.0686 222.038 58.4602 221.429 57.7096 221.429C56.959 221.429 56.3506 222.038 56.3506 222.788C56.3506 223.539 56.959 224.147 57.7096 224.147Z" fill="white"/>
<path d="M61.9306 223.666C62.5086 223.666 62.9771 223.198 62.9771 222.62C62.9771 222.042 62.5086 221.573 61.9306 221.573C61.3526 221.573 60.884 222.042 60.884 222.62C60.884 223.198 61.3526 223.666 61.9306 223.666Z" fill="white"/>
<path d="M37.6018 193.043C38.4946 193.747 39.3229 194.531 40.0867 195.379L40.4934 195.831C41.416 196.823 42.3584 197.805 43.4 198.707C44.4366 199.63 45.5874 200.364 46.877 201.034C47.2043 201.172 47.5317 201.341 47.8789 201.5C47.8789 201.5 47.8789 201.5 47.8838 201.5L48.9502 201.867L49.5058 202.06C49.5058 202.06 49.5058 202.06 49.5107 202.06L50.0811 202.189C50.468 202.274 50.8747 202.378 51.2914 202.477L51.4005 202.502C51.7973 202.596 52.0403 202.998 51.9461 203.395C51.8965 203.603 51.7576 203.772 51.584 203.871C51.1922 204.084 50.7805 204.302 50.3589 204.501C50.1456 204.6 49.9323 204.704 49.7141 204.798C49.7141 204.798 49.7141 204.798 49.7091 204.798L49.0395 205.007C48.5882 205.145 48.1219 205.274 47.6507 205.379C47.1795 205.448 46.6984 205.522 46.2123 205.567C45.7163 205.636 45.2402 205.612 44.7442 205.612C44.2531 205.607 43.7472 205.597 43.2661 205.517C42.78 205.453 42.284 205.384 41.793 205.304C41.3168 205.195 40.8406 205.066 40.3546 204.942C38.4598 204.387 36.6445 203.553 35.0374 202.467C34.2339 201.921 33.4651 201.326 32.7608 200.662C32.3987 200.339 32.0714 199.972 31.7341 199.615C31.5704 199.432 31.4117 199.228 31.248 199.035C31.1686 198.94 31.0893 198.821 31.005 198.717L30.8859 198.554L30.8314 198.474C29.5418 196.609 29.7898 194.005 31.5506 192.577C32.9493 191.446 34.8043 191.347 36.2626 192.12L36.3518 192.165C36.6395 192.309 37.1206 192.666 37.6018 193.043Z" fill="white"/>
<path d="M29.9683 203.787C31.0147 203.787 31.863 202.938 31.863 201.892C31.863 200.845 31.0147 199.997 29.9683 199.997C28.9219 199.997 28.0736 200.845 28.0736 201.892C28.0736 202.938 28.9219 203.787 29.9683 203.787Z" fill="white"/>
<path d="M34.2141 206.589C34.9866 206.589 35.6128 205.963 35.6128 205.19C35.6128 204.418 34.9866 203.792 34.2141 203.792C33.4416 203.792 32.8154 204.418 32.8154 205.19C32.8154 205.963 33.4416 206.589 34.2141 206.589Z" fill="white"/>
<path d="M38.6136 208.191C39.3642 208.191 39.9726 207.582 39.9726 206.832C39.9726 206.081 39.3642 205.473 38.6136 205.473C37.863 205.473 37.2546 206.081 37.2546 206.832C37.2546 207.582 37.863 208.191 38.6136 208.191Z" fill="white"/>
<path d="M42.775 208.593C43.353 208.593 43.8216 208.124 43.8216 207.546C43.8216 206.968 43.353 206.5 42.775 206.5C42.197 206.5 41.7285 206.968 41.7285 207.546C41.7285 208.124 42.197 208.593 42.775 208.593Z" fill="white"/>
<path d="M25.1274 173.56C25.8515 174.438 26.5013 175.376 27.0717 176.358L27.3792 176.883C28.0736 178.049 28.7928 179.205 29.6211 180.301C30.4445 181.417 31.4166 182.379 32.5376 183.297C32.8253 183.5 33.1179 183.733 33.4205 183.961C33.4205 183.961 33.4205 183.961 33.4254 183.961L34.3926 184.542L34.8986 184.844C34.8986 184.844 34.8986 184.844 34.9035 184.844L35.4342 185.087C35.7963 185.251 36.1683 185.434 36.5552 185.623L36.6544 185.673C37.0214 185.846 37.1752 186.288 37.0016 186.655C36.9074 186.848 36.7387 186.987 36.5453 187.042C36.1138 187.171 35.6723 187.299 35.216 187.404C34.9878 187.458 34.7597 187.518 34.5266 187.562C34.5266 187.562 34.5266 187.562 34.5216 187.562L33.8272 187.627C33.356 187.667 32.8749 187.701 32.3888 187.701C32.3888 187.701 32.3888 187.701 32.3838 187.701C31.9126 187.671 31.4216 187.642 30.9355 187.582C30.4395 187.547 29.9733 187.423 29.4922 187.319C29.011 187.215 28.52 187.101 28.0637 186.922C27.6024 186.759 27.1312 186.59 26.665 186.407C26.2235 186.198 25.7821 185.975 25.3357 185.757C23.5947 184.819 21.9976 183.629 20.6485 182.23C19.9739 181.531 19.349 180.787 18.7984 179.988C18.5157 179.597 18.2677 179.17 18.0147 178.748C17.8907 178.535 17.7816 178.302 17.6626 178.079C17.603 177.97 17.5485 177.836 17.4939 177.717L17.4096 177.528L17.3749 177.439C16.5019 175.346 17.2856 172.851 19.3043 171.819C20.9064 171.006 22.7416 171.294 24.0064 172.355L24.0858 172.414C24.3387 172.643 24.7355 173.089 25.1274 173.56Z" fill="white"/>
<path d="M15.8224 182.523C16.8688 182.523 17.7171 181.675 17.7171 180.628C17.7171 179.582 16.8688 178.733 15.8224 178.733C14.776 178.733 13.9277 179.582 13.9277 180.628C13.9277 181.675 14.776 182.523 15.8224 182.523Z" fill="white"/>
<path d="M19.2894 186.134C20.0619 186.134 20.6882 185.508 20.6882 184.735C20.6882 183.963 20.0619 183.336 19.2894 183.336C18.517 183.336 17.8907 183.963 17.8907 184.735C17.8907 185.508 18.517 186.134 19.2894 186.134Z" fill="white"/>
<path d="M23.2475 188.619C23.9981 188.619 24.6066 188.011 24.6066 187.26C24.6066 186.509 23.9981 185.901 23.2475 185.901C22.4969 185.901 21.8885 186.509 21.8885 187.26C21.8885 188.011 22.4969 188.619 23.2475 188.619Z" fill="white"/>
<path d="M27.1709 189.869C27.7489 189.869 28.2174 189.4 28.2174 188.822C28.2174 188.244 27.7489 187.775 27.1709 187.775C26.5929 187.775 26.1243 188.244 26.1243 188.822C26.1243 189.4 26.5929 189.869 27.1709 189.869Z" fill="white"/>
<path d="M16.9781 151.91C17.5038 152.917 17.9403 153.968 18.2974 155.05L18.4859 155.63C18.9274 156.914 19.3886 158.194 19.969 159.439C20.5394 160.704 21.2933 161.845 22.201 162.976C22.444 163.234 22.6771 163.521 22.9251 163.809L23.7485 164.578L24.18 164.979C24.18 164.979 24.18 164.979 24.185 164.979L24.6562 165.327C24.9786 165.56 25.301 165.818 25.6432 166.081L25.7325 166.15C26.0549 166.398 26.1144 166.864 25.8664 167.187C25.7325 167.36 25.539 167.454 25.3406 167.474C24.8942 167.509 24.433 167.544 23.9667 167.549C23.7336 167.554 23.4955 167.564 23.2574 167.559C23.2574 167.559 23.2574 167.559 23.2525 167.559L22.5581 167.474C22.0869 167.415 21.6107 167.345 21.1346 167.251C20.6782 167.122 20.207 166.993 19.7458 166.834C19.2646 166.701 18.8381 166.477 18.3867 166.279C17.9354 166.076 17.479 165.862 17.0723 165.594C16.6557 165.337 16.2291 165.074 15.8125 164.801C15.4206 164.508 15.0387 164.196 14.6469 163.888C13.139 162.609 11.8246 161.111 10.793 159.464C10.2771 158.641 9.82081 157.782 9.44881 156.885C9.25041 156.443 9.10161 155.977 8.93793 155.511C8.86353 155.278 8.79905 155.025 8.73457 154.782C8.69985 154.663 8.67505 154.524 8.64529 154.39L8.60065 154.191L8.58081 154.097C8.16417 151.87 9.44881 149.589 11.6362 149.003C13.3722 148.537 15.1082 149.202 16.125 150.506L16.1894 150.581C16.3978 150.848 16.6904 151.369 16.9781 151.91Z" fill="white"/>
<path d="M6.40336 158.785C7.44979 158.785 8.29808 157.936 8.29808 156.89C8.29808 155.843 7.44979 154.995 6.40336 154.995C5.35694 154.995 4.50864 155.843 4.50864 156.89C4.50864 157.936 5.35694 158.785 6.40336 158.785Z" fill="white"/>
<path d="M8.94289 163.025C9.71538 163.025 10.3416 162.399 10.3416 161.626C10.3416 160.854 9.71538 160.228 8.94289 160.228C8.1704 160.228 7.54417 160.854 7.54417 161.626C7.54417 162.399 8.1704 163.025 8.94289 163.025Z" fill="white"/>
<path d="M12.2909 166.274C13.0415 166.274 13.6499 165.665 13.6499 164.915C13.6499 164.164 13.0415 163.556 12.2909 163.556C11.5403 163.556 10.9318 164.164 10.9318 164.915C10.9318 165.665 11.5403 166.274 12.2909 166.274Z" fill="white"/>
<path d="M15.8026 168.312C16.3806 168.312 16.8491 167.844 16.8491 167.266C16.8491 166.688 16.3806 166.219 15.8026 166.219C15.2246 166.219 14.756 166.688 14.756 167.266C14.756 167.844 15.2246 168.312 15.8026 168.312Z" fill="white"/>
<path d="M13.5061 129.039C13.8136 130.136 14.0219 131.257 14.141 132.387L14.2054 132.993C14.3691 134.337 14.5526 135.686 14.8651 137.03C15.1627 138.384 15.6587 139.654 16.3134 140.953C16.497 141.256 16.6656 141.588 16.8491 141.921C16.8491 141.921 16.8491 141.921 16.8491 141.926L17.4939 142.848L17.8312 143.334C17.8312 143.334 17.8312 143.334 17.8312 143.339L18.2181 143.781C18.481 144.078 18.7488 144.396 19.0266 144.723L19.101 144.807C19.3638 145.12 19.3291 145.581 19.0166 145.849C18.853 145.988 18.6397 146.042 18.4413 146.018C17.9949 145.958 17.5386 145.894 17.0773 145.804C16.8491 145.76 16.611 145.72 16.3829 145.665C16.3829 145.665 16.3829 145.665 16.3779 145.665L15.7182 145.442C15.2718 145.288 14.8205 145.12 14.3741 144.926C13.9525 144.703 13.521 144.48 13.0994 144.232C12.6579 143.999 12.2859 143.696 11.8842 143.409C11.4874 143.116 11.0856 142.813 10.7434 142.466C10.3912 142.129 10.0291 141.782 9.67696 141.425C9.35456 141.058 9.04208 140.676 8.72464 140.289C7.51936 138.721 6.53728 136.985 5.8776 135.16C5.54528 134.247 5.27744 133.315 5.09888 132.358C4.99968 131.882 4.94512 131.395 4.8856 130.904C4.8608 130.661 4.85088 130.403 4.836 130.15C4.82608 130.031 4.83104 129.883 4.82608 129.749V129.545V129.451C4.88064 127.184 6.61168 125.22 8.87344 125.106C10.669 125.012 12.2264 126.024 12.9506 127.507L12.9952 127.596C13.1589 127.879 13.3424 128.449 13.5061 129.039Z" fill="white"/>
<path d="M2.12784 133.602C3.17427 133.602 4.02256 132.754 4.02256 131.708C4.02256 130.661 3.17427 129.813 2.12784 129.813C1.08142 129.813 0.233124 130.661 0.233124 131.708C0.233124 132.754 1.08142 133.602 2.12784 133.602Z" fill="white"/>
<path d="M3.62576 138.27C4.39825 138.27 5.02448 137.644 5.02448 136.871C5.02448 136.099 4.39825 135.473 3.62576 135.473C2.85327 135.473 2.22704 136.099 2.22704 136.871C2.22704 137.644 2.85327 138.27 3.62576 138.27Z" fill="white"/>
<path d="M6.21488 142.144C6.96546 142.144 7.57392 141.535 7.57392 140.785C7.57392 140.034 6.96546 139.426 6.21488 139.426C5.46431 139.426 4.85584 140.034 4.85584 140.785C4.85584 141.535 5.46431 142.144 6.21488 142.144Z" fill="white"/>
<path d="M9.16608 144.857C9.74408 144.857 10.2126 144.388 10.2126 143.81C10.2126 143.232 9.74408 142.764 9.16608 142.764C8.58808 142.764 8.11952 143.232 8.11952 143.81C8.11952 144.388 8.58808 144.857 9.16608 144.857Z" fill="white"/>
<path d="M14.8651 105.946C14.9346 107.082 14.9098 108.222 14.7907 109.353L14.7262 109.958C14.6072 111.308 14.508 112.667 14.5328 114.041C14.5427 115.429 14.761 116.773 15.133 118.182C15.247 118.519 15.3462 118.877 15.4554 119.239C15.4554 119.239 15.4554 119.239 15.4554 119.244L15.8968 120.28L16.125 120.826C16.125 120.826 16.125 120.826 16.125 120.831L16.4126 121.342C16.611 121.684 16.8045 122.056 17.0078 122.433L17.0624 122.532C17.2558 122.889 17.1219 123.341 16.7648 123.534C16.5763 123.638 16.3581 123.648 16.1696 123.579C15.748 123.43 15.3115 123.271 14.88 123.088C14.6667 122.998 14.4435 122.909 14.2302 122.81C14.2302 122.81 14.2302 122.81 14.2253 122.81L13.6251 122.453C13.2184 122.21 12.8117 121.952 12.4198 121.669C12.0578 121.366 11.6758 121.059 11.3187 120.727C10.9368 120.409 10.6342 120.032 10.3019 119.665C9.97456 119.298 9.64224 118.916 9.37936 118.505C9.10656 118.098 8.81888 117.686 8.55104 117.265C8.31296 116.838 8.08976 116.397 7.85664 115.955C7.00352 114.174 6.40832 112.27 6.13552 110.345C6.0016 109.383 5.93216 108.416 5.952 107.444C5.952 106.958 6.0016 106.472 6.04624 105.981C6.076 105.737 6.11568 105.48 6.15536 105.232C6.17024 105.113 6.20496 104.969 6.22976 104.84L6.26944 104.641L6.28928 104.547C6.81008 102.345 8.91312 100.782 11.1501 101.135C12.9258 101.417 14.2402 102.727 14.637 104.329L14.6618 104.423C14.7659 104.741 14.8254 105.331 14.8651 105.946Z" fill="white"/>
<path d="M3.18432 108.083C4.23075 108.083 5.07904 107.235 5.07904 106.189C5.07904 105.142 4.23075 104.294 3.18432 104.294C2.1379 104.294 1.2896 105.142 1.2896 106.189C1.2896 107.235 2.1379 108.083 3.18432 108.083Z" fill="white"/>
<path d="M3.57121 112.949C4.3437 112.949 4.96993 112.323 4.96993 111.551C4.96993 110.778 4.3437 110.152 3.57121 110.152C2.79871 110.152 2.17249 110.778 2.17249 111.551C2.17249 112.323 2.79871 112.949 3.57121 112.949Z" fill="white"/>
<path d="M5.29232 117.28C6.0429 117.28 6.65136 116.671 6.65136 115.921C6.65136 115.17 6.0429 114.562 5.29232 114.562C4.54174 114.562 3.93328 115.17 3.93328 115.921C3.93328 116.671 4.54174 117.28 5.29232 117.28Z" fill="white"/>
<path d="M7.54912 120.538C8.12712 120.538 8.59568 120.069 8.59568 119.491C8.59568 118.913 8.12712 118.445 7.54912 118.445C6.97112 118.445 6.50256 118.913 6.50256 119.491C6.50256 120.069 6.97112 120.538 7.54912 120.538Z" fill="white"/>
<path d="M20.9957 83.6354C20.832 84.7614 20.5642 85.8674 20.217 86.9537L20.0285 87.534C19.6317 88.8286 19.2498 90.138 18.9918 91.4871C18.7141 92.8462 18.6496 94.2102 18.719 95.6634C18.7637 96.0156 18.7835 96.3876 18.8133 96.7646C18.8133 96.7646 18.8133 96.7646 18.8133 96.7695L19.0266 97.8756L19.1406 98.4559C19.1406 98.4559 19.1406 98.4559 19.1406 98.4609L19.3142 99.0214C19.4382 99.3983 19.5474 99.8001 19.6714 100.212L19.7011 100.321C19.8152 100.713 19.592 101.124 19.2002 101.238C18.9918 101.298 18.7786 101.263 18.605 101.159C18.223 100.926 17.8312 100.678 17.4443 100.41C17.2509 100.276 17.0525 100.142 16.864 100.003C16.864 100.003 16.864 100.003 16.859 100.003L16.3482 99.5273C16.001 99.2049 15.6587 98.8676 15.3314 98.5105C15.0387 98.1385 14.7312 97.7566 14.4485 97.3598C14.141 96.9679 13.9227 96.5414 13.6747 96.1098C13.4317 95.6833 13.1886 95.2369 13.015 94.7855C12.8315 94.3342 12.6381 93.8679 12.4645 93.4017C12.3206 92.9354 12.1917 92.4593 12.0578 91.9782C11.5915 90.0586 11.403 88.0746 11.5419 86.1353C11.6114 85.1631 11.7453 84.2058 11.9685 83.2585C12.0677 82.7823 12.2214 82.3161 12.3653 81.8449C12.4446 81.6118 12.5389 81.3737 12.6282 81.1356C12.6678 81.0215 12.7323 80.8926 12.7819 80.7686L12.8662 80.5801L12.9059 80.4958C13.8781 78.4473 16.2589 77.3561 18.3718 78.1695C20.0483 78.8143 21.0651 80.3718 21.1197 82.0234L21.1246 82.1227C21.1544 82.4351 21.085 83.0303 20.9957 83.6354Z" fill="white"/>
<path d="M9.51825 83.3427C10.5647 83.3427 11.413 82.4944 11.413 81.4479C11.413 80.4015 10.5647 79.5532 9.51825 79.5532C8.47182 79.5532 7.62353 80.4015 7.62353 81.4479C7.62353 82.4944 8.47182 83.3427 9.51825 83.3427Z" fill="white"/>
<path d="M8.78416 88.1739C9.55666 88.1739 10.1829 87.5477 10.1829 86.7752C10.1829 86.0027 9.55666 85.3765 8.78416 85.3765C8.01167 85.3765 7.38544 86.0027 7.38544 86.7752C7.38544 87.5477 8.01167 88.1739 8.78416 88.1739Z" fill="white"/>
<path d="M9.56288 92.762C10.3135 92.762 10.9219 92.1536 10.9219 91.403C10.9219 90.6524 10.3135 90.0439 9.56288 90.0439C8.8123 90.0439 8.20384 90.6524 8.20384 91.403C8.20384 92.1536 8.8123 92.762 9.56288 92.762Z" fill="white"/>
<path d="M11.0261 96.4125C11.6041 96.4125 12.0726 95.9439 12.0726 95.3659C12.0726 94.7879 11.6041 94.3193 11.0261 94.3193C10.4481 94.3193 9.97952 94.7879 9.97952 95.3659C9.97952 95.9439 10.4481 96.4125 11.0261 96.4125Z" fill="white"/>
<path d="M31.6349 63.0914C31.2381 64.1578 30.747 65.1895 30.1816 66.1715L29.879 66.6973C29.2194 67.8827 28.5746 69.0831 28.0389 70.3479C27.4834 71.6176 27.1362 72.937 26.903 74.3754C26.8733 74.7275 26.8138 75.0946 26.7642 75.4715C26.7642 75.4715 26.7642 75.4715 26.7642 75.4765L26.7443 76.6024L26.7344 77.1927C26.7344 77.1927 26.7344 77.1927 26.7344 77.1976L26.789 77.7829C26.8286 78.1797 26.8534 78.5914 26.8882 79.0229L26.8981 79.137C26.9278 79.5437 26.6253 79.8959 26.2186 79.9306C26.0053 79.9455 25.8019 79.8661 25.6531 79.7322C25.3258 79.4247 24.9934 79.1023 24.676 78.76C24.5173 78.5914 24.3486 78.4178 24.1949 78.2392C24.1949 78.2392 24.1949 78.2392 24.1949 78.2343L23.7931 77.6639C23.5203 77.277 23.2525 76.8752 23.0094 76.4586C22.8011 76.032 22.5829 75.5955 22.3894 75.1491C22.1712 74.7027 22.0472 74.2365 21.8934 73.7653C21.7446 73.2941 21.5958 72.813 21.5264 72.3319C21.4421 71.8507 21.3478 71.3597 21.2734 70.8637C21.2734 70.8637 21.2734 70.8637 21.2734 70.8587C21.2288 70.3727 21.204 69.8767 21.1742 69.3807C21.1197 67.4066 21.3478 65.4275 21.8835 63.5576C22.1514 62.6251 22.4837 61.7125 22.9003 60.8346C23.0987 60.3931 23.3418 59.9666 23.5798 59.5351C23.7038 59.3218 23.8477 59.1085 23.9816 58.8952C24.0461 58.7911 24.1354 58.677 24.2098 58.5679L24.3288 58.4042L24.3883 58.3298C25.7622 56.5293 28.3166 55.9589 30.2163 57.1939C31.7242 58.176 32.3938 59.9071 32.1011 61.5339L32.0862 61.6331C32.0366 61.9506 31.8482 62.516 31.6349 63.0914Z" fill="white"/>
<path d="M20.8618 60.4628C21.9082 60.4628 22.7565 59.6145 22.7565 58.5681C22.7565 57.5216 21.9082 56.6733 20.8618 56.6733C19.8153 56.6733 18.967 57.5216 18.967 58.5681C18.967 59.6145 19.8153 60.4628 20.8618 60.4628Z" fill="white"/>
<path d="M19.0365 65.0206C19.809 65.0206 20.4352 64.3944 20.4352 63.6219C20.4352 62.8494 19.809 62.2231 19.0365 62.2231C18.264 62.2231 17.6378 62.8494 17.6378 63.6219C17.6378 64.3944 18.264 65.0206 19.0365 65.0206Z" fill="white"/>
<path d="M18.8331 69.6732C19.5837 69.6732 20.1922 69.0647 20.1922 68.3141C20.1922 67.5635 19.5837 66.9551 18.8331 66.9551C18.0825 66.9551 17.4741 67.5635 17.4741 68.3141C17.4741 69.0647 18.0825 69.6732 18.8331 69.6732Z" fill="white"/>
<path d="M19.4382 73.5423C20.0162 73.5423 20.4848 73.0738 20.4848 72.4958C20.4848 71.9178 20.0162 71.4492 19.4382 71.4492C18.8602 71.4492 18.3917 71.9178 18.3917 72.4958C18.3917 73.0738 18.8602 73.5423 19.4382 73.5423Z" fill="white"/>
<path d="M46.3066 45.2055C45.6965 46.1677 45.0021 47.0704 44.2432 47.9186L43.8365 48.3699C42.9437 49.3917 42.0658 50.4333 41.2771 51.5592C40.4686 52.6851 39.8586 53.9053 39.3278 55.2594C39.2237 55.5967 39.0898 55.9439 38.9658 56.301C38.9658 56.301 38.9658 56.301 38.9658 56.3059L38.7128 57.4021L38.5789 57.9775C38.5789 57.9775 38.5789 57.9775 38.5789 57.9824L38.5094 58.5627C38.4648 58.9595 38.4053 59.3712 38.3507 59.7978L38.3358 59.9069C38.2813 60.3087 37.9093 60.5963 37.5075 60.5418C37.2942 60.512 37.1107 60.393 36.9966 60.2293C36.7437 59.8623 36.4808 59.4754 36.2427 59.0736C36.1187 58.8752 35.9947 58.6719 35.8806 58.4635C35.8806 58.4635 35.8806 58.4635 35.8806 58.4586L35.6029 57.8138C35.4194 57.3773 35.2408 56.9309 35.087 56.4696C34.973 56.0083 34.849 55.5371 34.7498 55.056C34.6258 54.5699 34.6059 54.0938 34.5514 53.6027C34.5018 53.1117 34.4621 52.6107 34.4869 52.1247C34.5018 51.6336 34.5166 51.1376 34.5464 50.6367C34.5464 50.6367 34.5464 50.6367 34.5464 50.6317C34.6059 50.1456 34.6803 49.6595 34.7547 49.1635C35.1118 47.2192 35.7467 45.3295 36.6594 43.6133C37.1157 42.7552 37.6266 41.9319 38.2168 41.1581C38.4995 40.7663 38.8318 40.3992 39.1542 40.0272C39.3179 39.8437 39.5064 39.6651 39.68 39.4866C39.7643 39.3973 39.8734 39.3031 39.9726 39.2138L40.1264 39.0749L40.2008 39.0104C41.9219 37.5323 44.5408 37.5075 46.1379 39.1096C47.4077 40.3843 47.7003 42.2146 47.0803 43.7472L47.0456 43.8415C46.9365 44.1738 46.6339 44.6896 46.3066 45.2055Z" fill="white"/>
<path d="M36.709 40.434C37.7554 40.434 38.6037 39.5857 38.6037 38.5393C38.6037 37.4928 37.7554 36.6445 36.709 36.6445C35.6625 36.6445 34.8142 37.4928 34.8142 38.5393C34.8142 39.5857 35.6625 40.434 36.709 40.434Z" fill="white"/>
<path d="M33.8768 44.5059C34.6493 44.5059 35.2755 43.8797 35.2755 43.1072C35.2755 42.3347 34.6493 41.7085 33.8768 41.7085C33.1043 41.7085 32.4781 42.3347 32.4781 43.1072C32.4781 43.8797 33.1043 44.5059 33.8768 44.5059Z" fill="white"/>
<path d="M32.7013 49.0096C33.4519 49.0096 34.0603 48.4011 34.0603 47.6505C34.0603 46.9 33.4519 46.2915 32.7013 46.2915C31.9507 46.2915 31.3422 46.9 31.3422 47.6505C31.3422 48.4011 31.9507 49.0096 32.7013 49.0096Z" fill="white"/>
<path d="M32.4235 52.9134C33.0015 52.9134 33.4701 52.4449 33.4701 51.8669C33.4701 51.2889 33.0015 50.8203 32.4235 50.8203C31.8455 50.8203 31.377 51.2889 31.377 51.8669C31.377 52.4449 31.8455 52.9134 32.4235 52.9134Z" fill="white"/>
<path d="M64.3808 30.762C63.5872 31.5754 62.7192 32.3145 61.8016 32.989L61.3106 33.3462C60.2243 34.1596 59.148 34.9929 58.1461 35.9353C57.1194 36.8727 56.2712 37.9342 55.4677 39.1494C55.2941 39.4569 55.0957 39.7694 54.8973 40.0967C54.8973 40.0967 54.8973 40.0967 54.8973 40.1017L54.4211 41.1234L54.1731 41.6591C54.1731 41.6591 54.1731 41.6591 54.1731 41.6641L53.9846 42.2196C53.8606 42.5966 53.7168 42.9884 53.573 43.3902L53.5333 43.4943C53.3944 43.8762 52.9728 44.0796 52.5909 43.9407C52.3875 43.8663 52.2338 43.7126 52.1544 43.529C51.9808 43.1124 51.8072 42.6858 51.6584 42.2444C51.579 42.0262 51.4997 41.798 51.4302 41.5748C51.4302 41.5748 51.4302 41.5748 51.4302 41.5698L51.2963 40.8854C51.207 40.4191 51.1227 39.943 51.0682 39.4668C51.0483 38.9906 51.0285 38.5046 51.0334 38.0185C51.0136 37.5175 51.093 37.0463 51.1426 36.5553C51.1971 36.0642 51.2616 35.5633 51.3906 35.097C51.5096 34.6209 51.6237 34.1348 51.7576 33.6537C51.9163 33.1924 52.0899 32.7311 52.2685 32.2599C53.0224 30.4346 54.0342 28.7185 55.2842 27.2305C55.9091 26.4865 56.5837 25.7871 57.3178 25.1522C57.6798 24.8298 58.0766 24.5372 58.4685 24.2396C58.6669 24.0958 58.8851 23.9569 59.0984 23.818C59.1976 23.7486 59.3266 23.6791 59.4406 23.6097L59.6192 23.5055L59.7035 23.4609C61.6925 22.3746 64.2618 22.8905 65.4918 24.7951C66.469 26.303 66.3747 28.158 65.4522 29.527L65.3976 29.6113C65.2091 29.8841 64.8074 30.3255 64.3808 30.762Z" fill="white"/>
<path d="M56.3803 24.1405C57.4267 24.1405 58.275 23.2922 58.275 22.2458C58.275 21.1994 57.4267 20.3511 56.3803 20.3511C55.3339 20.3511 54.4856 21.1994 54.4856 22.2458C54.4856 23.2922 55.3339 24.1405 56.3803 24.1405Z" fill="white"/>
<path d="M52.6554 27.523C53.4279 27.523 54.0541 26.8968 54.0541 26.1243C54.0541 25.3518 53.4279 24.7256 52.6554 24.7256C51.8829 24.7256 51.2566 25.3518 51.2566 26.1243C51.2566 26.8968 51.8829 27.523 52.6554 27.523Z" fill="white"/>
<path d="M50.5622 31.6849C51.3128 31.6849 51.9213 31.0764 51.9213 30.3258C51.9213 29.5753 51.3128 28.9668 50.5622 28.9668C49.8117 28.9668 49.2032 29.5753 49.2032 30.3258C49.2032 31.0764 49.8117 31.6849 50.5622 31.6849Z" fill="white"/>
<path d="M49.4165 35.4393C49.9945 35.4393 50.463 34.9707 50.463 34.3927C50.463 33.8147 49.9945 33.3462 49.4165 33.3462C48.8385 33.3462 48.3699 33.8147 48.3699 34.3927C48.3699 34.9707 48.8385 35.4393 49.4165 35.4393Z" fill="white"/>
<path d="M85.0591 20.3957C84.1117 21.0256 83.1098 21.5712 82.0731 22.0375L81.5176 22.2855C80.2875 22.8559 79.0624 23.4511 77.8819 24.1603C76.6866 24.8597 75.6301 25.7277 74.5935 26.7495C74.3603 27.0173 74.0974 27.2802 73.8395 27.5579L73.16 28.4607L72.8029 28.9319C72.8029 28.9319 72.8029 28.9319 72.8029 28.9368L72.5053 29.4427C72.3069 29.785 72.0837 30.1371 71.8555 30.5042L71.796 30.5984C71.5827 30.9456 71.1264 31.0547 70.7792 30.8415C70.5957 30.7274 70.4767 30.5439 70.4419 30.3504C70.3576 29.909 70.2783 29.4527 70.2237 28.9914C70.1939 28.7583 70.1592 28.5251 70.1394 28.2871C70.1394 28.2871 70.1394 28.2871 70.1394 28.2821L70.1493 27.5827C70.1592 27.1115 70.1791 26.6255 70.2237 26.1443C70.3031 25.6781 70.3824 25.197 70.4915 24.7208C70.5758 24.2298 70.7495 23.7834 70.9032 23.3122C71.057 22.8459 71.2256 22.3648 71.4488 21.9333C71.6621 21.4919 71.8754 21.0405 72.1085 20.5991C72.3615 20.1775 72.6293 19.7658 72.8971 19.3442C74.0131 17.7123 75.3623 16.2442 76.8949 15.0488C77.6587 14.4487 78.4623 13.908 79.3154 13.4418C79.737 13.1987 80.1834 13.0003 80.6298 12.792C80.853 12.6928 81.096 12.6035 81.3291 12.5093C81.4432 12.4597 81.5821 12.42 81.7061 12.3803L81.8995 12.3159L81.9888 12.2861C84.1613 11.6363 86.5619 12.6779 87.3754 14.7909C88.0202 16.4723 87.5391 18.2629 86.3536 19.4087L86.2842 19.4781C86.056 19.7063 85.5699 20.0535 85.0591 20.3957Z" fill="white"/>
<path d="M79.0029 12.2958C80.0493 12.2958 80.8976 11.4475 80.8976 10.4011C80.8976 9.35464 80.0493 8.50635 79.0029 8.50635C77.9565 8.50635 77.1082 9.35464 77.1082 10.4011C77.1082 11.4475 77.9565 12.2958 79.0029 12.2958Z" fill="white"/>
<path d="M74.5587 14.8155C75.3312 14.8155 75.9574 14.1893 75.9574 13.4168C75.9574 12.6443 75.3312 12.0181 74.5587 12.0181C73.7862 12.0181 73.16 12.6443 73.16 13.4168C73.16 14.1893 73.7862 14.8155 74.5587 14.8155Z" fill="white"/>
<path d="M71.6373 18.451C72.3879 18.451 72.9963 17.8425 72.9963 17.092C72.9963 16.3414 72.3879 15.7329 71.6373 15.7329C70.8867 15.7329 70.2783 16.3414 70.2783 17.092C70.2783 17.8425 70.8867 18.451 71.6373 18.451Z" fill="white"/>
<path d="M69.6682 21.8783C70.2462 21.8783 70.7147 21.4097 70.7147 20.8317C70.7147 20.2537 70.2462 19.7852 69.6682 19.7852C69.0902 19.7852 68.6216 20.2537 68.6216 20.8317C68.6216 21.4097 69.0902 21.8783 69.6682 21.8783Z" fill="white"/>
<path d="M107.448 14.5529C106.392 14.9745 105.296 15.2969 104.185 15.535L103.59 15.664C102.27 15.9665 100.946 16.2939 99.6464 16.7403C98.327 17.1768 97.1168 17.8017 95.8917 18.5904C95.609 18.8036 95.2965 19.007 94.984 19.2203C94.984 19.2203 94.984 19.2203 94.9791 19.2203L94.1259 19.9593L93.6795 20.3462L93.2827 20.7777C93.0149 21.0704 92.7223 21.368 92.4296 21.6804L92.3503 21.7598C92.0675 22.0574 91.6013 22.0673 91.3086 21.7846C91.1499 21.6358 91.0755 21.4324 91.0805 21.234C91.0904 20.7876 91.1053 20.3214 91.1499 19.8552C91.1698 19.622 91.1846 19.384 91.2144 19.1508C91.2144 19.1508 91.2144 19.1508 91.2144 19.1459L91.3682 18.4664C91.4773 18.0051 91.5914 17.5388 91.7402 17.0776C91.9187 16.6361 92.0923 16.1848 92.2957 15.7384C92.4792 15.2771 92.7421 14.8753 92.9901 14.4438C93.2381 14.0172 93.501 13.5857 93.8085 13.2088C94.1111 12.8219 94.4136 12.4251 94.7311 12.0382C95.0634 11.6811 95.4106 11.3289 95.7627 10.9718C97.1912 9.60779 98.8181 8.45211 100.564 7.60395C101.437 7.17739 102.335 6.81531 103.267 6.53755C103.728 6.38875 104.21 6.28459 104.691 6.17547C104.934 6.12587 105.187 6.09115 105.435 6.04651C105.554 6.02171 105.698 6.01179 105.832 5.99691L106.035 5.97707L106.129 5.96715C108.386 5.78363 110.524 7.30139 110.876 9.53835C111.154 11.314 110.315 12.9707 108.917 13.8436L108.832 13.8982C108.564 14.0867 108.014 14.3248 107.448 14.5529Z" fill="white"/>
<path d="M103.6 5.41151C104.646 5.41151 105.494 4.56322 105.494 3.51679C105.494 2.47037 104.646 1.62207 103.6 1.62207C102.553 1.62207 101.705 2.47037 101.705 3.51679C101.705 4.56322 102.553 5.41151 103.6 5.41151Z" fill="white"/>
<path d="M98.6247 6.94392C99.3971 6.94392 100.023 6.3177 100.023 5.5452C100.023 4.77271 99.3971 4.14648 98.6247 4.14648C97.8522 4.14648 97.2259 4.77271 97.2259 5.5452C97.2259 6.3177 97.8522 6.94392 98.6247 6.94392Z" fill="white"/>
<path d="M94.9989 9.89044C95.7495 9.89044 96.3579 9.28198 96.3579 8.5314C96.3579 7.78083 95.7495 7.17236 94.9989 7.17236C94.2483 7.17236 93.6398 7.78083 93.6398 8.5314C93.6398 9.28198 94.2483 9.89044 94.9989 9.89044Z" fill="white"/>
<path d="M92.3006 12.8265C92.8786 12.8265 93.3472 12.358 93.3472 11.78C93.3472 11.202 92.8786 10.7334 92.3006 10.7334C91.7227 10.7334 91.2541 11.202 91.2541 11.78C91.2541 12.358 91.7227 12.8265 92.3006 12.8265Z" fill="white"/>
<path d="M130.557 13.491C129.436 13.6794 128.3 13.7737 127.16 13.7737H126.549C125.195 13.7935 123.831 13.8382 122.467 14.0068C121.088 14.1606 119.774 14.5226 118.41 15.0335C118.088 15.1823 117.74 15.3162 117.393 15.465C117.393 15.465 117.393 15.465 117.388 15.465L116.401 16.0106L115.885 16.2983C115.885 16.2983 115.885 16.2983 115.88 16.2983L115.404 16.6406C115.082 16.8737 114.735 17.1018 114.383 17.3449L114.288 17.4094C113.951 17.6375 113.495 17.5532 113.262 17.2159C113.138 17.0374 113.108 16.8241 113.152 16.6257C113.257 16.1892 113.366 15.7378 113.505 15.2914C113.569 15.0682 113.639 14.8401 113.713 14.6169C113.713 14.6169 113.713 14.6169 113.713 14.6119L114.006 13.977C114.204 13.5505 114.417 13.114 114.66 12.6924C114.923 12.3006 115.191 11.8889 115.484 11.497C115.761 11.0804 116.104 10.7431 116.431 10.3761C116.763 10.014 117.111 9.642 117.488 9.33944C117.86 9.022 118.241 8.6996 118.633 8.38712C119.035 8.1044 119.447 7.83656 119.863 7.5588C121.545 6.52216 123.375 5.72856 125.26 5.26232C126.202 5.0292 127.16 4.8556 128.127 4.7812C128.608 4.7316 129.099 4.7316 129.595 4.72168C129.843 4.72168 130.101 4.74152 130.349 4.75144C130.473 4.7564 130.612 4.77128 130.746 4.78616L130.949 4.806L131.043 4.81592C133.29 5.1036 135.066 7.03304 134.942 9.2948C134.848 11.0903 133.682 12.5337 132.129 13.0991L132.035 13.1338C131.743 13.2678 131.162 13.3868 130.557 13.491Z" fill="white"/>
<path d="M129.089 3.78944C130.135 3.78944 130.984 2.94114 130.984 1.89472C130.984 0.848295 130.135 0 129.089 0C128.043 0 127.194 0.848295 127.194 1.89472C127.194 2.94114 128.043 3.78944 129.089 3.78944Z" fill="white"/>
<path d="M123.797 4.24568C124.569 4.24568 125.195 3.61945 125.195 2.84696C125.195 2.07447 124.569 1.44824 123.797 1.44824C123.024 1.44824 122.398 2.07447 122.398 2.84696C122.398 3.61945 123.024 4.24568 123.797 4.24568Z" fill="white"/>
<path d="M119.635 6.37384C120.386 6.37384 120.994 5.76538 120.994 5.0148C120.994 4.26422 120.386 3.65576 119.635 3.65576C118.885 3.65576 118.276 4.26422 118.276 5.0148C118.276 5.76538 118.885 6.37384 119.635 6.37384Z" fill="white"/>
<path d="M116.317 8.67515C116.895 8.67515 117.364 8.20659 117.364 7.62859C117.364 7.05059 116.895 6.58203 116.317 6.58203C115.739 6.58203 115.27 7.05059 115.27 7.62859C115.27 8.20659 115.739 8.67515 116.317 8.67515Z" fill="white"/>
<path d="M159.181 142.809L158.819 141.385C158.393 139.699 157.713 138.171 156.8 136.842C156.662 136.643 156.508 136.465 156.364 136.271C154.37 138.022 151.816 138.533 149.564 138.533C146.811 138.533 144.534 137.799 144.346 137.74C143.696 137.526 143.255 136.921 143.245 136.237C143.235 135.552 143.661 134.937 144.306 134.704C145.159 134.396 145.685 133.886 145.958 133.102C146.876 130.453 144.837 125.285 142.893 121.709C142.352 122.383 141.94 123.187 141.697 124.07C139.039 133.643 129.654 134.233 125.066 133.211C124.466 133.077 123.995 132.611 123.856 132.016C123.712 131.42 123.926 130.791 124.397 130.404C126.649 128.554 127.477 126.163 126.867 123.291C126.614 122.111 126.039 120.91 125.146 119.72C124.59 118.976 124.139 118.232 123.767 117.518C123.4 118.237 122.948 118.976 122.388 119.72C121.5 120.905 120.92 122.111 120.667 123.291C120.057 126.163 120.885 128.559 123.137 130.404C123.613 130.796 123.821 131.42 123.678 132.016C123.534 132.611 123.068 133.077 122.467 133.211C117.879 134.238 108.495 133.648 105.836 124.07C105.593 123.187 105.182 122.388 104.641 121.709C102.697 125.285 100.658 130.453 101.576 133.102C101.849 133.891 102.374 134.401 103.228 134.704C103.872 134.937 104.299 135.552 104.289 136.237C104.279 136.921 103.838 137.526 103.188 137.74C102.999 137.799 100.723 138.533 97.9699 138.533C95.7429 138.533 93.2183 138.032 91.2343 136.326C89.9347 138.196 89.0816 140.363 88.7543 142.695C88.5658 144.202 88.4715 145.77 88.4715 147.327C88.4715 167.43 104.393 183.788 123.96 183.788C143.528 183.788 159.449 167.435 159.449 147.327C159.454 145.819 159.365 144.302 159.181 142.809ZM105.807 175.297C101.948 175.297 98.8131 172.167 98.8131 168.303C98.8131 164.444 101.943 161.309 105.807 161.309C109.666 161.309 112.8 164.439 112.8 168.303C112.8 172.167 109.671 175.297 105.807 175.297ZM134.173 164.201C133.885 164.528 133.588 164.856 133.275 165.168C133.121 165.327 132.963 165.486 132.804 165.64L132.566 165.873L132.303 166.076C132.154 166.18 132.005 166.294 131.857 166.403C131.931 166.696 131.976 166.999 131.976 167.306C131.976 170.218 128.563 172.584 124.352 172.584C120.141 172.584 116.729 170.223 116.729 167.306C116.729 167.078 116.758 166.855 116.798 166.636C116.119 166.16 115.489 165.644 114.933 164.99C114.764 164.786 114.789 164.489 114.988 164.315C115.112 164.211 115.275 164.181 115.419 164.216L115.518 164.241C116.243 164.439 116.947 164.623 117.641 164.801C118.931 163.15 121.451 162.029 124.352 162.029C127.085 162.029 129.476 163.031 130.825 164.528C130.964 164.479 131.098 164.429 131.242 164.385C132 164.117 132.725 163.74 133.568 163.477L133.682 163.442C133.93 163.363 134.193 163.502 134.272 163.755C134.322 163.913 134.277 164.082 134.173 164.201ZM127.343 157.917C127.358 157.927 127.363 157.922 127.373 157.932C127.378 157.937 127.388 157.937 127.388 157.937C127.388 157.942 127.412 157.912 127.338 158.001C127.135 158.244 126.907 158.457 126.673 158.621C125.726 159.266 124.838 159.415 123.96 159.43C123.082 159.42 122.2 159.271 121.247 158.626C121.014 158.462 120.786 158.249 120.583 158.006C120.508 157.917 120.533 157.947 120.533 157.942C120.538 157.942 120.543 157.942 120.548 157.937C120.558 157.927 120.568 157.932 120.578 157.922C120.622 157.907 120.602 157.828 120.444 157.748C120.285 157.669 120.032 157.624 119.695 157.545C119.526 157.505 119.328 157.46 119.09 157.391C118.871 157.327 118.519 157.203 118.246 156.979C117.79 156.558 117.631 156.141 117.537 155.759C117.448 155.367 117.433 155.015 117.473 154.628L117.488 154.48C117.512 154.266 117.706 154.112 117.914 154.137C118.073 154.157 118.197 154.266 118.241 154.405C118.4 154.911 118.688 155.491 119.03 155.71C119.149 155.789 119.422 155.819 119.72 155.819C120.017 155.824 120.344 155.819 120.687 155.863C121.029 155.903 121.401 156.007 121.723 156.23C121.882 156.335 122.036 156.493 122.14 156.602C122.219 156.687 122.304 156.766 122.413 156.831C122.829 157.098 123.405 157.222 123.96 157.212C124.511 157.222 125.091 157.098 125.508 156.831C125.612 156.766 125.701 156.687 125.781 156.602C125.885 156.493 126.039 156.33 126.197 156.23C126.52 156.007 126.892 155.903 127.234 155.863C127.576 155.819 127.904 155.824 128.201 155.819C128.499 155.819 128.772 155.789 128.891 155.71C129.233 155.491 129.525 154.906 129.679 154.405C129.744 154.202 129.962 154.088 130.165 154.152C130.319 154.202 130.418 154.331 130.438 154.48L130.453 154.623C130.498 155.01 130.478 155.362 130.388 155.754C130.289 156.136 130.136 156.553 129.679 156.974C129.406 157.198 129.054 157.322 128.836 157.386C128.598 157.456 128.4 157.5 128.231 157.54C127.894 157.624 127.636 157.659 127.482 157.743C127.318 157.823 127.303 157.907 127.343 157.917ZM142.317 175.297C138.458 175.297 135.324 172.167 135.324 168.303C135.324 164.444 138.453 161.309 142.317 161.309C146.181 161.309 149.311 164.439 149.311 168.303C149.311 172.167 146.181 175.297 142.317 175.297ZM156.066 150.898C154.975 156.707 149.395 160.918 142.803 160.918C136.207 160.918 130.632 156.702 129.54 150.898C129.516 150.764 129.516 150.631 129.511 150.492H118.425C118.42 150.626 118.42 150.76 118.395 150.898C117.304 156.707 111.724 160.918 105.132 160.918C98.5403 160.918 92.9603 156.702 91.8691 150.898C91.7005 150.006 91.9386 149.093 92.5189 148.394C93.1042 147.689 93.9622 147.283 94.8798 147.283H102.816C102.211 146.608 101.829 145.666 101.829 144.619C101.829 144.252 101.888 143.9 101.978 143.568C101.928 143.587 101.878 143.602 101.824 143.622C101.283 143.825 100.693 144.088 100.162 144.277L99.944 144.351C99.4629 144.52 98.9322 144.267 98.7635 143.786C98.6693 143.528 98.704 143.25 98.828 143.027C99.2496 142.273 99.7456 141.737 100.341 141.226C100.936 140.74 101.596 140.324 102.31 140.026C103.733 139.396 105.34 139.208 106.873 139.342C107.632 139.456 108.396 139.55 109.1 139.818C109.829 140.016 110.489 140.358 111.134 140.701C111.466 140.854 111.754 141.083 112.051 141.286C112.349 141.489 112.637 141.703 112.914 141.921C113.45 142.392 113.946 142.908 114.407 143.429C114.507 143.543 114.497 143.716 114.383 143.816C114.313 143.88 114.219 143.895 114.135 143.875L114.105 143.865C113.425 143.687 112.8 143.468 112.18 143.26C111.531 143.131 110.94 142.888 110.32 142.794C110.013 142.739 109.71 142.685 109.413 142.62C109.264 142.58 109.115 142.571 108.961 142.561L108.515 142.516C108.188 142.466 107.865 142.456 107.543 142.456C107.925 143.067 108.153 143.806 108.153 144.619C108.153 145.671 107.771 146.613 107.166 147.283H115.032H115.38H132.551H136.008H140.1C139.495 146.608 139.113 145.666 139.113 144.619C139.113 144.252 139.173 143.9 139.257 143.568C139.207 143.587 139.158 143.602 139.108 143.622C138.568 143.825 137.977 144.088 137.447 144.277L137.228 144.351C136.747 144.52 136.216 144.267 136.048 143.786C135.959 143.528 135.988 143.25 136.112 143.027C136.534 142.273 137.03 141.737 137.625 141.226C138.22 140.74 138.88 140.324 139.594 140.026C141.018 139.396 142.625 139.208 144.157 139.342C144.916 139.456 145.68 139.55 146.384 139.818C147.114 140.016 147.773 140.358 148.418 140.701C148.75 140.854 149.038 141.083 149.336 141.286C149.633 141.489 149.921 141.703 150.199 141.921C150.734 142.392 151.23 142.908 151.692 143.429C151.791 143.543 151.781 143.716 151.667 143.816C151.597 143.88 151.503 143.895 151.419 143.875L151.389 143.865C150.71 143.687 150.085 143.468 149.465 143.26C148.815 143.131 148.225 142.888 147.605 142.794C147.297 142.739 146.995 142.685 146.697 142.62C146.548 142.58 146.399 142.571 146.246 142.561L145.799 142.516C145.472 142.466 145.149 142.456 144.827 142.456C145.209 143.067 145.437 143.806 145.437 144.619C145.437 145.671 145.055 146.613 144.45 147.283H153.051C153.968 147.283 154.826 147.689 155.412 148.394C155.997 149.093 156.235 150.006 156.066 150.898Z" fill="white"/>
<path d="M95.0534 150.491C95.9462 154.682 100.147 157.708 105.127 157.708C110.107 157.708 114.308 154.682 115.201 150.491H115.032H95.0534Z" fill="white"/>
<path d="M132.73 150.491C133.622 154.682 137.824 157.708 142.803 157.708C147.783 157.708 151.984 154.682 152.877 150.491H136.008H132.73Z" fill="white"/>
<path d="M136.851 189.383C137.496 189.963 138.364 190.117 139.168 189.79C139.976 189.467 140.492 188.758 140.556 187.89L140.924 182.975C138.414 184.234 135.75 185.217 132.973 185.901L136.851 189.383Z" fill="white"/>
<path d="M157.292 169.91C155.804 169.91 154.593 171.12 154.593 172.608C154.593 174.096 155.804 175.306 157.292 175.306C158.78 175.306 159.99 174.096 159.99 172.608C159.99 171.12 158.78 169.91 157.292 169.91Z" fill="white"/>
<path d="M90.639 169.91C89.151 169.91 87.9408 171.12 87.9408 172.608C87.9408 174.096 89.151 175.306 90.639 175.306C92.127 175.306 93.3373 174.096 93.3373 172.608C93.3373 171.12 92.127 169.91 90.639 169.91Z" fill="white"/>
<path d="M119.586 186.739L121.917 191.481C122.299 192.26 123.048 192.726 123.916 192.726C124.784 192.726 125.533 192.26 125.915 191.481L128.236 186.754C126.832 186.913 125.409 187.002 123.965 187.002C122.482 187.002 121.024 186.908 119.586 186.739Z" fill="white"/>
<path d="M107.369 187.895C107.434 188.763 107.954 189.472 108.758 189.795C109.566 190.122 110.429 189.963 111.074 189.388L114.948 185.906C112.17 185.221 109.507 184.239 106.997 182.979L107.369 187.895Z" fill="white"/>
<path d="M123.816 22.9004C68.6266 22.9004 23.8874 67.6396 23.8874 122.83C23.8874 178.019 68.6266 222.759 123.816 222.759C179.006 222.759 223.746 178.019 223.746 122.83C223.746 67.6396 179.006 22.9004 123.816 22.9004ZM59.2918 127.214C58.7909 128.717 57.4467 129.783 55.3288 129.783C53.811 129.783 52.209 129.233 51.088 128.37C49.9968 127.527 48.7568 126.902 47.4523 126.48C47.2688 126.912 46.9266 127.259 46.4901 127.442C46.9117 128.752 47.5366 129.987 48.3798 131.078C49.2429 132.204 49.7934 133.801 49.7934 135.319C49.7934 137.437 48.727 138.781 47.2242 139.282C47.249 139.386 47.2638 139.495 47.2638 139.604C47.2638 140.378 46.6637 141.013 45.8998 141.062C45.1856 141.112 44.5259 140.596 44.3722 139.897C44.3226 139.679 44.3325 139.475 44.3771 139.282C42.8742 138.781 41.8078 137.437 41.8078 135.319C41.8078 133.801 42.3584 132.199 43.2214 131.078C44.0646 129.987 44.6896 128.747 45.1112 127.442C44.6797 127.259 44.3325 126.917 44.149 126.48C42.8445 126.902 41.6045 127.527 40.5133 128.37C39.3874 129.233 37.7902 129.783 36.2725 129.783C34.1546 129.783 32.8104 128.717 32.3094 127.214C32.2053 127.239 32.0962 127.254 31.987 127.254C31.2133 127.254 30.5784 126.654 30.5288 125.89C30.4792 125.176 30.995 124.516 31.6944 124.362C31.9126 124.313 32.116 124.322 32.3094 124.367C32.8104 122.864 34.1546 121.798 36.2725 121.798C37.7902 121.798 39.3923 122.348 40.5133 123.211C41.6045 124.055 42.8445 124.68 44.149 125.101C44.3325 124.67 44.6747 124.322 45.1112 124.139C44.6896 122.834 44.0646 121.594 43.2214 120.503C42.3584 119.377 41.8078 117.78 41.8078 116.262C41.8078 114.145 42.8742 112.8 44.3771 112.299C44.3523 112.195 44.3374 112.086 44.3374 111.977C44.3374 111.203 44.9376 110.568 45.7014 110.519C46.4157 110.469 47.0754 110.985 47.2291 111.684C47.2787 111.903 47.2688 112.106 47.2242 112.299C48.727 112.8 49.7934 114.145 49.7934 116.262C49.7934 117.78 49.2429 119.382 48.3798 120.503C47.5366 121.594 46.9117 122.834 46.4901 124.139C46.9216 124.322 47.2688 124.665 47.4523 125.101C48.7618 124.68 49.9968 124.055 51.088 123.211C52.2139 122.348 53.811 121.798 55.3288 121.798C57.4467 121.798 58.7909 122.864 59.2918 124.367C59.396 124.342 59.5051 124.327 59.6142 124.327C60.388 124.327 61.0229 124.928 61.0725 125.691C61.1221 126.406 60.6062 127.065 59.9069 127.219C59.6936 127.269 59.4853 127.259 59.2918 127.214ZM189.115 140.695C187.622 145.497 184.165 153.165 176.953 155.198C178.376 156.21 180.499 157.148 183.237 156.746C184.378 156.582 185.479 157.014 186.193 157.902C186.903 158.78 187.091 159.94 186.694 161.002C184.502 166.869 179.423 177.186 170.009 180.375C168.154 181.005 166.234 181.318 164.25 181.318C159.836 181.318 155.129 179.76 150.179 176.655C150.139 176.631 150.109 176.601 150.075 176.576C148.289 178.253 146.35 179.755 144.286 181.07L143.756 188.133C143.602 190.216 142.297 191.992 140.363 192.77C139.698 193.038 139.009 193.167 138.324 193.167C137.01 193.167 135.725 192.686 134.704 191.769L130.984 188.426L128.791 192.89C127.869 194.764 125.999 195.93 123.911 195.93C121.823 195.93 119.953 194.764 119.03 192.89L116.868 188.485L113.217 191.764C112.195 192.681 110.911 193.162 109.596 193.162C108.912 193.162 108.222 193.033 107.558 192.766C105.618 191.987 104.319 190.211 104.165 188.128L103.634 181.065C101.744 179.865 99.9638 178.501 98.3072 176.993C93.5704 179.86 89.0518 181.313 84.811 181.313C82.832 181.313 80.9125 181 79.0574 180.37C69.6434 177.181 64.5643 166.864 62.372 160.997C61.9752 159.935 62.1637 158.775 62.873 157.897C63.5922 157.009 64.6982 156.577 65.8291 156.741C68.5522 157.138 70.675 156.2 72.1035 155.189C64.8966 153.15 61.4395 145.487 59.9466 140.686C59.6093 139.594 59.9168 138.439 60.755 137.675C61.6082 136.896 62.8035 136.688 63.8798 137.129C67.8925 138.776 71.3198 134.297 73.036 131.425C71.9646 131.232 71.0718 130.82 70.3675 130.19C68.9589 128.93 68.9142 127.303 68.9142 127.12C68.9142 126.381 69.4202 125.731 70.1443 125.558C72.4854 124.992 73.5618 123.846 74.1371 121.902C65.5266 121.356 57.8931 117.071 54.188 109.74C48.1715 97.8361 54.7485 82.351 68.8498 75.2234C72.5251 73.3634 76.5328 72.1879 80.5107 71.7961C81.7755 63.9494 86.557 56.7425 94.0862 51.3758C101.973 45.7561 112.21 42.661 122.919 42.661C133.617 42.661 143.85 45.7511 151.731 51.3609C159.226 56.6929 163.997 63.8551 165.302 71.6522C170.034 71.7713 174.82 72.9964 179.225 75.2234C193.326 82.3559 199.903 97.8361 193.886 109.74C190.32 116.798 183.113 121.034 174.9 121.828C175.47 123.817 176.546 124.987 178.912 125.558C179.631 125.731 180.142 126.376 180.142 127.12C180.142 127.303 180.103 128.925 178.689 130.19C177.985 130.82 177.097 131.232 176.025 131.425C177.747 134.292 181.189 138.766 185.177 137.129C186.253 136.688 187.448 136.896 188.301 137.675C189.145 138.449 189.452 139.604 189.115 140.695ZM216.395 127.219C216.177 127.269 215.973 127.259 215.78 127.214C215.279 128.717 213.935 129.783 211.817 129.783C210.299 129.783 208.697 129.233 207.576 128.37C206.485 127.527 205.245 126.902 203.94 126.48C203.757 126.912 203.415 127.259 202.978 127.442C203.4 128.752 204.025 129.987 204.868 131.078C205.731 132.204 206.281 133.801 206.281 135.319C206.281 137.437 205.215 138.781 203.712 139.282C203.737 139.386 203.752 139.495 203.752 139.604C203.752 140.378 203.152 141.013 202.388 141.062C201.674 141.112 201.014 140.596 200.86 139.897C200.811 139.679 200.82 139.475 200.865 139.282C199.362 138.781 198.296 137.437 198.296 135.319C198.296 133.801 198.846 132.199 199.709 131.078C200.553 129.987 201.178 128.747 201.599 127.442C201.168 127.259 200.82 126.917 200.637 126.48C199.328 126.902 198.092 127.527 197.001 128.37C195.875 129.233 194.278 129.783 192.76 129.783C190.643 129.783 189.298 128.717 188.797 127.214C188.693 127.239 188.584 127.254 188.475 127.254C187.701 127.254 187.066 126.654 187.017 125.89C186.967 125.176 187.483 124.516 188.182 124.362C188.401 124.313 188.604 124.322 188.797 124.367C189.298 122.864 190.643 121.798 192.76 121.798C194.278 121.798 195.88 122.348 197.001 123.211C198.092 124.055 199.332 124.68 200.637 125.101C200.82 124.67 201.163 124.322 201.599 124.139C201.178 122.834 200.553 121.594 199.709 120.503C198.846 119.377 198.296 117.78 198.296 116.262C198.296 114.145 199.362 112.8 200.865 112.299C200.84 112.195 200.825 112.086 200.825 111.977C200.825 111.203 201.426 110.568 202.189 110.519C202.904 110.469 203.563 110.985 203.717 111.684C203.767 111.903 203.757 112.106 203.712 112.299C205.215 112.8 206.281 114.145 206.281 116.262C206.281 117.78 205.731 119.382 204.868 120.503C204.025 121.594 203.4 122.834 202.978 124.139C203.41 124.322 203.757 124.665 203.94 125.101C205.245 124.68 206.485 124.055 207.576 123.211C208.702 122.348 210.299 121.798 211.817 121.798C213.935 121.798 215.279 122.864 215.78 124.367C215.884 124.342 215.993 124.327 216.102 124.327C216.876 124.327 217.511 124.928 217.56 125.691C217.61 126.411 217.094 127.065 216.395 127.219Z" fill="white"/>
<path d="M191.024 108.302C196.242 97.9799 190.3 84.4292 177.781 78.0952C173.402 75.8781 168.605 74.772 163.948 74.8663C163.933 74.8663 163.923 74.8663 163.913 74.8663C163.1 74.8663 162.41 74.2512 162.316 73.4378C161.488 66.0127 157.068 59.0984 149.876 53.9797C142.531 48.7519 132.958 45.8701 122.924 45.8701C102.538 45.8701 85.2326 57.9924 83.5314 73.4676C83.447 74.2463 82.8072 74.8514 82.0235 74.896C78.0505 75.1192 73.9982 76.2204 70.303 78.0903C57.779 84.4242 51.837 97.97 57.0598 108.297C60.2888 114.68 67.0443 118.346 74.6877 118.728C74.7522 118.083 74.8067 117.393 74.8613 116.649C75.2878 110.707 75.8781 102.568 85.2227 95.9612C98.0989 86.8596 109.586 87.9359 114.442 89.0122C114.219 88.0252 113.817 86.9637 113.123 86.2792C112.607 85.7684 112.498 84.9797 112.855 84.3498C113.212 83.7199 113.946 83.4074 114.65 83.586C115.513 83.8092 121.58 85.4559 124.278 88.8138C125.513 87.5192 127.512 86.1106 130.696 85.3021C131.128 85.193 131.584 85.2674 131.961 85.5104C132.338 85.7535 132.591 86.1404 132.67 86.5768L133.171 89.3892C136.732 88.3525 149.41 85.7584 163.849 95.9661C173.193 102.573 173.779 110.712 174.21 116.654C174.26 117.369 174.314 118.033 174.374 118.653C181.61 118.018 187.934 114.412 191.024 108.302ZM111.927 78.492C111.501 78.8541 110.861 78.8045 110.499 78.378L105.767 72.8228C105.603 72.6293 105.464 72.3962 105.37 72.1482C104.924 70.9677 105.524 69.6484 106.704 69.202C107.885 68.7556 109.204 69.3557 109.651 70.5362L112.22 77.3661C112.364 77.753 112.26 78.2093 111.927 78.492ZM126.093 68.9143L124.838 76.1013C124.744 76.6519 124.218 77.0239 123.668 76.9247C123.236 76.8503 122.914 76.508 122.844 76.1013L121.589 68.9143C121.371 67.6693 122.204 66.4888 123.449 66.2706C124.694 66.0524 125.875 66.8856 126.093 68.1306C126.143 68.3935 126.138 68.6613 126.093 68.9143ZM142.714 72.1432C142.62 72.3962 142.481 72.6244 142.317 72.8178L137.585 78.373C137.223 78.7996 136.584 78.8492 136.157 78.4871C135.825 78.2044 135.72 77.748 135.864 77.3562L138.434 70.5263C138.88 69.3458 140.194 68.7456 141.38 69.192C142.56 69.6434 143.16 70.9628 142.714 72.1432Z" fill="white"/>
</g>
<defs>
<clipPath id="clip0_24_523">
<rect width="248" height="248" fill="white"/>
</clipPath>
</defs>
</svg>
