<svg width="28" height="28" viewBox="0 0 28 28" fill="none" xmlns="http://www.w3.org/2000/svg">
<g clip-path="url(#clip0_201_273)">
<path d="M27.9169 13.9765C27.9169 16.1746 28.1293 18.3973 27.8723 20.5648C27.3522 24.9472 23.9576 27.8836 19.5474 27.9558C15.8312 28.0172 12.1134 28.0172 8.39723 27.9589C3.58233 27.8806 0.0015388 24.1858 0 19.3935C0 15.7617 0 12.1299 0 8.49962C0.0015388 3.74111 3.70235 0.0217975 8.46648 0.00798246C12.1581 -0.00276256 15.8496 -0.00122756 19.5412 0.00798246C24.2499 0.0202625 27.9738 3.75493 27.9754 8.45204C27.9769 10.2925 27.9754 12.1345 27.9754 13.975C27.9554 13.9765 27.9369 13.9765 27.9169 13.9765ZM25.2825 14.0333C25.2825 12.1652 25.2994 10.2986 25.2779 8.43055C25.2425 5.38203 23.0651 2.89072 20.0213 2.77713C16.0528 2.62977 12.0719 2.62823 8.10486 2.76792C4.94109 2.87844 2.72829 5.31142 2.69444 8.43669C2.65597 12.1207 2.65443 15.8047 2.68982 19.4872C2.7206 22.7982 5.22423 25.2281 8.52803 25.2296C12.1704 25.2312 15.8112 25.2312 19.4535 25.2296C22.7865 25.2296 25.2732 22.746 25.284 19.4058C25.2886 17.6145 25.284 15.8231 25.2825 14.0333Z" fill="#FFA400"/>
<path d="M20.4215 13.7309C20.4107 17.5377 17.3393 20.6277 13.5369 20.597C9.30366 20.5632 6.52151 16.999 6.64 13.4976C6.76464 9.79518 9.80377 6.7789 13.6185 6.78811C17.3854 6.79578 20.4323 9.9057 20.4215 13.7309ZM13.5307 9.34389C11.1779 9.34696 9.14208 11.3701 9.14824 13.7002C9.15439 16.0119 11.2302 18.0719 13.5492 18.0642C15.8882 18.0566 17.9286 16.0104 17.9209 13.6833C17.9102 11.3286 15.899 9.34082 13.5307 9.34389Z" fill="#FFA400"/>
<path d="M23.0589 6.63284C23.082 7.517 22.3111 8.30906 21.4109 8.32288C20.5061 8.33669 19.7213 7.57686 19.7105 6.67889C19.6997 5.78398 20.4614 5.00113 21.3632 4.97657C22.2311 4.95354 23.0343 5.73946 23.0589 6.63284Z" fill="#FFA400"/>
</g>
<defs>
<clipPath id="clip0_201_273">
<rect width="28" height="28" fill="white"/>
</clipPath>
</defs>
</svg>
