<svg width="203" height="203" viewBox="0 0 203 203" fill="none" xmlns="http://www.w3.org/2000/svg">
<g clip-path="url(#clip0_19_1035)">
<path d="M106.867 11.0433C105.95 11.1976 105.02 11.2747 104.086 11.2747H103.587C102.478 11.291 101.362 11.3275 100.245 11.4656C99.1168 11.5914 98.0409 11.8878 96.9244 12.306C96.6605 12.4278 96.3763 12.5374 96.0921 12.6592C96.0921 12.6592 96.0921 12.6592 96.088 12.6592L95.2801 13.1058L94.8578 13.3413C94.8578 13.3413 94.8578 13.3413 94.8538 13.3413L94.464 13.6214C94.2001 13.8122 93.9159 13.999 93.6276 14.1979L93.5505 14.2507C93.2744 14.4375 92.9009 14.3685 92.7101 14.0924C92.6086 13.9462 92.5842 13.7716 92.6208 13.6092C92.706 13.252 92.7953 12.8825 92.909 12.5171C92.9618 12.3344 93.0186 12.1476 93.0795 11.9649C93.0795 11.9649 93.0795 11.9649 93.0795 11.9609L93.3191 11.4412C93.4815 11.092 93.6561 10.7348 93.855 10.3897C94.0702 10.0689 94.2894 9.73193 94.529 9.41119C94.7563 9.07015 95.0365 8.79407 95.3044 8.49363C95.5764 8.19725 95.8606 7.89275 96.1692 7.64509C96.4737 7.38525 96.7863 7.12135 97.1071 6.86557C97.4359 6.63415 97.7729 6.41491 98.1139 6.18755C99.4903 5.33901 100.988 4.68941 102.531 4.30777C103.303 4.11695 104.086 3.97485 104.878 3.91395C105.272 3.87335 105.674 3.87335 106.08 3.86523C106.283 3.86523 106.494 3.88147 106.697 3.88959C106.798 3.89365 106.912 3.90583 107.022 3.91801L107.188 3.93425L107.265 3.94237C109.104 4.17785 110.558 5.75719 110.456 7.60855C110.379 9.07827 109.425 10.2597 108.154 10.7226L108.077 10.751C107.838 10.8606 107.363 10.9581 106.867 11.0433Z" fill="white"/>
<path d="M105.666 3.10184C106.522 3.10184 107.216 2.40747 107.216 1.55092C107.216 0.69437 106.522 0 105.666 0C104.809 0 104.115 0.69437 104.115 1.55092C104.115 2.40747 104.809 3.10184 105.666 3.10184Z" fill="white"/>
<path d="M101.334 3.47539C101.966 3.47539 102.478 2.96279 102.478 2.33047C102.478 1.69814 101.966 1.18555 101.334 1.18555C100.701 1.18555 100.189 1.69814 100.189 2.33047C100.189 2.96279 100.701 3.47539 101.334 3.47539Z" fill="white"/>
<path d="M97.9271 5.21707C98.5415 5.21707 99.0396 4.71901 99.0396 4.10463C99.0396 3.49024 98.5415 2.99219 97.9271 2.99219C97.3127 2.99219 96.8147 3.49024 96.8147 4.10463C96.8147 4.71901 97.3127 5.21707 97.9271 5.21707Z" fill="white"/>
<path d="M95.211 7.10102C95.6842 7.10102 96.0677 6.71748 96.0677 6.24436C96.0677 5.77123 95.6842 5.3877 95.211 5.3877C94.7379 5.3877 94.3544 5.77123 94.3544 6.24436C94.3544 6.71748 94.7379 7.10102 95.211 7.10102Z" fill="white"/>
<path d="M125.551 14.1248C124.622 14.0842 123.696 13.9665 122.782 13.7757L122.295 13.6742C121.207 13.459 120.111 13.2641 118.986 13.1667C117.858 13.053 116.741 13.122 115.564 13.3007C115.28 13.3656 114.979 13.4143 114.675 13.4712C114.675 13.4712 114.675 13.4712 114.671 13.4712L113.79 13.7391L113.327 13.8812C113.327 13.8812 113.327 13.8812 113.323 13.8812L112.884 14.0721C112.588 14.202 112.271 14.3278 111.946 14.4618L111.861 14.4984C111.553 14.6242 111.199 14.4781 111.073 14.1695C111.004 14.0071 111.017 13.8285 111.086 13.6782C111.244 13.3453 111.41 13.0043 111.593 12.6714C111.686 12.5049 111.776 12.3303 111.877 12.1639C111.877 12.1639 111.877 12.1639 111.877 12.1598L112.218 11.701C112.45 11.3925 112.697 11.0798 112.957 10.7835C113.237 10.5114 113.518 10.2313 113.822 9.96739C114.114 9.68319 114.443 9.47207 114.772 9.23253C115.101 8.99705 115.438 8.76157 115.795 8.58293C116.148 8.39211 116.51 8.19723 116.875 8.01453C117.245 7.85619 117.618 7.71003 118 7.56387C119.522 7.01983 121.122 6.69909 122.713 6.64225C123.509 6.61383 124.301 6.64225 125.093 6.74375C125.486 6.78435 125.88 6.86961 126.278 6.94269C126.473 6.98735 126.68 7.04419 126.879 7.09291C126.976 7.11727 127.086 7.15787 127.192 7.18629L127.35 7.23907L127.423 7.26343C129.173 7.87649 130.265 9.72379 129.782 11.5143C129.4 12.9353 128.219 13.8934 126.883 14.0802L126.802 14.0924C126.542 14.1492 126.051 14.1451 125.551 14.1248Z" fill="white"/>
<path d="M126.347 6.14286C127.204 6.14286 127.898 5.44849 127.898 4.59194C127.898 3.73539 127.204 3.04102 126.347 3.04102C125.491 3.04102 124.796 3.73539 124.796 4.59194C124.796 5.44849 125.491 6.14286 126.347 6.14286Z" fill="white"/>
<path d="M121.95 5.59843C122.583 5.59843 123.095 5.08584 123.095 4.45351C123.095 3.82119 122.583 3.30859 121.95 3.30859C121.318 3.30859 120.805 3.82119 120.805 4.45351C120.805 5.08584 121.318 5.59843 121.95 5.59843Z" fill="white"/>
<path d="M118.247 6.59304C118.862 6.59304 119.36 6.09499 119.36 5.4806C119.36 4.86622 118.862 4.36816 118.247 4.36816C117.633 4.36816 117.135 4.86622 117.135 5.4806C117.135 6.09499 117.633 6.59304 118.247 6.59304Z" fill="white"/>
<path d="M115.146 7.86859C115.619 7.86859 116.002 7.48505 116.002 7.01193C116.002 6.53881 115.619 6.15527 115.146 6.15527C114.672 6.15527 114.289 6.53881 114.289 7.01193C114.289 7.48505 114.672 7.86859 115.146 7.86859Z" fill="white"/>
<path d="M143.184 21.0267C142.283 20.7953 141.402 20.4868 140.549 20.1092L140.094 19.9062C139.075 19.4718 138.04 19.0495 136.964 18.7207C135.88 18.3756 134.78 18.2091 133.59 18.1401C133.302 18.1441 132.997 18.1279 132.685 18.1238C132.685 18.1238 132.685 18.1238 132.681 18.1238L131.763 18.205L131.28 18.2456C131.28 18.2456 131.28 18.2456 131.276 18.2456L130.805 18.339C130.488 18.404 130.151 18.4608 129.806 18.5258L129.717 18.542C129.388 18.6029 129.075 18.3837 129.015 18.0589C128.982 17.8843 129.031 17.7138 129.128 17.5839C129.352 17.2915 129.583 16.9952 129.835 16.7028C129.961 16.5567 130.082 16.4065 130.216 16.2644L130.647 15.8868C130.939 15.6351 131.243 15.3793 131.56 15.1438C131.889 14.9367 132.226 14.7216 132.575 14.5267C132.92 14.3074 133.286 14.1694 133.659 14.0029C134.029 13.8405 134.41 13.6781 134.796 13.5807C135.182 13.467 135.571 13.3533 135.969 13.2518C136.363 13.1747 136.761 13.1097 137.163 13.0448C138.767 12.8296 140.399 12.8458 141.966 13.1219C142.75 13.26 143.521 13.4508 144.272 13.7147C144.65 13.8365 145.015 13.9989 145.389 14.1572C145.571 14.2384 145.758 14.3399 145.945 14.4292C146.034 14.4698 146.136 14.5348 146.233 14.5876L146.379 14.6728L146.444 14.7134C148.028 15.6797 148.714 17.7097 147.869 19.3621C147.199 20.6735 145.847 21.3637 144.499 21.2703L144.418 21.2663C144.15 21.2541 143.671 21.1485 143.184 21.0267Z" fill="white"/>
<path d="M145.949 13.4182C146.805 13.4182 147.5 12.7239 147.5 11.8673C147.5 11.0108 146.805 10.3164 145.949 10.3164C145.092 10.3164 144.398 11.0108 144.398 11.8673C144.398 12.7239 145.092 13.4182 145.949 13.4182Z" fill="white"/>
<path d="M141.678 11.9607C142.31 11.9607 142.823 11.4481 142.823 10.8158C142.823 10.1835 142.31 9.6709 141.678 9.6709C141.045 9.6709 140.533 10.1835 140.533 10.8158C140.533 11.4481 141.045 11.9607 141.678 11.9607Z" fill="white"/>
<path d="M137.841 12.1634C138.455 12.1634 138.953 11.6653 138.953 11.0509C138.953 10.4365 138.455 9.93848 137.841 9.93848C137.227 9.93848 136.729 10.4365 136.729 11.0509C136.729 11.6653 137.227 12.1634 137.841 12.1634Z" fill="white"/>
<path d="M134.487 12.7602C134.961 12.7602 135.344 12.3767 135.344 11.9035C135.344 11.4304 134.961 11.0469 134.487 11.0469C134.014 11.0469 133.631 11.4304 133.631 11.9035C133.631 12.3767 134.014 12.7602 134.487 12.7602Z" fill="white"/>
<path d="M159.002 31.4409C158.169 31.0268 157.37 30.5396 156.619 29.9955L156.217 29.7032C155.307 29.0658 154.386 28.4405 153.399 27.8924C152.412 27.3321 151.369 26.9383 150.22 26.6217C149.936 26.5648 149.643 26.4877 149.339 26.4146C149.339 26.4146 149.339 26.4146 149.335 26.4146L148.417 26.3009L147.938 26.24C147.938 26.24 147.938 26.24 147.934 26.24L147.455 26.236C147.13 26.236 146.789 26.2197 146.436 26.2116L146.343 26.2075C146.01 26.1994 145.746 25.9193 145.754 25.5864C145.758 25.4077 145.839 25.2494 145.965 25.1438C146.245 24.9043 146.533 24.6607 146.838 24.4293C146.988 24.3115 147.142 24.1938 147.301 24.0801C147.301 24.0801 147.301 24.0801 147.305 24.0801L147.804 23.8C148.141 23.6132 148.494 23.4305 148.852 23.264C149.217 23.1301 149.591 22.988 149.972 22.8702C150.354 22.7281 150.744 22.6672 151.138 22.586C151.531 22.5048 151.937 22.4277 152.335 22.4074C152.737 22.379 153.143 22.3465 153.553 22.3262C153.553 22.3262 153.553 22.3262 153.557 22.3262C153.959 22.3343 154.361 22.3546 154.771 22.3708C156.383 22.4926 157.975 22.8499 159.452 23.4467C160.191 23.7431 160.902 24.0923 161.584 24.5064C161.929 24.7053 162.254 24.9408 162.583 25.1722C162.745 25.29 162.907 25.428 163.07 25.5539C163.151 25.6148 163.236 25.696 163.318 25.7691L163.443 25.8827L163.5 25.9355C164.848 27.2104 165.096 29.3378 163.927 30.7791C163.001 31.924 161.531 32.3178 160.232 31.9443L160.155 31.924C159.895 31.8672 159.448 31.6642 159.002 31.4409Z" fill="white"/>
<path d="M163.606 24.6077C164.462 24.6077 165.157 23.9133 165.157 23.0568C165.157 22.2002 164.462 21.5059 163.606 21.5059C162.749 21.5059 162.055 22.2002 162.055 23.0568C162.055 23.9133 162.749 24.6077 163.606 24.6077Z" fill="white"/>
<path d="M159.647 22.2859C160.28 22.2859 160.792 21.7733 160.792 21.141C160.792 20.5087 160.28 19.9961 159.647 19.9961C159.015 19.9961 158.502 20.5087 158.502 21.141C158.502 21.7733 159.015 22.2859 159.647 22.2859Z" fill="white"/>
<path d="M155.847 21.6848C156.462 21.6848 156.96 21.1868 156.96 20.5724C156.96 19.958 156.462 19.46 155.847 19.46C155.233 19.46 154.735 19.958 154.735 20.5724C154.735 21.1868 155.233 21.6848 155.847 21.6848Z" fill="white"/>
<path d="M152.388 21.5668C152.861 21.5668 153.245 21.1833 153.245 20.7102C153.245 20.2371 152.861 19.8535 152.388 19.8535C151.915 19.8535 151.531 20.2371 151.531 20.7102C151.531 21.1833 151.915 21.5668 152.388 21.5668Z" fill="white"/>
<path d="M172.302 44.9195C171.572 44.343 170.893 43.7015 170.268 43.0072L169.935 42.6378C169.18 41.8258 168.409 41.0219 167.556 40.283C166.708 39.5278 165.766 38.9269 164.71 38.3788C164.442 38.2652 164.174 38.1271 163.89 37.9972C163.89 37.9972 163.89 37.9972 163.886 37.9972L163.013 37.6968L162.558 37.5384C162.558 37.5384 162.558 37.5384 162.554 37.5384L162.087 37.4329C161.771 37.3638 161.438 37.2786 161.097 37.1974L161.007 37.1771C160.683 37.0999 160.484 36.7711 160.561 36.4463C160.601 36.2758 160.715 36.1377 160.857 36.0565C161.178 35.8819 161.515 35.7033 161.86 35.5409C162.035 35.4597 162.209 35.3744 162.388 35.2973C162.388 35.2973 162.388 35.2973 162.392 35.2973L162.94 35.1268C163.309 35.0131 163.691 34.9075 164.077 34.8223C164.462 34.7654 164.856 34.7045 165.254 34.668C165.66 34.6112 166.05 34.6315 166.456 34.6315C166.858 34.6355 167.272 34.6436 167.666 34.7086C168.064 34.7614 168.47 34.8182 168.872 34.8832C169.261 34.9725 169.651 35.0781 170.049 35.1796C171.6 35.6343 173.086 36.3164 174.401 37.2055C175.059 37.6521 175.688 38.1393 176.265 38.6833C176.561 38.9472 176.829 39.2477 177.105 39.54C177.239 39.6902 177.369 39.8567 177.503 40.015C177.568 40.0922 177.633 40.1896 177.702 40.2749L177.8 40.4088L177.844 40.4738C178.9 42.0004 178.697 44.1319 177.256 45.3011C176.111 46.2268 174.592 46.308 173.399 45.6747L173.325 45.6381C173.09 45.5204 172.696 45.2281 172.302 44.9195Z" fill="white"/>
<path d="M178.551 39.2278C179.407 39.2278 180.102 38.5334 180.102 37.6769C180.102 36.8203 179.407 36.126 178.551 36.126C177.694 36.126 177 36.8203 177 37.6769C177 38.5334 177.694 39.2278 178.551 39.2278Z" fill="white"/>
<path d="M175.079 36.1219C175.712 36.1219 176.224 35.6093 176.224 34.977C176.224 34.3446 175.712 33.832 175.079 33.832C174.447 33.832 173.934 34.3446 173.934 34.977C173.934 35.6093 174.447 36.1219 175.079 36.1219Z" fill="white"/>
<path d="M171.478 34.7454C172.093 34.7454 172.591 34.2473 172.591 33.6329C172.591 33.0186 172.093 32.5205 171.478 32.5205C170.864 32.5205 170.366 33.0186 170.366 33.6329C170.366 34.2473 170.864 34.7454 171.478 34.7454Z" fill="white"/>
<path d="M168.068 33.9047C168.541 33.9047 168.924 33.5212 168.924 33.0481C168.924 32.5749 168.541 32.1914 168.068 32.1914C167.595 32.1914 167.211 32.5749 167.211 33.0481C167.211 33.5212 167.595 33.9047 168.068 33.9047Z" fill="white"/>
<path d="M182.513 60.868C181.921 60.1494 181.389 59.3821 180.922 58.5782L180.67 58.1478C180.102 57.1937 179.513 56.2477 178.835 55.3505C178.161 54.437 177.365 53.6493 176.448 52.8982C176.212 52.7318 175.973 52.541 175.725 52.3542C175.725 52.3542 175.725 52.3542 175.721 52.3542L174.929 51.8792L174.515 51.6315C174.515 51.6315 174.515 51.6315 174.511 51.6315L174.077 51.4326C173.78 51.2986 173.476 51.1484 173.159 50.9941L173.078 50.9535C172.777 50.8114 172.652 50.4501 172.794 50.1496C172.871 49.9913 173.009 49.8776 173.167 49.8329C173.52 49.7274 173.882 49.6218 174.255 49.5366C174.442 49.4919 174.629 49.4432 174.82 49.4066C174.82 49.4066 174.82 49.4066 174.824 49.4066L175.392 49.3539C175.778 49.3214 176.172 49.293 176.569 49.293C176.569 49.293 176.569 49.293 176.573 49.293C176.959 49.3173 177.361 49.3417 177.759 49.3904C178.165 49.4188 178.547 49.5203 178.94 49.6056C179.334 49.6908 179.736 49.7842 180.11 49.9304C180.487 50.0644 180.873 50.2024 181.255 50.3526C181.616 50.5231 181.977 50.7058 182.343 50.8845C183.768 51.6518 185.075 52.6262 186.179 53.7711C186.732 54.3436 187.243 54.9526 187.694 55.6063C187.925 55.927 188.128 56.2762 188.335 56.6213C188.437 56.7958 188.526 56.9867 188.624 57.1694C188.672 57.2587 188.717 57.3683 188.762 57.4657L188.831 57.62L188.859 57.6931C189.574 59.4064 188.932 61.4486 187.28 62.2931C185.968 62.9589 184.466 62.7234 183.431 61.8546L183.366 61.8059C183.159 61.6191 182.834 61.2537 182.513 60.868Z" fill="white"/>
<path d="M190.134 56.6331C190.99 56.6331 191.685 55.9387 191.685 55.0822C191.685 54.2256 190.99 53.5312 190.134 53.5312C189.277 53.5312 188.583 54.2256 188.583 55.0822C188.583 55.9387 189.277 56.6331 190.134 56.6331Z" fill="white"/>
<path d="M187.296 52.866C187.928 52.866 188.441 52.3534 188.441 51.7211C188.441 51.0888 187.928 50.5762 187.296 50.5762C186.664 50.5762 186.151 51.0888 186.151 51.7211C186.151 52.3534 186.664 52.866 187.296 52.866Z" fill="white"/>
<path d="M184.052 50.7669C184.666 50.7669 185.164 50.2688 185.164 49.6544C185.164 49.0401 184.666 48.542 184.052 48.542C183.438 48.542 182.94 49.0401 182.94 49.6544C182.94 50.2688 183.438 50.7669 184.052 50.7669Z" fill="white"/>
<path d="M180.841 49.2319C181.314 49.2319 181.697 48.8483 181.697 48.3752C181.697 47.9021 181.314 47.5186 180.841 47.5186C180.367 47.5186 179.984 47.9021 179.984 48.3752C179.984 48.8483 180.367 49.2319 180.841 49.2319Z" fill="white"/>
<path d="M189.188 78.5897C188.758 77.7655 188.4 76.9048 188.108 76.0197L187.954 75.5447C187.592 74.4932 187.215 73.4457 186.74 72.4266C186.273 71.3913 185.656 70.4575 184.913 69.5318C184.714 69.3207 184.523 69.0852 184.32 68.8498L183.646 68.2205L183.293 67.8916C183.293 67.8916 183.293 67.8916 183.289 67.8916L182.903 67.6074C182.639 67.4166 182.375 67.2055 182.095 66.9903L182.022 66.9334C181.758 66.7304 181.709 66.3488 181.912 66.0849C182.022 65.9428 182.18 65.8657 182.343 65.8494C182.708 65.821 183.086 65.7926 183.467 65.7885C183.658 65.7845 183.853 65.7763 184.048 65.7804C184.048 65.7804 184.048 65.7804 184.052 65.7804L184.62 65.8494C185.006 65.8981 185.396 65.955 185.786 66.0321C186.159 66.1377 186.545 66.2432 186.922 66.3732C187.316 66.4828 187.665 66.6655 188.035 66.8279C188.404 66.9943 188.778 67.1689 189.111 67.3882C189.452 67.5993 189.801 67.8145 190.142 68.0378C190.463 68.2773 190.775 68.5331 191.096 68.7848C192.33 69.8323 193.406 71.0584 194.251 72.4063C194.673 73.0803 195.047 73.7827 195.351 74.5175C195.513 74.8789 195.635 75.2605 195.769 75.6421C195.83 75.833 195.883 76.04 195.936 76.239C195.964 76.3364 195.984 76.4501 196.009 76.5597L196.045 76.7221L196.062 76.7992C196.403 78.6222 195.351 80.4898 193.561 80.9689C192.14 81.3505 190.719 80.8065 189.886 79.7387L189.833 79.6778C189.663 79.4585 189.419 79.0322 189.188 78.5897Z" fill="white"/>
<path d="M197.84 76.0638C198.696 76.0638 199.391 75.3694 199.391 74.5128C199.391 73.6563 198.696 72.9619 197.84 72.9619C196.983 72.9619 196.289 73.6563 196.289 74.5128C196.289 75.3694 196.983 76.0638 197.84 76.0638Z" fill="white"/>
<path d="M195.765 71.7811C196.397 71.7811 196.91 71.2684 196.91 70.6361C196.91 70.0038 196.397 69.4912 195.765 69.4912C195.133 69.4912 194.62 70.0038 194.62 70.6361C194.62 71.2684 195.133 71.7811 195.765 71.7811Z" fill="white"/>
<path d="M193.025 69.0569C193.639 69.0569 194.137 68.5589 194.137 67.9445C194.137 67.3301 193.639 66.832 193.025 66.832C192.41 66.832 191.912 67.3301 191.912 67.9445C191.912 68.5589 192.41 69.0569 193.025 69.0569Z" fill="white"/>
<path d="M190.146 66.8764C190.619 66.8764 191.003 66.4929 191.003 66.0197C191.003 65.5466 190.619 65.1631 190.146 65.1631C189.673 65.1631 189.289 65.5466 189.289 66.0197C189.289 66.4929 189.673 66.8764 190.146 66.8764Z" fill="white"/>
<path d="M192.03 97.3103C191.778 96.4131 191.608 95.4955 191.51 94.5698L191.457 94.0745C191.323 92.9742 191.173 91.8699 190.917 90.7697C190.674 89.6613 190.268 88.6219 189.732 87.5582C189.582 87.3105 189.444 87.0385 189.293 86.7665C189.293 86.7665 189.293 86.7665 189.293 86.7624L188.766 86.0073L188.49 85.6094C188.49 85.6094 188.49 85.6094 188.49 85.6053L188.173 85.244C187.958 85.0004 187.738 84.7406 187.511 84.4726L187.45 84.4036C187.235 84.1478 187.263 83.7702 187.519 83.551C187.653 83.4373 187.828 83.3926 187.99 83.4129C188.356 83.4617 188.729 83.5144 189.107 83.5875C189.293 83.6241 189.488 83.6565 189.675 83.7012C189.675 83.7012 189.675 83.7012 189.679 83.7012L190.219 83.8839C190.584 84.0098 190.954 84.1478 191.319 84.3061C191.664 84.4888 192.018 84.6715 192.363 84.8745C192.724 85.0654 193.029 85.313 193.357 85.5485C193.682 85.788 194.011 86.0357 194.291 86.3199C194.579 86.596 194.876 86.8802 195.164 87.1725C195.428 87.4729 195.684 87.7856 195.944 88.1022C196.93 89.3852 197.734 90.8062 198.274 92.3003C198.546 93.0473 198.765 93.8106 198.912 94.5942C198.993 94.9839 199.037 95.3818 199.086 95.7838C199.106 95.9827 199.115 96.1938 199.127 96.4009C199.135 96.4983 199.131 96.6201 199.135 96.7297V96.8962V96.9733C199.09 98.8288 197.673 100.437 195.822 100.53C194.352 100.607 193.077 99.7788 192.485 98.5649L192.448 98.4918C192.31 98.2604 192.164 97.7935 192.03 97.3103Z" fill="white"/>
<path d="M201.339 96.677C202.196 96.677 202.89 95.9827 202.89 95.1261C202.89 94.2696 202.196 93.5752 201.339 93.5752C200.483 93.5752 199.788 94.2696 199.788 95.1261C199.788 95.9827 200.483 96.677 201.339 96.677Z" fill="white"/>
<path d="M200.117 92.0447C200.75 92.0447 201.262 91.5321 201.262 90.8998C201.262 90.2675 200.75 89.7549 200.117 89.7549C199.485 89.7549 198.972 90.2675 198.972 90.8998C198.972 91.5321 199.485 92.0447 200.117 92.0447Z" fill="white"/>
<path d="M197.994 88.8089C198.608 88.8089 199.106 88.3108 199.106 87.6964C199.106 87.082 198.608 86.584 197.994 86.584C197.38 86.584 196.881 87.082 196.881 87.6964C196.881 88.3108 197.38 88.8089 197.994 88.8089Z" fill="white"/>
<path d="M195.578 86.0766C196.051 86.0766 196.435 85.6931 196.435 85.2199C196.435 84.7468 196.051 84.3633 195.578 84.3633C195.105 84.3633 194.722 84.7468 194.722 85.2199C194.722 85.6931 195.105 86.0766 195.578 86.0766Z" fill="white"/>
<path d="M190.913 116.218C190.857 115.288 190.877 114.354 190.974 113.428L191.027 112.933C191.124 111.829 191.206 110.716 191.185 109.592C191.177 108.455 190.999 107.355 190.694 106.202C190.601 105.926 190.52 105.633 190.43 105.337C190.43 105.337 190.43 105.337 190.43 105.333L190.069 104.484L189.882 104.038C189.882 104.038 189.882 104.038 189.882 104.034L189.647 103.615C189.484 103.335 189.326 103.031 189.159 102.722L189.115 102.641C188.956 102.349 189.066 101.979 189.358 101.821C189.513 101.736 189.691 101.728 189.846 101.784C190.191 101.906 190.548 102.036 190.901 102.186C191.076 102.259 191.258 102.332 191.433 102.414C191.433 102.414 191.433 102.414 191.437 102.414L191.928 102.706C192.261 102.905 192.594 103.116 192.915 103.347C193.211 103.595 193.524 103.847 193.816 104.119C194.129 104.379 194.377 104.687 194.649 104.988C194.917 105.288 195.189 105.601 195.404 105.938C195.627 106.271 195.863 106.608 196.082 106.953C196.277 107.302 196.459 107.663 196.65 108.025C197.348 109.482 197.836 111.041 198.059 112.616C198.169 113.404 198.225 114.196 198.209 114.992C198.209 115.389 198.169 115.787 198.132 116.189C198.108 116.388 198.075 116.599 198.043 116.802C198.031 116.9 198.002 117.018 197.982 117.123L197.949 117.285L197.933 117.363C197.507 119.165 195.785 120.444 193.954 120.156C192.501 119.924 191.425 118.853 191.1 117.541L191.08 117.464C190.995 117.204 190.946 116.717 190.913 116.218Z" fill="white"/>
<path d="M200.479 117.566C201.335 117.566 202.03 116.871 202.03 116.015C202.03 115.158 201.335 114.464 200.479 114.464C199.622 114.464 198.928 115.158 198.928 116.015C198.928 116.871 199.622 117.566 200.479 117.566Z" fill="white"/>
<path d="M200.158 112.77C200.79 112.77 201.303 112.258 201.303 111.625C201.303 110.993 200.79 110.48 200.158 110.48C199.526 110.48 199.013 110.993 199.013 111.625C199.013 112.258 199.526 112.77 200.158 112.77Z" fill="white"/>
<path d="M198.749 109.161C199.364 109.161 199.862 108.663 199.862 108.049C199.862 107.435 199.364 106.937 198.749 106.937C198.135 106.937 197.637 107.435 197.637 108.049C197.637 108.663 198.135 109.161 198.749 109.161Z" fill="white"/>
<path d="M196.902 105.983C197.375 105.983 197.758 105.599 197.758 105.126C197.758 104.653 197.375 104.27 196.902 104.27C196.429 104.27 196.045 104.653 196.045 105.126C196.045 105.599 196.429 105.983 196.902 105.983Z" fill="white"/>
<path d="M185.895 134.476C186.029 133.554 186.248 132.649 186.533 131.76L186.687 131.284C187.012 130.225 187.324 129.153 187.535 128.049C187.763 126.936 187.816 125.82 187.759 124.63C187.722 124.342 187.706 124.037 187.682 123.729C187.682 123.729 187.682 123.729 187.682 123.725L187.507 122.819L187.414 122.344C187.414 122.344 187.414 122.344 187.414 122.34L187.272 121.882C187.17 121.573 187.081 121.244 186.979 120.907L186.955 120.818C186.862 120.497 187.044 120.16 187.365 120.067C187.535 120.018 187.71 120.046 187.852 120.132C188.165 120.323 188.486 120.526 188.802 120.745C188.961 120.854 189.123 120.964 189.277 121.078C189.277 121.078 189.277 121.078 189.281 121.078L189.699 121.467C189.984 121.731 190.264 122.007 190.532 122.3C190.771 122.604 191.023 122.917 191.254 123.242C191.506 123.562 191.685 123.912 191.888 124.265C192.087 124.614 192.286 124.979 192.428 125.349C192.578 125.718 192.736 126.1 192.878 126.482C192.996 126.863 193.102 127.253 193.211 127.647C193.593 129.218 193.747 130.842 193.634 132.429C193.577 133.225 193.467 134.009 193.284 134.784C193.203 135.174 193.077 135.556 192.96 135.941C192.895 136.132 192.818 136.327 192.744 136.522C192.712 136.615 192.659 136.721 192.619 136.822L192.55 136.977L192.517 137.046C191.721 138.722 189.773 139.616 188.043 138.95C186.671 138.422 185.838 137.147 185.794 135.795L185.79 135.714C185.769 135.458 185.822 134.971 185.895 134.476Z" fill="white"/>
<path d="M195.294 137.817C196.151 137.817 196.845 137.122 196.845 136.266C196.845 135.409 196.151 134.715 195.294 134.715C194.438 134.715 193.743 135.409 193.743 136.266C193.743 137.122 194.438 137.817 195.294 137.817Z" fill="white"/>
<path d="M195.891 133.051C196.523 133.051 197.036 132.538 197.036 131.906C197.036 131.273 196.523 130.761 195.891 130.761C195.259 130.761 194.746 131.273 194.746 131.906C194.746 132.538 195.259 133.051 195.891 133.051Z" fill="white"/>
<path d="M195.258 129.23C195.872 129.23 196.37 128.732 196.37 128.117C196.37 127.503 195.872 127.005 195.258 127.005C194.643 127.005 194.145 127.503 194.145 128.117C194.145 128.732 194.643 129.23 195.258 129.23Z" fill="white"/>
<path d="M194.06 125.731C194.533 125.731 194.917 125.347 194.917 124.874C194.917 124.401 194.533 124.018 194.06 124.018C193.587 124.018 193.203 124.401 193.203 124.874C193.203 125.347 193.587 125.731 194.06 125.731Z" fill="white"/>
<path d="M177.191 151.292C177.515 150.419 177.917 149.575 178.38 148.771L178.628 148.34C179.168 147.37 179.696 146.388 180.134 145.352C180.589 144.313 180.873 143.233 181.064 142.056C181.088 141.767 181.137 141.467 181.177 141.158C181.177 141.158 181.177 141.158 181.177 141.154L181.194 140.233L181.202 139.749C181.202 139.749 181.202 139.749 181.202 139.745L181.157 139.266C181.125 138.941 181.104 138.604 181.076 138.251L181.068 138.158C181.043 137.825 181.291 137.537 181.624 137.508C181.799 137.496 181.965 137.561 182.087 137.671C182.355 137.922 182.627 138.186 182.887 138.466C183.017 138.604 183.155 138.747 183.281 138.893C183.281 138.893 183.281 138.893 183.281 138.897L183.609 139.364C183.833 139.68 184.052 140.009 184.251 140.35C184.421 140.699 184.6 141.057 184.758 141.422C184.937 141.788 185.039 142.169 185.164 142.555C185.286 142.941 185.408 143.334 185.465 143.728C185.534 144.122 185.611 144.524 185.672 144.93C185.672 144.93 185.672 144.93 185.672 144.934C185.708 145.332 185.729 145.738 185.753 146.144C185.798 147.76 185.611 149.38 185.173 150.91C184.953 151.674 184.681 152.421 184.34 153.139C184.178 153.501 183.979 153.85 183.784 154.203C183.682 154.378 183.565 154.552 183.455 154.727C183.402 154.812 183.329 154.905 183.268 154.995L183.171 155.129L183.122 155.19C181.998 156.663 179.907 157.13 178.352 156.119C177.117 155.315 176.569 153.899 176.809 152.567L176.821 152.486C176.862 152.226 177.016 151.763 177.191 151.292Z" fill="white"/>
<path d="M186.009 156.55C186.865 156.55 187.56 155.856 187.56 154.999C187.56 154.143 186.865 153.448 186.009 153.448C185.152 153.448 184.458 154.143 184.458 154.999C184.458 155.856 185.152 156.55 186.009 156.55Z" fill="white"/>
<path d="M187.503 152.003C188.135 152.003 188.648 151.49 188.648 150.858C188.648 150.225 188.135 149.713 187.503 149.713C186.871 149.713 186.358 150.225 186.358 150.858C186.358 151.49 186.871 152.003 187.503 152.003Z" fill="white"/>
<path d="M187.669 148.129C188.284 148.129 188.782 147.631 188.782 147.017C188.782 146.402 188.284 145.904 187.669 145.904C187.055 145.904 186.557 146.402 186.557 147.017C186.557 147.631 187.055 148.129 187.669 148.129Z" fill="white"/>
<path d="M187.17 144.451C187.643 144.451 188.027 144.067 188.027 143.594C188.027 143.121 187.643 142.737 187.17 142.737C186.697 142.737 186.313 143.121 186.313 143.594C186.313 144.067 186.697 144.451 187.17 144.451Z" fill="white"/>
<path d="M165.177 165.932C165.676 165.144 166.245 164.405 166.866 163.711L167.199 163.342C167.93 162.505 168.648 161.653 169.294 160.731C169.956 159.81 170.455 158.811 170.889 157.702C170.975 157.426 171.084 157.142 171.186 156.85C171.186 156.85 171.186 156.85 171.186 156.846L171.393 155.948L171.503 155.478C171.503 155.478 171.503 155.478 171.503 155.473L171.555 154.998C171.592 154.674 171.641 154.337 171.685 153.987L171.697 153.898C171.742 153.569 172.047 153.334 172.375 153.378C172.55 153.403 172.7 153.5 172.794 153.634C173.001 153.935 173.216 154.251 173.411 154.58C173.512 154.743 173.614 154.909 173.707 155.08C173.707 155.08 173.707 155.08 173.707 155.084L173.934 155.611C174.085 155.969 174.231 156.334 174.357 156.712C174.45 157.089 174.552 157.475 174.633 157.869C174.734 158.267 174.751 158.656 174.795 159.058C174.836 159.46 174.868 159.87 174.848 160.268C174.836 160.67 174.824 161.076 174.799 161.486C174.799 161.486 174.799 161.486 174.799 161.49C174.751 161.888 174.69 162.286 174.629 162.692C174.336 164.284 173.817 165.831 173.07 167.235C172.696 167.938 172.278 168.612 171.795 169.245C171.563 169.566 171.291 169.866 171.028 170.171C170.894 170.321 170.739 170.467 170.597 170.613C170.528 170.686 170.439 170.763 170.358 170.836L170.232 170.95L170.171 171.003C168.762 172.213 166.618 172.233 165.311 170.922C164.272 169.878 164.032 168.38 164.54 167.126L164.568 167.049C164.661 166.776 164.909 166.354 165.177 165.932Z" fill="white"/>
<path d="M173.033 172.94C173.89 172.94 174.584 172.245 174.584 171.389C174.584 170.532 173.89 169.838 173.033 169.838C172.177 169.838 171.482 170.532 171.482 171.389C171.482 172.245 172.177 172.94 173.033 172.94Z" fill="white"/>
<path d="M175.355 168.795C175.988 168.795 176.5 168.282 176.5 167.65C176.5 167.017 175.988 166.505 175.355 166.505C174.723 166.505 174.211 167.017 174.211 167.65C174.211 168.282 174.723 168.795 175.355 168.795Z" fill="white"/>
<path d="M176.318 165.043C176.932 165.043 177.43 164.545 177.43 163.931C177.43 163.316 176.932 162.818 176.318 162.818C175.703 162.818 175.205 163.316 175.205 163.931C175.205 164.545 175.703 165.043 176.318 165.043Z" fill="white"/>
<path d="M176.541 161.336C177.014 161.336 177.398 160.953 177.398 160.48C177.398 160.007 177.014 159.623 176.541 159.623C176.068 159.623 175.684 160.007 175.684 160.48C175.684 160.953 176.068 161.336 176.541 161.336Z" fill="white"/>
<path d="M150.382 177.755C151.032 177.089 151.742 176.484 152.494 175.932L152.895 175.64C153.785 174.974 154.666 174.292 155.486 173.52C156.326 172.753 157.02 171.884 157.678 170.889C157.82 170.638 157.983 170.382 158.145 170.114C158.145 170.114 158.145 170.114 158.145 170.11L158.535 169.274L158.738 168.835C158.738 168.835 158.738 168.835 158.738 168.831L158.892 168.376C158.994 168.068 159.111 167.747 159.229 167.418L159.262 167.333C159.375 167.02 159.72 166.854 160.033 166.967C160.199 167.028 160.325 167.154 160.39 167.304C160.532 167.645 160.674 167.995 160.796 168.356C160.861 168.535 160.926 168.721 160.983 168.904C160.983 168.904 160.983 168.904 160.983 168.908L161.093 169.468C161.166 169.85 161.235 170.24 161.279 170.63C161.279 170.63 161.279 170.63 161.279 170.634C161.296 171.023 161.312 171.421 161.308 171.819C161.324 172.229 161.259 172.615 161.218 173.017C161.174 173.419 161.121 173.829 161.015 174.21C160.918 174.6 160.825 174.998 160.715 175.392C160.585 175.77 160.443 176.147 160.297 176.533C159.68 178.027 158.851 179.432 157.828 180.65C157.317 181.259 156.765 181.831 156.164 182.351C155.867 182.615 155.543 182.854 155.222 183.098C155.059 183.216 154.881 183.329 154.706 183.443C154.625 183.5 154.519 183.557 154.426 183.613L154.28 183.699L154.211 183.735C152.583 184.624 150.48 184.202 149.473 182.643C148.673 181.409 148.75 179.89 149.505 178.77L149.55 178.701C149.704 178.473 150.033 178.112 150.382 177.755Z" fill="white"/>
<path d="M156.935 186.277C157.792 186.277 158.486 185.582 158.486 184.726C158.486 183.869 157.792 183.175 156.935 183.175C156.079 183.175 155.384 183.869 155.384 184.726C155.384 185.582 156.079 186.277 156.935 186.277Z" fill="white"/>
<path d="M159.98 182.696C160.612 182.696 161.125 182.183 161.125 181.551C161.125 180.919 160.612 180.406 159.98 180.406C159.348 180.406 158.835 180.919 158.835 181.551C158.835 182.183 159.348 182.696 159.98 182.696Z" fill="white"/>
<path d="M161.694 179.225C162.308 179.225 162.806 178.727 162.806 178.112C162.806 177.498 162.308 177 161.694 177C161.079 177 160.581 177.498 160.581 178.112C160.581 178.727 161.079 179.225 161.694 179.225Z" fill="white"/>
<path d="M162.631 175.64C163.104 175.64 163.488 175.257 163.488 174.783C163.488 174.31 163.104 173.927 162.631 173.927C162.158 173.927 161.775 174.31 161.775 174.783C161.775 175.257 162.158 175.64 162.631 175.64Z" fill="white"/>
<path d="M133.456 186.24C134.232 185.725 135.052 185.278 135.9 184.896L136.355 184.693C137.362 184.226 138.365 183.739 139.331 183.159C140.31 182.586 141.174 181.876 142.023 181.039C142.214 180.82 142.429 180.605 142.64 180.378L143.196 179.639L143.489 179.253C143.489 179.253 143.489 179.253 143.489 179.249L143.732 178.835C143.895 178.555 144.077 178.266 144.264 177.966L144.313 177.889C144.487 177.605 144.861 177.515 145.145 177.69C145.295 177.783 145.393 177.933 145.421 178.092C145.49 178.453 145.555 178.827 145.6 179.204C145.624 179.395 145.652 179.586 145.669 179.781C145.669 179.781 145.669 179.781 145.669 179.785L145.661 180.357C145.652 180.743 145.636 181.141 145.6 181.535C145.535 181.916 145.47 182.31 145.38 182.7C145.311 183.102 145.169 183.467 145.043 183.853C144.918 184.235 144.78 184.628 144.597 184.982C144.422 185.343 144.248 185.712 144.057 186.074C143.85 186.419 143.631 186.756 143.411 187.101C142.498 188.437 141.394 189.638 140.139 190.617C139.514 191.108 138.856 191.551 138.158 191.932C137.813 192.131 137.447 192.294 137.082 192.464C136.899 192.545 136.7 192.618 136.509 192.696C136.416 192.736 136.302 192.769 136.201 192.801L136.042 192.854L135.969 192.878C134.191 193.41 132.226 192.558 131.56 190.828C131.032 189.452 131.426 187.986 132.397 187.048L132.453 186.991C132.64 186.805 133.038 186.52 133.456 186.24Z" fill="white"/>
<path d="M138.413 195.972C139.27 195.972 139.964 195.278 139.964 194.421C139.964 193.564 139.27 192.87 138.413 192.87C137.557 192.87 136.863 193.564 136.863 194.421C136.863 195.278 137.557 195.972 138.413 195.972Z" fill="white"/>
<path d="M142.051 193.097C142.684 193.097 143.196 192.585 143.196 191.953C143.196 191.32 142.684 190.808 142.051 190.808C141.419 190.808 140.906 191.32 140.906 191.953C140.906 192.585 141.419 193.097 142.051 193.097Z" fill="white"/>
<path d="M144.447 190.057C145.061 190.057 145.559 189.559 145.559 188.944C145.559 188.33 145.061 187.832 144.447 187.832C143.832 187.832 143.334 188.33 143.334 188.944C143.334 189.559 143.832 190.057 144.447 190.057Z" fill="white"/>
<path d="M146.054 186.74C146.528 186.74 146.911 186.356 146.911 185.883C146.911 185.41 146.528 185.026 146.054 185.026C145.581 185.026 145.198 185.41 145.198 185.883C145.198 186.356 145.581 186.74 146.054 186.74Z" fill="white"/>
<path d="M115.133 191.023C115.998 190.678 116.895 190.414 117.805 190.219L118.292 190.114C119.372 189.866 120.456 189.598 121.52 189.233C122.6 188.875 123.59 188.364 124.593 187.718C124.825 187.544 125.08 187.377 125.336 187.203C125.336 187.203 125.336 187.203 125.34 187.203L126.039 186.598L126.404 186.281L126.729 185.928C126.948 185.688 127.188 185.445 127.427 185.189L127.492 185.124C127.723 184.88 128.105 184.872 128.345 185.104C128.475 185.225 128.535 185.392 128.531 185.554C128.523 185.92 128.511 186.301 128.475 186.683C128.458 186.874 128.446 187.069 128.422 187.26C128.422 187.26 128.422 187.26 128.422 187.264L128.296 187.824C128.207 188.201 128.113 188.583 127.991 188.961C127.845 189.322 127.703 189.691 127.533 190.057C127.382 190.434 127.167 190.763 126.964 191.117C126.761 191.466 126.546 191.819 126.294 192.127C126.047 192.444 125.799 192.769 125.539 193.086C125.267 193.378 124.983 193.666 124.695 193.959C123.525 195.075 122.194 196.021 120.765 196.715C120.05 197.064 119.315 197.361 118.552 197.588C118.174 197.71 117.781 197.795 117.387 197.885C117.188 197.925 116.981 197.954 116.778 197.99C116.68 198.01 116.563 198.019 116.453 198.031L116.286 198.047L116.209 198.055C114.362 198.205 112.612 196.963 112.324 195.132C112.097 193.678 112.783 192.322 113.928 191.608L113.997 191.563C114.22 191.405 114.666 191.21 115.133 191.023Z" fill="white"/>
<path d="M118.28 201.608C119.136 201.608 119.831 200.913 119.831 200.057C119.831 199.2 119.136 198.506 118.28 198.506C117.423 198.506 116.729 199.2 116.729 200.057C116.729 200.913 117.423 201.608 118.28 201.608Z" fill="white"/>
<path d="M122.356 199.541C122.988 199.541 123.501 199.028 123.501 198.396C123.501 197.764 122.988 197.251 122.356 197.251C121.724 197.251 121.211 197.764 121.211 198.396C121.211 199.028 121.724 199.541 122.356 199.541Z" fill="white"/>
<path d="M125.32 197.065C125.934 197.065 126.432 196.567 126.432 195.952C126.432 195.338 125.934 194.84 125.32 194.84C124.706 194.84 124.208 195.338 124.208 195.952C124.208 196.567 124.706 197.065 125.32 197.065Z" fill="white"/>
<path d="M127.533 194.15C128.006 194.15 128.389 193.766 128.389 193.293C128.389 192.82 128.006 192.437 127.533 192.437C127.06 192.437 126.676 192.82 126.676 193.293C126.676 193.766 127.06 194.15 127.533 194.15Z" fill="white"/>
<path d="M96.218 191.892C97.1355 191.738 98.0653 191.661 98.9991 191.661H99.4984C100.607 191.645 101.723 191.608 102.84 191.47C103.968 191.344 105.044 191.048 106.161 190.63C106.425 190.508 106.709 190.398 106.993 190.276C106.993 190.276 106.993 190.276 106.997 190.276L107.805 189.83L108.227 189.594C108.227 189.594 108.227 189.594 108.231 189.594L108.621 189.314C108.885 189.123 109.169 188.937 109.458 188.738L109.535 188.685C109.811 188.498 110.184 188.567 110.375 188.843C110.477 188.989 110.501 189.164 110.464 189.326C110.379 189.684 110.29 190.053 110.176 190.418C110.123 190.601 110.067 190.788 110.006 190.971C110.006 190.971 110.006 190.971 110.006 190.975L109.766 191.494C109.604 191.844 109.429 192.201 109.23 192.546C109.015 192.867 108.796 193.204 108.556 193.524C108.329 193.865 108.049 194.142 107.781 194.442C107.509 194.738 107.225 195.043 106.916 195.29C106.612 195.55 106.299 195.814 105.978 196.07C105.649 196.301 105.312 196.521 104.971 196.748C103.595 197.597 102.097 198.246 100.554 198.628C99.7826 198.819 98.9991 198.961 98.2074 199.022C97.8135 199.062 97.4116 199.062 97.0056 199.07C96.8026 199.07 96.5915 199.054 96.3885 199.046C96.287 199.042 96.1733 199.03 96.0637 199.018L95.8972 199.001L95.8201 198.993C93.9809 198.758 92.5274 197.178 92.6289 195.327C92.7061 193.857 93.6602 192.676 94.9309 192.213L95.0081 192.185C95.2436 192.075 95.7226 191.978 96.218 191.892Z" fill="white"/>
<path d="M97.4197 202.936C98.2762 202.936 98.9706 202.241 98.9706 201.385C98.9706 200.528 98.2762 199.834 97.4197 199.834C96.5631 199.834 95.8688 200.528 95.8688 201.385C95.8688 202.241 96.5631 202.936 97.4197 202.936Z" fill="white"/>
<path d="M101.748 201.75C102.38 201.75 102.893 201.237 102.893 200.605C102.893 199.973 102.38 199.46 101.748 199.46C101.115 199.46 100.603 199.973 100.603 200.605C100.603 201.237 101.115 201.75 101.748 201.75Z" fill="white"/>
<path d="M105.158 199.944C105.772 199.944 106.271 199.446 106.271 198.831C106.271 198.217 105.772 197.719 105.158 197.719C104.544 197.719 104.046 198.217 104.046 198.831C104.046 199.446 104.544 199.944 105.158 199.944Z" fill="white"/>
<path d="M107.874 197.548C108.347 197.548 108.731 197.165 108.731 196.692C108.731 196.218 108.347 195.835 107.874 195.835C107.401 195.835 107.018 196.218 107.018 196.692C107.018 197.165 107.401 197.548 107.874 197.548Z" fill="white"/>
<path d="M77.5338 188.81C78.4635 188.851 79.3892 188.969 80.3027 189.159L80.7899 189.261C81.878 189.476 82.9742 189.671 84.0988 189.768C85.2275 189.882 86.344 189.813 87.5214 189.634C87.8056 189.569 88.106 189.521 88.4105 189.464C88.4105 189.464 88.4105 189.464 88.4146 189.464L89.2956 189.196L89.7585 189.054C89.7585 189.054 89.7585 189.054 89.7625 189.054L90.201 188.863C90.4974 188.733 90.8141 188.607 91.1389 188.473L91.2241 188.437C91.5327 188.311 91.8859 188.457 92.0118 188.766C92.0808 188.928 92.0686 189.107 91.9996 189.257C91.8412 189.59 91.6748 189.931 91.4921 190.264C91.3987 190.43 91.3094 190.605 91.2079 190.771C91.2079 190.771 91.2079 190.771 91.2079 190.775L90.8668 191.234C90.6354 191.543 90.3878 191.855 90.1279 192.152C89.8478 192.424 89.5676 192.704 89.2631 192.968C88.9708 193.252 88.642 193.463 88.3131 193.703C87.9842 193.938 87.6473 194.174 87.29 194.352C86.9368 194.543 86.5754 194.738 86.21 194.921C85.8406 195.079 85.463 195.225 85.0854 195.371C83.5629 195.915 81.9633 196.236 80.3717 196.293C79.576 196.321 78.7843 196.293 77.9926 196.191C77.5988 196.151 77.2049 196.065 76.8071 195.992C76.6122 195.948 76.4051 195.891 76.2062 195.842C76.1087 195.818 75.9991 195.777 75.8936 195.749L75.7352 195.696L75.6621 195.672C73.9123 195.059 72.8201 193.211 73.3033 191.421C73.6849 190 74.8664 189.042 76.2021 188.855L76.2833 188.843C76.5432 188.786 77.0304 188.79 77.5338 188.81Z" fill="white"/>
<path d="M76.734 199.894C77.5906 199.894 78.285 199.199 78.285 198.343C78.285 197.486 77.5906 196.792 76.734 196.792C75.8775 196.792 75.1831 197.486 75.1831 198.343C75.1831 199.199 75.8775 199.894 76.734 199.894Z" fill="white"/>
<path d="M81.131 199.626C81.7633 199.626 82.2759 199.113 82.2759 198.481C82.2759 197.849 81.7633 197.336 81.131 197.336C80.4987 197.336 79.9861 197.849 79.9861 198.481C79.9861 199.113 80.4987 199.626 81.131 199.626Z" fill="white"/>
<path d="M84.8336 198.567C85.448 198.567 85.9461 198.069 85.9461 197.454C85.9461 196.84 85.448 196.342 84.8336 196.342C84.2192 196.342 83.7212 196.84 83.7212 197.454C83.7212 198.069 84.2192 198.567 84.8336 198.567Z" fill="white"/>
<path d="M87.9355 196.78C88.4086 196.78 88.7922 196.396 88.7922 195.923C88.7922 195.45 88.4086 195.066 87.9355 195.066C87.4624 195.066 87.0789 195.45 87.0789 195.923C87.0789 196.396 87.4624 196.78 87.9355 196.78Z" fill="white"/>
<path d="M59.8972 181.908C60.7985 182.14 61.6795 182.448 62.5321 182.826L62.9868 183.029C64.0059 183.463 65.0412 183.885 66.1171 184.214C67.2011 184.559 68.3014 184.726 69.4909 184.795C69.7792 184.791 70.0837 184.807 70.3963 184.811C70.3963 184.811 70.3963 184.811 70.4004 184.811L71.3179 184.73L71.8011 184.689C71.8011 184.689 71.8011 184.689 71.8051 184.689L72.2761 184.596C72.5928 184.531 72.9298 184.474 73.2749 184.409L73.3642 184.393C73.693 184.332 74.0057 184.551 74.0666 184.876C74.099 185.051 74.0503 185.221 73.9529 185.351C73.7296 185.643 73.4982 185.94 73.2464 186.232C73.1206 186.378 72.9988 186.529 72.8648 186.671L72.4344 187.048C72.1421 187.3 71.8376 187.556 71.5209 187.791C71.1921 187.998 70.8551 188.213 70.5059 188.408C70.1608 188.628 69.7954 188.766 69.4219 188.932C69.0525 189.094 68.6708 189.257 68.2851 189.354C67.8994 189.468 67.5097 189.582 67.1118 189.683C66.718 189.76 66.3201 189.825 65.9181 189.89C64.3144 190.105 62.6823 190.089 61.1152 189.813C60.3316 189.675 59.5602 189.484 58.8091 189.22C58.4315 189.098 58.0661 188.936 57.6926 188.778C57.5099 188.697 57.3231 188.595 57.1364 188.506C57.047 188.465 56.9455 188.4 56.8481 188.347L56.7019 188.262L56.637 188.222C55.0536 187.255 54.3674 185.225 55.2119 183.573C55.8818 182.261 57.2338 181.571 58.5817 181.665L58.6629 181.669C58.9349 181.681 59.41 181.786 59.8972 181.908Z" fill="white"/>
<path d="M57.1364 192.618C57.9929 192.618 58.6873 191.924 58.6873 191.068C58.6873 190.211 57.9929 189.517 57.1364 189.517C56.2798 189.517 55.5854 190.211 55.5854 191.068C55.5854 191.924 56.2798 192.618 57.1364 192.618Z" fill="white"/>
<path d="M61.4075 193.264C62.0398 193.264 62.5524 192.752 62.5524 192.12C62.5524 191.487 62.0398 190.975 61.4075 190.975C60.7752 190.975 60.2626 191.487 60.2626 192.12C60.2626 192.752 60.7752 193.264 61.4075 193.264Z" fill="white"/>
<path d="M65.2441 192.996C65.8585 192.996 66.3566 192.498 66.3566 191.884C66.3566 191.27 65.8585 190.771 65.2441 190.771C64.6298 190.771 64.1317 191.27 64.1317 191.884C64.1317 192.498 64.6298 192.996 65.2441 192.996Z" fill="white"/>
<path d="M68.5937 191.888C69.0668 191.888 69.4504 191.505 69.4504 191.031C69.4504 190.558 69.0668 190.175 68.5937 190.175C68.1206 190.175 67.7371 190.558 67.7371 191.031C67.7371 191.505 68.1206 191.888 68.5937 191.888Z" fill="white"/>
<path d="M44.0834 171.495C44.9157 171.909 45.7155 172.396 46.4666 172.94L46.8686 173.232C47.778 173.87 48.6996 174.495 49.6862 175.043C50.6728 175.603 51.7162 175.997 52.8652 176.314C53.1494 176.371 53.4417 176.448 53.7462 176.521C53.7462 176.521 53.7462 176.521 53.7503 176.521L54.6678 176.634L55.1469 176.695C55.1469 176.695 55.1469 176.695 55.151 176.695L55.6301 176.699C55.9549 176.699 56.2959 176.716 56.6491 176.724L56.7425 176.728C57.0754 176.736 57.3393 177.016 57.3312 177.349C57.3271 177.528 57.2459 177.686 57.1201 177.792C56.8399 178.031 56.5517 178.275 56.2472 178.506C56.097 178.624 55.9427 178.742 55.7843 178.855C55.7843 178.855 55.7843 178.855 55.7803 178.855L55.2809 179.135C54.9439 179.322 54.5907 179.505 54.2334 179.671C53.868 179.805 53.4945 179.947 53.1129 180.065C52.7312 180.207 52.3415 180.268 51.9476 180.349C51.5538 180.431 51.1478 180.508 50.7499 180.528C50.348 180.556 49.942 180.589 49.5319 180.609C49.5319 180.609 49.5319 180.609 49.5279 180.609C49.1259 180.601 48.724 180.581 48.3139 180.565C46.7021 180.443 45.1106 180.085 43.6328 179.489C42.8938 179.192 42.1833 178.843 41.5013 178.429C41.1562 178.23 40.8314 177.995 40.5025 177.763C40.3401 177.645 40.1777 177.507 40.0153 177.382C39.9341 177.321 39.8488 177.239 39.7676 177.166L39.6418 177.053L39.5849 177C38.237 175.725 37.9894 173.598 39.1586 172.156C40.0843 171.011 41.554 170.618 42.8532 170.991L42.9304 171.011C43.1862 171.068 43.6328 171.271 44.0834 171.495Z" fill="white"/>
<path d="M39.4754 181.429C40.3319 181.429 41.0263 180.735 41.0263 179.878C41.0263 179.022 40.3319 178.327 39.4754 178.327C38.6188 178.327 37.9244 179.022 37.9244 179.878C37.9244 180.735 38.6188 181.429 39.4754 181.429Z" fill="white"/>
<path d="M43.4339 182.939C44.0662 182.939 44.5788 182.427 44.5788 181.794C44.5788 181.162 44.0662 180.649 43.4339 180.649C42.8015 180.649 42.2889 181.162 42.2889 181.794C42.2889 182.427 42.8015 182.939 43.4339 182.939Z" fill="white"/>
<path d="M47.238 183.476C47.8524 183.476 48.3505 182.978 48.3505 182.363C48.3505 181.749 47.8524 181.251 47.238 181.251C46.6237 181.251 46.1256 181.749 46.1256 182.363C46.1256 182.978 46.6237 183.476 47.238 183.476Z" fill="white"/>
<path d="M50.6931 183.081C51.1662 183.081 51.5497 182.698 51.5497 182.225C51.5497 181.752 51.1662 181.368 50.6931 181.368C50.22 181.368 49.8364 181.752 49.8364 182.225C49.8364 182.698 50.22 183.081 50.6931 183.081Z" fill="white"/>
<path d="M30.7788 158.015C31.5096 158.592 32.1876 159.233 32.8129 159.927L33.1458 160.297C33.901 161.109 34.6724 161.913 35.525 162.652C36.3735 163.407 37.3154 164.008 38.371 164.556C38.639 164.669 38.9069 164.808 39.1911 164.937C39.1911 164.937 39.1911 164.937 39.1952 164.937L40.0681 165.238L40.5228 165.396C40.5228 165.396 40.5228 165.396 40.5269 165.396L40.9938 165.502C41.3105 165.571 41.6434 165.656 41.9844 165.737L42.0737 165.758C42.3985 165.835 42.5975 166.164 42.5203 166.488C42.4797 166.659 42.3661 166.797 42.224 166.878C41.9032 167.053 41.5662 167.231 41.2211 167.394C41.0466 167.475 40.872 167.56 40.6933 167.637C40.6933 167.637 40.6933 167.637 40.6893 167.637L40.1412 167.808C39.7717 167.922 39.3901 168.027 39.0044 168.112C38.6187 168.169 38.2249 168.23 37.827 168.267C37.421 168.323 37.0312 168.303 36.6252 168.303C36.2233 168.299 35.8092 168.291 35.4153 168.226C35.0175 168.173 34.6115 168.116 34.2095 168.051C33.8198 167.962 33.43 167.857 33.0321 167.755C31.4812 167.3 29.9952 166.618 28.6798 165.729C28.0221 165.283 27.3928 164.795 26.8163 164.251C26.5199 163.987 26.2519 163.687 25.9758 163.395C25.8419 163.244 25.7119 163.078 25.578 162.92C25.513 162.842 25.448 162.745 25.379 162.66L25.2816 162.526L25.2369 162.461C24.1813 160.934 24.3843 158.803 25.8256 157.633C26.9705 156.708 28.489 156.627 29.6826 157.26L29.7557 157.297C29.9912 157.414 30.385 157.707 30.7788 158.015Z" fill="white"/>
<path d="M24.5305 166.809C25.3871 166.809 26.0815 166.115 26.0815 165.258C26.0815 164.401 25.3871 163.707 24.5305 163.707C23.674 163.707 22.9796 164.401 22.9796 165.258C22.9796 166.115 23.674 166.809 24.5305 166.809Z" fill="white"/>
<path d="M28.0059 169.103C28.6382 169.103 29.1508 168.591 29.1508 167.958C29.1508 167.326 28.6382 166.813 28.0059 166.813C27.3736 166.813 26.861 167.326 26.861 167.958C26.861 168.591 27.3736 169.103 28.0059 169.103Z" fill="white"/>
<path d="M31.6071 170.414C32.2215 170.414 32.7195 169.916 32.7195 169.302C32.7195 168.688 32.2215 168.189 31.6071 168.189C30.9927 168.189 30.4946 168.688 30.4946 169.302C30.4946 169.916 30.9927 170.414 31.6071 170.414Z" fill="white"/>
<path d="M35.0134 170.744C35.4865 170.744 35.8701 170.36 35.8701 169.887C35.8701 169.414 35.4865 169.03 35.0134 169.03C34.5403 169.03 34.1567 169.414 34.1567 169.887C34.1567 170.36 34.5403 170.744 35.0134 170.744Z" fill="white"/>
<path d="M20.5679 142.068C21.1607 142.786 21.6926 143.553 22.1595 144.357L22.4112 144.788C22.9796 145.742 23.5683 146.688 24.2463 147.585C24.9203 148.499 25.716 149.286 26.6336 150.037C26.8691 150.204 27.1086 150.395 27.3563 150.581C27.3563 150.581 27.3563 150.581 27.3603 150.581L28.152 151.056L28.5661 151.304C28.5661 151.304 28.5661 151.304 28.5702 151.304L29.0046 151.503C29.301 151.637 29.6055 151.787 29.9222 151.941L30.0034 151.982C30.3038 152.124 30.4297 152.485 30.2876 152.786C30.2104 152.944 30.0724 153.058 29.9141 153.103C29.5608 153.208 29.1995 153.314 28.826 153.399C28.6392 153.444 28.4525 153.492 28.2616 153.529C28.2616 153.529 28.2616 153.529 28.2576 153.529L27.6892 153.582C27.3035 153.614 26.9097 153.643 26.5118 153.643C26.5118 153.643 26.5118 153.643 26.5077 153.643C26.122 153.618 25.7201 153.594 25.3222 153.545C24.9162 153.517 24.5346 153.415 24.1407 153.33C23.7469 153.245 23.345 153.151 22.9715 153.005C22.5939 152.871 22.2082 152.733 21.8265 152.583C21.4652 152.412 21.1039 152.23 20.7385 152.051C19.3134 151.284 18.0061 150.309 16.9018 149.164C16.3496 148.592 15.838 147.983 15.3874 147.329C15.156 147.009 14.953 146.659 14.7459 146.314C14.6444 146.14 14.5551 145.949 14.4576 145.766C14.4089 145.677 14.3643 145.567 14.3196 145.47L14.2506 145.316L14.2222 145.242C13.5076 143.529 14.1491 141.487 15.8015 140.642C17.1129 139.977 18.6151 140.212 19.6504 141.081L19.7153 141.13C19.9224 141.316 20.2472 141.682 20.5679 142.068Z" fill="white"/>
<path d="M12.9514 149.404C13.808 149.404 14.5024 148.709 14.5024 147.853C14.5024 146.996 13.808 146.302 12.9514 146.302C12.0949 146.302 11.4005 146.996 11.4005 147.853C11.4005 148.709 12.0949 149.404 12.9514 149.404Z" fill="white"/>
<path d="M15.7893 152.359C16.4217 152.359 16.9342 151.847 16.9342 151.214C16.9342 150.582 16.4217 150.069 15.7893 150.069C15.157 150.069 14.6444 150.582 14.6444 151.214C14.6444 151.847 15.157 152.359 15.7893 152.359Z" fill="white"/>
<path d="M19.0293 154.394C19.6437 154.394 20.1418 153.896 20.1418 153.281C20.1418 152.667 19.6437 152.169 19.0293 152.169C18.4149 152.169 17.9169 152.667 17.9169 153.281C17.9169 153.896 18.4149 154.394 19.0293 154.394Z" fill="white"/>
<path d="M22.2407 155.416C22.7138 155.416 23.0974 155.033 23.0974 154.56C23.0974 154.087 22.7138 153.703 22.2407 153.703C21.7676 153.703 21.384 154.087 21.384 154.56C21.384 155.033 21.7676 155.416 22.2407 155.416Z" fill="white"/>
<path d="M13.8974 124.346C14.3278 125.17 14.6851 126.031 14.9774 126.916L15.1317 127.391C15.493 128.442 15.8706 129.49 16.3456 130.509C16.8125 131.544 17.4296 132.478 18.1726 133.404C18.3716 133.615 18.5624 133.85 18.7654 134.086L19.4393 134.715L19.7926 135.044C19.7926 135.044 19.7926 135.044 19.7966 135.044L20.1823 135.328C20.4462 135.519 20.7101 135.73 20.9903 135.945L21.0633 136.002C21.3272 136.205 21.376 136.587 21.173 136.85C21.0633 136.993 20.905 137.07 20.7426 137.086C20.3772 137.114 19.9996 137.143 19.618 137.147C19.4272 137.151 19.2323 137.159 19.0374 137.155C19.0374 137.155 19.0374 137.155 19.0333 137.155L18.4649 137.086C18.0792 137.037 17.6895 136.98 17.2997 136.903C16.9262 136.798 16.5405 136.692 16.1629 136.562C15.7691 136.453 15.4199 136.27 15.0505 136.107C14.681 135.941 14.3075 135.766 13.9746 135.547C13.6335 135.336 13.2844 135.121 12.9433 134.898C12.6226 134.658 12.31 134.402 11.9892 134.151C10.755 133.103 9.6791 131.877 8.83462 130.529C8.41238 129.855 8.03886 129.153 7.73436 128.418C7.57196 128.057 7.45016 127.675 7.31618 127.293C7.25528 127.102 7.2025 126.895 7.14972 126.696C7.1213 126.599 7.101 126.485 7.07664 126.376L7.0401 126.213L7.02386 126.136C6.68282 124.313 7.73436 122.446 9.52482 121.967C10.9458 121.585 12.3668 122.129 13.1991 123.197L13.2519 123.258C13.4224 123.477 13.662 123.903 13.8974 124.346Z" fill="white"/>
<path d="M5.24147 129.973C6.09802 129.973 6.79239 129.279 6.79239 128.422C6.79239 127.565 6.09802 126.871 5.24147 126.871C4.38492 126.871 3.69055 127.565 3.69055 128.422C3.69055 129.279 4.38492 129.973 5.24147 129.973Z" fill="white"/>
<path d="M7.32021 133.444C7.95254 133.444 8.46513 132.932 8.46513 132.299C8.46513 131.667 7.95254 131.154 7.32021 131.154C6.68789 131.154 6.17529 131.667 6.17529 132.299C6.17529 132.932 6.68789 133.444 7.32021 133.444Z" fill="white"/>
<path d="M10.0607 136.104C10.6751 136.104 11.1731 135.606 11.1731 134.991C11.1731 134.377 10.6751 133.879 10.0607 133.879C9.4463 133.879 8.94824 134.377 8.94824 134.991C8.94824 135.606 9.4463 136.104 10.0607 136.104Z" fill="white"/>
<path d="M12.9352 137.772C13.4083 137.772 13.7918 137.388 13.7918 136.915C13.7918 136.442 13.4083 136.059 12.9352 136.059C12.462 136.059 12.0785 136.442 12.0785 136.915C12.0785 137.388 12.462 137.772 12.9352 137.772Z" fill="white"/>
<path d="M11.0553 105.625C11.307 106.522 11.4776 107.44 11.575 108.365L11.6278 108.861C11.7618 109.961 11.912 111.065 12.1678 112.166C12.4114 113.274 12.8174 114.313 13.3533 115.377C13.5035 115.625 13.6415 115.897 13.7918 116.169C13.7918 116.169 13.7918 116.169 13.7918 116.173L14.3196 116.928L14.5956 117.326C14.5956 117.326 14.5956 117.326 14.5956 117.33L14.9123 117.691C15.1275 117.935 15.3467 118.195 15.5741 118.463L15.635 118.532C15.8502 118.787 15.8218 119.165 15.566 119.384C15.432 119.498 15.2574 119.543 15.095 119.522C14.7296 119.474 14.3561 119.421 13.9785 119.348C13.7918 119.311 13.5969 119.279 13.4101 119.234C13.4101 119.234 13.4101 119.234 13.4061 119.234L12.8661 119.051C12.5007 118.926 12.1312 118.787 11.7658 118.629C11.4207 118.446 11.0675 118.264 10.7224 118.061C10.3611 117.87 10.0566 117.622 9.7277 117.387C9.4029 117.147 9.07404 116.9 8.7939 116.615C8.50564 116.339 8.20926 116.055 7.921 115.763C7.6571 115.462 7.40132 115.15 7.14148 114.833C6.1549 113.55 5.35102 112.129 4.81104 110.635C4.53902 109.888 4.31978 109.125 4.17362 108.341C4.09242 107.951 4.04776 107.553 3.99904 107.152C3.97874 106.953 3.97062 106.741 3.95844 106.534C3.95032 106.437 3.95438 106.315 3.95032 106.206V106.039V105.962C3.99498 104.106 5.41192 102.499 7.26328 102.405C8.733 102.328 10.0078 103.156 10.6006 104.37L10.6371 104.443C10.7711 104.675 10.9213 105.142 11.0553 105.625Z" fill="white"/>
<path d="M1.74172 109.36C2.59827 109.36 3.29264 108.665 3.29264 107.809C3.29264 106.952 2.59827 106.258 1.74172 106.258C0.885166 106.258 0.190796 106.952 0.190796 107.809C0.190796 108.665 0.885166 109.36 1.74172 109.36Z" fill="white"/>
<path d="M2.9678 113.18C3.60012 113.18 4.11272 112.668 4.11272 112.036C4.11272 111.403 3.60012 110.891 2.9678 110.891C2.33547 110.891 1.82288 111.403 1.82288 112.036C1.82288 112.668 2.33547 113.18 2.9678 113.18Z" fill="white"/>
<path d="M5.08717 116.352C5.70156 116.352 6.19961 115.854 6.19961 115.239C6.19961 114.625 5.70156 114.127 5.08717 114.127C4.47279 114.127 3.97473 114.625 3.97473 115.239C3.97473 115.854 4.47279 116.352 5.08717 116.352Z" fill="white"/>
<path d="M7.5029 118.573C7.97602 118.573 8.35956 118.189 8.35956 117.716C8.35956 117.243 7.97602 116.859 7.5029 116.859C7.02978 116.859 6.64624 117.243 6.64624 117.716C6.64624 118.189 7.02978 118.573 7.5029 118.573Z" fill="white"/>
<path d="M12.1678 86.722C12.2247 87.6517 12.2044 88.5855 12.1069 89.5112L12.0541 90.0065C11.9567 91.1108 11.8755 92.2233 11.8958 93.3479C11.9039 94.4847 12.0826 95.585 12.3871 96.738C12.4804 97.0141 12.5616 97.3064 12.651 97.6028C12.651 97.6028 12.651 97.6028 12.651 97.6068L13.0123 98.4554L13.1991 98.902C13.1991 98.902 13.1991 98.902 13.1991 98.906L13.4345 99.3242C13.5969 99.6044 13.7553 99.9089 13.9217 100.217L13.9664 100.299C14.1247 100.591 14.0151 100.96 13.7228 101.119C13.5685 101.204 13.3899 101.212 13.2356 101.155C12.8905 101.033 12.5332 100.904 12.18 100.753C12.0054 100.68 11.8227 100.607 11.6481 100.526C11.6481 100.526 11.6481 100.526 11.6441 100.526L11.1528 100.234C10.8199 100.035 10.487 99.8236 10.1662 99.5922C9.86986 99.3445 9.55724 99.0928 9.26492 98.8208C8.9523 98.5609 8.70464 98.2524 8.43262 97.9519C8.16466 97.6515 7.89264 97.3389 7.67746 97.0019C7.45416 96.669 7.21868 96.332 6.99944 95.9869C6.80456 95.6377 6.62186 95.2764 6.43104 94.9151C5.73272 93.4575 5.24552 91.8985 5.02222 90.3232C4.9126 89.5356 4.85576 88.7439 4.872 87.9481C4.872 87.5502 4.9126 87.1523 4.94914 86.7504C4.9735 86.5515 5.00598 86.3403 5.03846 86.1373C5.05064 86.0399 5.07906 85.9222 5.09936 85.8166L5.13184 85.6542L5.14808 85.5771C5.57438 83.7744 7.29582 82.4955 9.12688 82.7838C10.5804 83.0152 11.6563 84.087 11.9811 85.3984L12.0014 85.4756C12.0866 85.7354 12.1353 86.2185 12.1678 86.722Z" fill="white"/>
<path d="M2.60646 88.472C3.46301 88.472 4.15738 87.7776 4.15738 86.921C4.15738 86.0645 3.46301 85.3701 2.60646 85.3701C1.74991 85.3701 1.05554 86.0645 1.05554 86.921C1.05554 87.7776 1.74991 88.472 2.60646 88.472Z" fill="white"/>
<path d="M2.92312 92.4549C3.55544 92.4549 4.06804 91.9423 4.06804 91.31C4.06804 90.6776 3.55544 90.165 2.92312 90.165C2.2908 90.165 1.7782 90.6776 1.7782 91.31C1.7782 91.9423 2.2908 92.4549 2.92312 92.4549Z" fill="white"/>
<path d="M4.33192 95.9993C4.94631 95.9993 5.44436 95.5012 5.44436 94.8869C5.44436 94.2725 4.94631 93.7744 4.33192 93.7744C3.71754 93.7744 3.21948 94.2725 3.21948 94.8869C3.21948 95.5012 3.71754 95.9993 4.33192 95.9993Z" fill="white"/>
<path d="M6.17929 98.6664C6.65241 98.6664 7.03595 98.2829 7.03595 97.8098C7.03595 97.3367 6.65241 96.9531 6.17929 96.9531C5.70617 96.9531 5.32263 97.3367 5.32263 97.8098C5.32263 98.2829 5.70617 98.6664 6.17929 98.6664Z" fill="white"/>
<path d="M17.1859 68.4593C17.052 69.3809 16.8327 70.2863 16.5485 71.1754L16.3942 71.6505C16.0694 72.7101 15.7568 73.782 15.5457 74.8863C15.3183 75.9987 15.2656 77.1152 15.3224 78.3048C15.3589 78.5931 15.3752 78.8976 15.3995 79.2061C15.3995 79.2061 15.3995 79.2061 15.3995 79.2102L15.5741 80.1156L15.6675 80.5906C15.6675 80.5906 15.6675 80.5906 15.6675 80.5946L15.8096 81.0534C15.9111 81.362 16.0004 81.6908 16.1019 82.0278L16.1263 82.1171C16.2197 82.4379 16.037 82.7749 15.7162 82.8682C15.5457 82.917 15.3711 82.8885 15.229 82.8033C14.9164 82.6125 14.5957 82.4095 14.279 82.1902C14.1206 82.0806 13.9582 81.971 13.804 81.8573C13.804 81.8573 13.804 81.8573 13.7999 81.8573L13.3817 81.4675C13.0975 81.2036 12.8174 80.9276 12.5494 80.6352C12.3099 80.3307 12.0582 80.0181 11.8267 79.6933C11.575 79.3726 11.3964 79.0234 11.1934 78.6702C10.9944 78.321 10.7955 77.9556 10.6534 77.5862C10.5032 77.2167 10.3448 76.8351 10.2027 76.4534C10.085 76.0718 9.97944 75.682 9.86982 75.2882C9.48818 73.717 9.3339 72.093 9.44758 70.5055C9.50442 69.7098 9.61404 68.9262 9.79674 68.1507C9.87794 67.761 10.0038 67.3793 10.1215 66.9936C10.1865 66.8028 10.2636 66.6079 10.3367 66.4131C10.3692 66.3197 10.422 66.2141 10.4626 66.1126L10.5316 65.9583L10.5641 65.8893C11.3598 64.2125 13.3086 63.3193 15.0382 63.9852C16.4105 64.513 17.2428 65.7878 17.2874 67.1398L17.2915 67.221C17.3159 67.4768 17.259 67.964 17.1859 68.4593Z" fill="white"/>
<path d="M7.79103 68.22C8.64758 68.22 9.34195 67.5256 9.34195 66.6691C9.34195 65.8125 8.64758 65.1182 7.79103 65.1182C6.93448 65.1182 6.24011 65.8125 6.24011 66.6691C6.24011 67.5256 6.93448 68.22 7.79103 68.22Z" fill="white"/>
<path d="M7.19021 72.1746C7.82253 72.1746 8.33513 71.662 8.33513 71.0297C8.33513 70.3974 7.82253 69.8848 7.19021 69.8848C6.55789 69.8848 6.04529 70.3974 6.04529 71.0297C6.04529 71.662 6.55789 72.1746 7.19021 72.1746Z" fill="white"/>
<path d="M7.82765 75.93C8.44203 75.93 8.94009 75.4319 8.94009 74.8175C8.94009 74.2031 8.44203 73.7051 7.82765 73.7051C7.21327 73.7051 6.71521 74.2031 6.71521 74.8175C6.71521 75.4319 7.21327 75.93 7.82765 75.93Z" fill="white"/>
<path d="M9.02536 78.9174C9.49848 78.9174 9.88202 78.5339 9.88202 78.0608C9.88202 77.5876 9.49848 77.2041 9.02536 77.2041C8.55224 77.2041 8.1687 77.5876 8.1687 78.0608C8.1687 78.5339 8.55224 78.9174 9.02536 78.9174Z" fill="white"/>
<path d="M25.8947 51.6429C25.5699 52.5158 25.1679 53.3603 24.7051 54.1642L24.4574 54.5946C23.9175 55.5649 23.3896 56.5474 22.9512 57.5827C22.4964 58.6221 22.2123 59.702 22.0214 60.8794C21.9971 61.1677 21.9483 61.4682 21.9078 61.7767C21.9078 61.7767 21.9078 61.7767 21.9078 61.7808L21.8915 62.7024L21.8834 63.1855C21.8834 63.1855 21.8834 63.1855 21.8834 63.1896L21.928 63.6687C21.9605 63.9935 21.9808 64.3305 22.0093 64.6837L22.0174 64.7771C22.0417 65.11 21.7941 65.3982 21.4612 65.4266C21.2866 65.4388 21.1201 65.3739 20.9983 65.2642C20.7304 65.0125 20.4583 64.7486 20.1985 64.4685C20.0686 64.3304 19.9305 64.1884 19.8047 64.0422C19.8047 64.0422 19.8047 64.0422 19.8047 64.0381L19.4758 63.5712C19.2525 63.2545 19.0333 62.9257 18.8343 62.5846C18.6638 62.2355 18.4852 61.8782 18.3268 61.5128C18.1482 61.1474 18.0467 60.7658 17.9208 60.3801C17.799 59.9944 17.6772 59.6005 17.6204 59.2067C17.5514 58.8129 17.4742 58.411 17.4133 58.005C17.4133 58.005 17.4133 58.005 17.4133 58.0009C17.3768 57.603 17.3565 57.197 17.3321 56.791C17.2875 55.1751 17.4742 53.5552 17.9127 52.0246C18.1319 51.2613 18.404 50.5143 18.745 49.7956C18.9074 49.4343 19.1064 49.0851 19.3012 48.7319C19.4027 48.5573 19.5205 48.3828 19.6301 48.2082C19.6829 48.1229 19.756 48.0295 19.8169 47.9402L19.9143 47.8062L19.963 47.7453C21.0876 46.2716 23.1785 45.8047 24.7335 46.8156C25.9677 47.6195 26.5159 49.0364 26.2763 50.3681L26.2641 50.4493C26.2235 50.7091 26.0693 51.172 25.8947 51.6429Z" fill="white"/>
<path d="M17.0763 49.4915C17.9329 49.4915 18.6272 48.7971 18.6272 47.9406C18.6272 47.084 17.9329 46.3896 17.0763 46.3896C16.2198 46.3896 15.5254 47.084 15.5254 47.9406C15.5254 48.7971 16.2198 49.4915 17.0763 49.4915Z" fill="white"/>
<path d="M15.5823 53.2225C16.2146 53.2225 16.7272 52.7099 16.7272 52.0775C16.7272 51.4452 16.2146 50.9326 15.5823 50.9326C14.95 50.9326 14.4374 51.4452 14.4374 52.0775C14.4374 52.7099 14.95 53.2225 15.5823 53.2225Z" fill="white"/>
<path d="M15.4158 57.0305C16.0302 57.0305 16.5282 56.5325 16.5282 55.9181C16.5282 55.3037 16.0302 54.8057 15.4158 54.8057C14.8014 54.8057 14.3033 55.3037 14.3033 55.9181C14.3033 56.5325 14.8014 57.0305 15.4158 57.0305Z" fill="white"/>
<path d="M15.9111 60.1977C16.3842 60.1977 16.7678 59.8142 16.7678 59.341C16.7678 58.8679 16.3842 58.4844 15.9111 58.4844C15.438 58.4844 15.0544 58.8679 15.0544 59.341C15.0544 59.8142 15.438 60.1977 15.9111 60.1977Z" fill="white"/>
<path d="M37.9042 37.0023C37.4048 37.79 36.8364 38.5289 36.2153 39.2231L35.8823 39.5926C35.1515 40.429 34.4329 41.2816 33.7874 42.2032C33.1256 43.1248 32.6262 44.1236 32.1918 45.2319C32.1065 45.508 31.9969 45.7922 31.8954 46.0845C31.8954 46.0845 31.8954 46.0845 31.8954 46.0886L31.6884 46.9859L31.5787 47.4568C31.5787 47.4568 31.5787 47.4568 31.5787 47.4609L31.5219 47.9359C31.4854 48.2607 31.4366 48.5977 31.392 48.9468L31.3798 49.0362C31.3351 49.365 31.0306 49.6005 30.7018 49.5558C30.5272 49.5315 30.377 49.434 30.2836 49.3001C30.0765 48.9996 29.8614 48.6829 29.6665 48.3541C29.565 48.1917 29.4635 48.0252 29.3701 47.8547C29.3701 47.8547 29.3701 47.8547 29.3701 47.8506L29.1427 47.3228C28.9925 46.9656 28.8464 46.6002 28.7205 46.2226C28.6271 45.845 28.5256 45.4593 28.4444 45.0655C28.3429 44.6676 28.3267 44.2778 28.282 43.8759C28.2414 43.474 28.2089 43.0639 28.2292 42.666C28.2414 42.2641 28.2536 41.8581 28.278 41.448C28.278 41.448 28.278 41.448 28.278 41.444C28.3267 41.0461 28.3876 40.6482 28.4485 40.2422C28.7408 38.6507 29.2605 37.1038 30.0075 35.6991C30.381 34.9967 30.7992 34.3227 31.2824 33.6894C31.5138 33.3686 31.7858 33.0682 32.0497 32.7637C32.1837 32.6135 32.338 32.4673 32.4801 32.3211C32.5491 32.2481 32.6384 32.1709 32.7196 32.0978L32.8455 31.9842L32.9064 31.9314C34.3152 30.7215 36.4589 30.7012 37.7662 32.0126C38.8055 33.056 39.0451 34.5541 38.5376 35.8087L38.5092 35.8858C38.4198 36.1578 38.1722 36.5801 37.9042 37.0023Z" fill="white"/>
<path d="M30.0481 33.097C30.9047 33.097 31.599 32.4026 31.599 31.546C31.599 30.6895 30.9047 29.9951 30.0481 29.9951C29.1916 29.9951 28.4972 30.6895 28.4972 31.546C28.4972 32.4026 29.1916 33.097 30.0481 33.097Z" fill="white"/>
<path d="M27.7298 36.4305C28.3621 36.4305 28.8747 35.9179 28.8747 35.2855C28.8747 34.6532 28.3621 34.1406 27.7298 34.1406C27.0974 34.1406 26.5848 34.6532 26.5848 35.2855C26.5848 35.9179 27.0974 36.4305 27.7298 36.4305Z" fill="white"/>
<path d="M26.7676 40.1165C27.382 40.1165 27.88 39.6184 27.88 39.004C27.88 38.3897 27.382 37.8916 26.7676 37.8916C26.1532 37.8916 25.6552 38.3897 25.6552 39.004C25.6552 39.6184 26.1532 40.1165 26.7676 40.1165Z" fill="white"/>
<path d="M26.5403 43.312C27.0134 43.312 27.3969 42.9284 27.3969 42.4553C27.3969 41.9822 27.0134 41.5986 26.5403 41.5986C26.0671 41.5986 25.6836 41.9822 25.6836 42.4553C25.6836 42.9284 26.0671 43.312 26.5403 43.312Z" fill="white"/>
<path d="M52.6988 25.1806C52.0492 25.8465 51.3387 26.4514 50.5876 27.0036L50.1856 27.2959C49.2965 27.9617 48.4155 28.6438 47.5953 29.4152C46.7549 30.1825 46.0607 31.0514 45.4029 32.0461C45.2608 32.2978 45.0984 32.5536 44.936 32.8215C44.936 32.8215 44.936 32.8215 44.936 32.8256L44.5463 33.662L44.3433 34.1004C44.3433 34.1004 44.3433 34.1004 44.3433 34.1045L44.189 34.5592C44.0875 34.8678 43.9698 35.1885 43.852 35.5174L43.8195 35.6026C43.7059 35.9153 43.3608 36.0817 43.0481 35.968C42.8817 35.9071 42.7558 35.7813 42.6909 35.6311C42.5488 35.29 42.4067 34.9409 42.2849 34.5795C42.2199 34.4009 42.1549 34.2141 42.0981 34.0314C42.0981 34.0314 42.0981 34.0314 42.0981 34.0274L41.9885 33.4671C41.9154 33.0854 41.8464 32.6957 41.8017 32.3059C41.7855 31.9162 41.7692 31.5183 41.7733 31.1204C41.7571 30.7103 41.822 30.3246 41.8626 29.9227C41.9073 29.5208 41.9601 29.1107 42.0656 28.7291C42.1631 28.3393 42.2564 27.9414 42.3661 27.5476C42.496 27.17 42.6381 26.7924 42.7842 26.4067C43.4014 24.9127 44.2296 23.5079 45.2527 22.2899C45.7643 21.6809 46.3164 21.1084 46.9173 20.5888C47.2137 20.3249 47.5385 20.0853 47.8592 19.8417C48.0216 19.724 48.2003 19.6103 48.3749 19.4966C48.4561 19.4398 48.5616 19.3829 48.655 19.3261L48.8012 19.2408L48.8702 19.2043C50.4982 18.3152 52.6013 18.7374 53.6082 20.2964C54.408 21.5307 54.3309 23.0491 53.5757 24.1697L53.5311 24.2387C53.3768 24.462 53.0479 24.8233 52.6988 25.1806Z" fill="white"/>
<path d="M46.15 19.76C47.0066 19.76 47.701 19.0657 47.701 18.2091C47.701 17.3526 47.0066 16.6582 46.15 16.6582C45.2935 16.6582 44.5991 17.3526 44.5991 18.2091C44.5991 19.0657 45.2935 19.76 46.15 19.76Z" fill="white"/>
<path d="M43.101 22.5291C43.7333 22.5291 44.2459 22.0165 44.2459 21.3842C44.2459 20.7519 43.7333 20.2393 43.101 20.2393C42.4687 20.2393 41.9561 20.7519 41.9561 21.3842C41.9561 22.0165 42.4687 22.5291 43.101 22.5291Z" fill="white"/>
<path d="M41.3877 25.9348C42.0021 25.9348 42.5001 25.4368 42.5001 24.8224C42.5001 24.208 42.0021 23.71 41.3877 23.71C40.7733 23.71 40.2753 24.208 40.2753 24.8224C40.2753 25.4368 40.7733 25.9348 41.3877 25.9348Z" fill="white"/>
<path d="M40.4498 29.0082C40.9229 29.0082 41.3065 28.6247 41.3065 28.1516C41.3065 27.6785 40.9229 27.2949 40.4498 27.2949C39.9767 27.2949 39.5931 27.6785 39.5931 28.1516C39.5931 28.6247 39.9767 29.0082 40.4498 29.0082Z" fill="white"/>
<path d="M69.6248 16.6946C68.8494 17.2102 68.0293 17.6568 67.1807 18.0384L66.726 18.2414C65.7191 18.7083 64.7163 19.1955 63.75 19.7761C62.7716 20.3486 61.9068 21.0591 61.0582 21.8954C60.8674 22.1147 60.6522 22.3298 60.4411 22.5572L59.8849 23.2961L59.5926 23.6818C59.5926 23.6818 59.5926 23.6818 59.5926 23.6859L59.349 24.1C59.1866 24.3801 59.0039 24.6684 58.8171 24.9688L58.7684 25.046C58.5938 25.3302 58.2203 25.4195 57.9361 25.2449C57.7859 25.1515 57.6884 25.0013 57.66 24.843C57.591 24.4816 57.526 24.1081 57.4814 23.7305C57.457 23.5397 57.4286 23.3489 57.4124 23.154C57.4124 23.154 57.4124 23.154 57.4124 23.15L57.4205 22.5775C57.4286 22.1918 57.4448 21.7939 57.4814 21.4001C57.5463 21.0185 57.6113 20.6246 57.7006 20.2349C57.7696 19.8329 57.9117 19.4675 58.0376 19.0818C58.1635 18.7002 58.3015 18.3064 58.4842 17.9532C58.6588 17.5918 58.8334 17.2224 59.0242 16.861C59.2312 16.5159 59.4505 16.1789 59.6697 15.8338C60.5832 14.4981 61.6875 13.2963 62.9421 12.3179C63.5673 11.8266 64.225 11.3841 64.9234 11.0024C65.2685 10.8035 65.6339 10.6411 65.9993 10.4706C66.182 10.3894 66.3809 10.3163 66.5717 10.2392C66.6651 10.1986 66.7788 10.1661 66.8803 10.1336L67.0386 10.0808L67.1117 10.0565C68.89 9.5246 70.855 10.3772 71.5209 12.1068C72.0487 13.4831 71.6548 14.9488 70.6845 15.8866L70.6277 15.9435C70.4409 16.1302 70.043 16.4144 69.6248 16.6946Z" fill="white"/>
<path d="M64.6676 10.0647C65.5242 10.0647 66.2185 9.37036 66.2185 8.51381C66.2185 7.65726 65.5242 6.96289 64.6676 6.96289C63.8111 6.96289 63.1167 7.65726 63.1167 8.51381C63.1167 9.37036 63.8111 10.0647 64.6676 10.0647Z" fill="white"/>
<path d="M61.0298 12.1268C61.6621 12.1268 62.1747 11.6142 62.1747 10.9818C62.1747 10.3495 61.6621 9.83691 61.0298 9.83691C60.3975 9.83691 59.8849 10.3495 59.8849 10.9818C59.8849 11.6142 60.3975 12.1268 61.0298 12.1268Z" fill="white"/>
<path d="M58.6386 15.1028C59.2529 15.1028 59.751 14.6048 59.751 13.9904C59.751 13.376 59.2529 12.8779 58.6386 12.8779C58.0242 12.8779 57.5261 13.376 57.5261 13.9904C57.5261 14.6048 58.0242 15.1028 58.6386 15.1028Z" fill="white"/>
<path d="M57.0267 17.9086C57.4998 17.9086 57.8834 17.5251 57.8834 17.052C57.8834 16.5789 57.4998 16.1953 57.0267 16.1953C56.5536 16.1953 56.17 16.5789 56.17 17.052C56.17 17.5251 56.5536 17.9086 57.0267 17.9086Z" fill="white"/>
<path d="M87.9518 11.9112C87.087 12.2563 86.1897 12.5202 85.2803 12.7151L84.7931 12.8207C83.7131 13.0683 82.6291 13.3363 81.5654 13.7017C80.4854 14.059 79.4948 14.5705 78.492 15.2161C78.2606 15.3907 78.0048 15.5571 77.749 15.7317C77.749 15.7317 77.749 15.7317 77.7449 15.7317L77.0466 16.3366L76.6812 16.6533L76.3564 17.0065C76.1372 17.2461 75.8976 17.4897 75.6581 17.7455L75.5931 17.8104C75.3617 18.054 74.9801 18.0621 74.7405 17.8307C74.6106 17.7089 74.5497 17.5425 74.5538 17.3801C74.5619 17.0147 74.5741 16.633 74.6106 16.2514C74.6269 16.0606 74.639 15.8657 74.6634 15.6749C74.6634 15.6749 74.6634 15.6749 74.6634 15.6708L74.7893 15.1146C74.8786 14.737 74.972 14.3554 75.0938 13.9778C75.2399 13.6164 75.382 13.247 75.5485 12.8816C75.6987 12.504 75.9139 12.1751 76.1169 11.8219C76.3199 11.4728 76.5351 11.1195 76.7868 10.811C77.0344 10.4943 77.2821 10.1695 77.5419 9.85282C77.814 9.5605 78.0982 9.27224 78.3864 8.97992C79.5557 7.86342 80.8874 6.91744 82.3165 6.22318C83.0311 5.87402 83.7659 5.57764 84.5292 5.35028C84.9068 5.22848 85.3006 5.14322 85.6944 5.0539C85.8934 5.0133 86.1004 4.98488 86.3034 4.94834C86.4009 4.92804 86.5186 4.91992 86.6282 4.90774L86.7947 4.8915L86.8718 4.88338C88.7191 4.73316 90.469 5.97552 90.7572 7.80658C90.9846 9.26006 90.2985 10.6161 89.1535 11.3307L89.0845 11.3753C88.8653 11.5296 88.4146 11.7245 87.9518 11.9112Z" fill="white"/>
<path d="M84.8012 4.42899C85.6577 4.42899 86.3521 3.73462 86.3521 2.87807C86.3521 2.02152 85.6577 1.32715 84.8012 1.32715C83.9446 1.32715 83.2502 2.02152 83.2502 2.87807C83.2502 3.73462 83.9446 4.42899 84.8012 4.42899Z" fill="white"/>
<path d="M80.729 5.68339C81.3613 5.68339 81.8739 5.1708 81.8739 4.53848C81.8739 3.90615 81.3613 3.39355 80.729 3.39355C80.0967 3.39355 79.5841 3.90615 79.5841 4.53848C79.5841 5.1708 80.0967 5.68339 80.729 5.68339Z" fill="white"/>
<path d="M77.7611 8.095C78.3755 8.095 78.8736 7.59694 78.8736 6.98256C78.8736 6.36817 78.3755 5.87012 77.7611 5.87012C77.1467 5.87012 76.6487 6.36817 76.6487 6.98256C76.6487 7.59694 77.1467 8.095 77.7611 8.095Z" fill="white"/>
<path d="M75.5526 10.4985C76.0257 10.4985 76.4092 10.1149 76.4092 9.64182C76.4092 9.1687 76.0257 8.78516 75.5526 8.78516C75.0795 8.78516 74.6959 9.1687 74.6959 9.64182C74.6959 10.1149 75.0795 10.4985 75.5526 10.4985Z" fill="white"/>
<path d="M106.867 11.0433C105.95 11.1976 105.02 11.2747 104.086 11.2747H103.587C102.478 11.291 101.362 11.3275 100.245 11.4656C99.1168 11.5914 98.0409 11.8878 96.9244 12.306C96.6605 12.4278 96.3763 12.5374 96.0921 12.6592C96.0921 12.6592 96.0921 12.6592 96.088 12.6592L95.2801 13.1058L94.8578 13.3413C94.8578 13.3413 94.8578 13.3413 94.8538 13.3413L94.464 13.6214C94.2001 13.8122 93.9159 13.999 93.6276 14.1979L93.5505 14.2507C93.2744 14.4375 92.9009 14.3685 92.7101 14.0924C92.6086 13.9462 92.5842 13.7716 92.6208 13.6092C92.706 13.252 92.7953 12.8825 92.909 12.5171C92.9618 12.3344 93.0186 12.1476 93.0795 11.9649C93.0795 11.9649 93.0795 11.9649 93.0795 11.9609L93.3191 11.4412C93.4815 11.092 93.6561 10.7348 93.855 10.3897C94.0702 10.0689 94.2894 9.73193 94.529 9.41119C94.7563 9.07015 95.0365 8.79407 95.3044 8.49363C95.5764 8.19725 95.8606 7.89275 96.1692 7.64509C96.4737 7.38525 96.7863 7.12135 97.1071 6.86557C97.4359 6.63415 97.7729 6.41491 98.1139 6.18755C99.4903 5.33901 100.988 4.68941 102.531 4.30777C103.303 4.11695 104.086 3.97485 104.878 3.91395C105.272 3.87335 105.674 3.87335 106.08 3.86523C106.283 3.86523 106.494 3.88147 106.697 3.88959C106.798 3.89365 106.912 3.90583 107.022 3.91801L107.188 3.93425L107.265 3.94237C109.104 4.17785 110.558 5.75719 110.456 7.60855C110.379 9.07827 109.425 10.2597 108.154 10.7226L108.077 10.751C107.838 10.8606 107.363 10.9581 106.867 11.0433Z" fill="white"/>
<path d="M105.666 3.10184C106.522 3.10184 107.216 2.40747 107.216 1.55092C107.216 0.69437 106.522 0 105.666 0C104.809 0 104.115 0.69437 104.115 1.55092C104.115 2.40747 104.809 3.10184 105.666 3.10184Z" fill="white"/>
<path d="M101.334 3.47539C101.966 3.47539 102.478 2.96279 102.478 2.33047C102.478 1.69814 101.966 1.18555 101.334 1.18555C100.701 1.18555 100.189 1.69814 100.189 2.33047C100.189 2.96279 100.701 3.47539 101.334 3.47539Z" fill="white"/>
<path d="M97.9271 5.21707C98.5415 5.21707 99.0396 4.71901 99.0396 4.10463C99.0396 3.49024 98.5415 2.99219 97.9271 2.99219C97.3127 2.99219 96.8147 3.49024 96.8147 4.10463C96.8147 4.71901 97.3127 5.21707 97.9271 5.21707Z" fill="white"/>
<path d="M95.211 7.10102C95.6842 7.10102 96.0677 6.71748 96.0677 6.24436C96.0677 5.77123 95.6842 5.3877 95.211 5.3877C94.7379 5.3877 94.3544 5.77123 94.3544 6.24436C94.3544 6.71748 94.7379 7.10102 95.211 7.10102Z" fill="white"/>
<path d="M130.298 116.895L130.001 115.73C129.652 114.35 129.096 113.099 128.349 112.011C128.235 111.849 128.109 111.703 127.991 111.544C126.359 112.977 124.268 113.396 122.425 113.396C120.172 113.396 118.308 112.795 118.154 112.746C117.622 112.571 117.261 112.076 117.253 111.516C117.245 110.956 117.594 110.452 118.122 110.261C118.82 110.01 119.25 109.591 119.474 108.95C120.225 106.782 118.556 102.551 116.965 99.6241C116.522 100.176 116.185 100.834 115.986 101.557C113.81 109.392 106.128 109.876 102.373 109.039C101.882 108.93 101.496 108.548 101.382 108.061C101.265 107.574 101.439 107.058 101.825 106.741C103.668 105.227 104.346 103.27 103.847 100.919C103.64 99.9529 103.169 98.9704 102.438 97.996C101.983 97.387 101.614 96.778 101.309 96.1934C101.009 96.7821 100.639 97.387 100.18 97.996C99.4538 98.9663 98.9787 99.9529 98.7717 100.919C98.2723 103.27 98.9503 105.231 100.794 106.741C101.183 107.062 101.354 107.574 101.236 108.061C101.118 108.548 100.737 108.93 100.245 109.039C96.49 109.88 88.8084 109.396 86.6323 101.557C86.4333 100.834 86.0964 100.18 85.6538 99.6241C84.0623 102.551 82.3936 106.782 83.1447 108.95C83.368 109.595 83.7984 110.014 84.4967 110.261C85.0245 110.452 85.3737 110.956 85.3656 111.516C85.3574 112.076 84.9961 112.571 84.4642 112.746C84.31 112.795 82.4464 113.396 80.1931 113.396C78.3702 113.396 76.3036 112.986 74.6796 111.589C73.6159 113.12 72.9176 114.894 72.6496 116.802C72.4954 118.036 72.4182 119.319 72.4182 120.594C72.4182 137.049 85.4508 150.439 101.468 150.439C117.484 150.439 130.517 137.053 130.517 120.594C130.521 119.36 130.448 118.117 130.298 116.895ZM86.6079 143.488C83.4492 143.488 80.8833 140.926 80.8833 137.764C80.8833 134.605 83.4452 132.039 86.6079 132.039C89.7666 132.039 92.3325 134.601 92.3325 137.764C92.3325 140.926 89.7707 143.488 86.6079 143.488ZM109.827 134.406C109.592 134.674 109.348 134.942 109.092 135.198C108.966 135.328 108.836 135.458 108.706 135.583L108.512 135.774L108.296 135.941C108.175 136.026 108.053 136.119 107.931 136.209C107.992 136.448 108.028 136.696 108.028 136.948C108.028 139.331 105.235 141.267 101.788 141.267C98.3413 141.267 95.548 139.335 95.548 136.948C95.548 136.761 95.5724 136.578 95.6049 136.4C95.0487 136.01 94.533 135.588 94.0783 135.052C93.9403 134.885 93.9606 134.642 94.123 134.499C94.2245 134.414 94.3585 134.39 94.4762 134.418L94.5574 134.439C95.1502 134.601 95.7267 134.751 96.2951 134.897C97.3507 133.545 99.4132 132.628 101.788 132.628C104.025 132.628 105.982 133.448 107.087 134.674C107.2 134.633 107.31 134.593 107.428 134.556C108.049 134.337 108.642 134.028 109.332 133.813L109.425 133.785C109.628 133.72 109.843 133.834 109.908 134.041C109.949 134.171 109.912 134.309 109.827 134.406ZM104.236 129.262C104.249 129.27 104.253 129.266 104.261 129.274C104.265 129.278 104.273 129.278 104.273 129.278C104.273 129.282 104.293 129.258 104.232 129.331C104.066 129.53 103.879 129.705 103.688 129.839C102.913 130.366 102.186 130.488 101.468 130.5C100.749 130.492 100.026 130.37 99.2467 129.843C99.0559 129.709 98.8691 129.534 98.7027 129.335C98.6418 129.262 98.6621 129.286 98.6621 129.282C98.6661 129.282 98.6702 129.282 98.6742 129.278C98.6824 129.27 98.6905 129.274 98.6986 129.266C98.7351 129.254 98.7189 129.189 98.589 129.124C98.4591 129.059 98.252 129.023 97.9759 128.958C97.8379 128.925 97.6755 128.889 97.4806 128.832C97.302 128.779 97.0137 128.677 96.7904 128.495C96.4169 128.15 96.287 127.809 96.2098 127.496C96.1367 127.175 96.1246 126.887 96.157 126.57L96.1692 126.448C96.1895 126.274 96.3479 126.148 96.5184 126.168C96.6483 126.185 96.7498 126.274 96.7863 126.388C96.9163 126.802 97.1517 127.277 97.4319 127.455C97.5293 127.52 97.7526 127.545 97.9962 127.545C98.2398 127.549 98.5078 127.545 98.7879 127.581C99.0681 127.614 99.3726 127.699 99.6365 127.882C99.7664 127.967 99.8922 128.097 99.9775 128.186C100.042 128.255 100.111 128.32 100.201 128.373C100.542 128.592 101.013 128.694 101.468 128.686C101.918 128.694 102.393 128.592 102.734 128.373C102.819 128.32 102.893 128.255 102.958 128.186C103.043 128.097 103.169 127.963 103.299 127.882C103.562 127.699 103.867 127.614 104.147 127.581C104.427 127.545 104.695 127.549 104.939 127.545C105.182 127.545 105.406 127.52 105.503 127.455C105.783 127.277 106.023 126.798 106.149 126.388C106.201 126.221 106.38 126.128 106.547 126.181C106.672 126.221 106.754 126.327 106.77 126.448L106.782 126.566C106.819 126.883 106.802 127.171 106.729 127.492C106.648 127.805 106.522 128.146 106.149 128.491C105.925 128.673 105.637 128.775 105.458 128.828C105.264 128.884 105.101 128.921 104.963 128.953C104.687 129.023 104.476 129.051 104.35 129.12C104.216 129.185 104.204 129.254 104.236 129.262ZM116.494 143.488C113.335 143.488 110.769 140.926 110.769 137.764C110.769 134.605 113.331 132.039 116.494 132.039C119.656 132.039 122.218 134.601 122.218 137.764C122.218 140.926 119.656 143.488 116.494 143.488ZM127.748 123.517C126.855 128.271 122.287 131.718 116.891 131.718C111.492 131.718 106.928 128.267 106.035 123.517C106.015 123.408 106.015 123.298 106.011 123.184H96.9366C96.9325 123.294 96.9325 123.403 96.9122 123.517C96.019 128.271 91.4515 131.718 86.0558 131.718C80.66 131.718 76.0925 128.267 75.1993 123.517C75.0613 122.786 75.2562 122.039 75.7312 121.467C76.2103 120.89 76.9126 120.557 77.6637 120.557H84.1597C83.6644 120.005 83.3518 119.234 83.3518 118.377C83.3518 118.077 83.4005 117.789 83.4736 117.516C83.433 117.533 83.3924 117.545 83.3477 117.561C82.9052 117.728 82.4221 117.943 81.9876 118.097L81.809 118.158C81.4152 118.296 80.9808 118.089 80.8427 117.695C80.7656 117.484 80.794 117.257 80.8955 117.074C81.2406 116.457 81.6466 116.018 82.1338 115.6C82.621 115.202 83.161 114.861 83.7456 114.618C84.9108 114.102 86.2263 113.948 87.4808 114.057C88.102 114.151 88.7272 114.228 89.3038 114.447C89.9006 114.61 90.4406 114.89 90.9684 115.17C91.2404 115.296 91.4759 115.482 91.7195 115.649C91.9631 115.815 92.1985 115.99 92.4259 116.169C92.8644 116.554 93.2704 116.977 93.648 117.403C93.7292 117.496 93.721 117.638 93.6277 117.719C93.5708 117.772 93.4937 117.784 93.4247 117.768L93.4003 117.76C92.8441 117.614 92.3325 117.435 91.825 117.265C91.2932 117.159 90.81 116.96 90.3025 116.883C90.0508 116.838 89.8031 116.794 89.5595 116.741C89.4377 116.709 89.3159 116.7 89.1901 116.692L88.8247 116.656C88.5567 116.615 88.2928 116.607 88.0289 116.607C88.3415 117.106 88.5283 117.711 88.5283 118.377C88.5283 119.238 88.2157 120.009 87.7204 120.557H94.1595H94.4437H108.499H111.329H114.679C114.183 120.005 113.871 119.234 113.871 118.377C113.871 118.077 113.92 117.789 113.989 117.516C113.948 117.533 113.907 117.545 113.867 117.561C113.424 117.728 112.941 117.943 112.507 118.097L112.328 118.158C111.934 118.296 111.5 118.089 111.362 117.695C111.289 117.484 111.313 117.257 111.415 117.074C111.76 116.457 112.166 116.018 112.653 115.6C113.14 115.202 113.68 114.861 114.265 114.618C115.43 114.102 116.745 113.948 118 114.057C118.621 114.151 119.246 114.228 119.823 114.447C120.42 114.61 120.96 114.89 121.487 115.17C121.759 115.296 121.995 115.482 122.238 115.649C122.482 115.815 122.718 115.99 122.945 116.169C123.383 116.554 123.789 116.977 124.167 117.403C124.248 117.496 124.24 117.638 124.147 117.719C124.09 117.772 124.013 117.784 123.944 117.768L123.919 117.76C123.363 117.614 122.852 117.435 122.344 117.265C121.812 117.159 121.329 116.96 120.822 116.883C120.57 116.838 120.322 116.794 120.079 116.741C119.957 116.709 119.835 116.7 119.709 116.692L119.344 116.656C119.076 116.615 118.812 116.607 118.548 116.607C118.861 117.106 119.047 117.711 119.047 118.377C119.047 119.238 118.735 120.009 118.239 120.557H125.279C126.031 120.557 126.733 120.89 127.212 121.467C127.691 122.039 127.886 122.786 127.748 123.517Z" fill="white"/>
<path d="M77.8059 123.185C78.5367 126.615 81.9755 129.092 86.0518 129.092C90.128 129.092 93.5668 126.615 94.2976 123.185H94.1596H77.8059Z" fill="white"/>
<path d="M108.646 123.185C109.376 126.615 112.815 129.092 116.891 129.092C120.968 129.092 124.407 126.615 125.137 123.185H111.329H108.646Z" fill="white"/>
<path d="M112.02 155.019C112.547 155.494 113.258 155.62 113.916 155.352C114.577 155.088 115 154.507 115.052 153.797L115.353 149.773C113.298 150.805 111.118 151.609 108.845 152.169L112.02 155.019Z" fill="white"/>
<path d="M128.751 139.079C127.533 139.079 126.542 140.07 126.542 141.288C126.542 142.506 127.533 143.496 128.751 143.496C129.969 143.496 130.959 142.506 130.959 141.288C130.959 140.07 129.969 139.079 128.751 139.079Z" fill="white"/>
<path d="M74.1924 139.079C72.9744 139.079 71.9838 140.07 71.9838 141.288C71.9838 142.506 72.9744 143.496 74.1924 143.496C75.4104 143.496 76.401 142.506 76.401 141.288C76.401 140.07 75.4104 139.079 74.1924 139.079Z" fill="white"/>
<path d="M97.8866 152.855L99.7948 156.737C100.107 157.374 100.72 157.756 101.431 157.756C102.141 157.756 102.755 157.374 103.067 156.737L104.967 152.868C103.818 152.998 102.653 153.071 101.472 153.071C100.258 153.071 99.064 152.994 97.8866 152.855Z" fill="white"/>
<path d="M87.8868 153.801C87.9396 154.511 88.3659 155.092 89.0236 155.356C89.6854 155.624 90.3918 155.494 90.9196 155.023L94.0905 152.173C91.8169 151.612 89.6366 150.809 87.5823 149.777L87.8868 153.801Z" fill="white"/>
<path d="M101.35 18.7451C56.1742 18.7451 19.553 55.3663 19.553 100.542C19.553 145.718 56.1742 182.339 101.35 182.339C146.525 182.339 183.147 145.718 183.147 100.542C183.147 55.3663 146.525 18.7451 101.35 18.7451ZM48.5333 104.131C48.1232 105.361 47.0229 106.234 45.2893 106.234C44.047 106.234 42.7356 105.783 41.818 105.077C40.9248 104.387 39.9098 103.875 38.842 103.53C38.6918 103.883 38.4117 104.168 38.0544 104.318C38.3995 105.39 38.9111 106.401 39.6013 107.294C40.3077 108.215 40.7584 109.523 40.7584 110.765C40.7584 112.499 39.8855 113.599 38.6553 114.009C38.6756 114.094 38.6878 114.184 38.6878 114.273C38.6878 114.906 38.1965 115.426 37.5713 115.466C36.9866 115.507 36.4466 115.085 36.3208 114.512C36.2802 114.334 36.2883 114.167 36.3248 114.009C35.0947 113.599 34.2218 112.499 34.2218 110.765C34.2218 109.523 34.6724 108.211 35.3789 107.294C36.0691 106.401 36.5806 105.386 36.9257 104.318C36.5725 104.168 36.2883 103.887 36.1381 103.53C35.0703 103.875 34.0553 104.387 33.1621 105.077C32.2405 105.783 30.9332 106.234 29.6908 106.234C27.9572 106.234 26.8569 105.361 26.4469 104.131C26.3616 104.151 26.2723 104.163 26.183 104.163C25.5496 104.163 25.0299 103.672 24.9893 103.047C24.9487 102.462 25.371 101.922 25.9434 101.796C26.1221 101.756 26.2885 101.764 26.4469 101.801C26.8569 100.57 27.9572 99.6975 29.6908 99.6975C30.9332 99.6975 32.2445 100.148 33.1621 100.855C34.0553 101.545 35.0703 102.056 36.1381 102.401C36.2883 102.048 36.5684 101.764 36.9257 101.614C36.5806 100.546 36.0691 99.531 35.3789 98.6378C34.6724 97.7162 34.2218 96.4089 34.2218 95.1665C34.2218 93.4329 35.0947 92.3326 36.3248 91.9226C36.3045 91.8373 36.2924 91.748 36.2924 91.6587C36.2924 91.0253 36.7836 90.5056 37.4089 90.465C37.9935 90.4244 38.5335 90.8467 38.6593 91.4191C38.6999 91.5978 38.6918 91.7642 38.6553 91.9226C39.8855 92.3326 40.7584 93.4329 40.7584 95.1665C40.7584 96.4089 40.3077 97.7202 39.6013 98.6378C38.9111 99.531 38.3995 100.546 38.0544 101.614C38.4076 101.764 38.6918 102.044 38.842 102.401C39.9139 102.056 40.9248 101.545 41.818 100.855C42.7396 100.148 44.047 99.6975 45.2893 99.6975C47.0229 99.6975 48.1232 100.57 48.5333 101.801C48.6185 101.78 48.7078 101.768 48.7972 101.768C49.4305 101.768 49.9502 102.259 49.9908 102.885C50.0314 103.469 49.6092 104.009 49.0367 104.135C48.8621 104.176 48.6916 104.168 48.5333 104.131ZM154.8 115.166C153.578 119.096 150.748 125.373 144.845 127.037C146.01 127.866 147.747 128.633 149.989 128.304C150.922 128.17 151.824 128.523 152.408 129.25C152.989 129.969 153.143 130.919 152.818 131.788C151.024 136.591 146.866 145.035 139.161 147.646C137.642 148.162 136.071 148.417 134.447 148.417C130.834 148.417 126.981 147.143 122.929 144.601C122.896 144.581 122.872 144.556 122.843 144.536C121.382 145.908 119.794 147.139 118.105 148.214L117.671 153.996C117.545 155.701 116.477 157.155 114.894 157.792C114.35 158.011 113.786 158.117 113.225 158.117C112.149 158.117 111.098 157.723 110.261 156.972L107.216 154.235L105.422 157.889C104.667 159.424 103.136 160.378 101.427 160.378C99.7177 160.378 98.1871 159.424 97.4319 157.889L95.6617 154.284L92.6736 156.968C91.8372 157.719 90.7857 158.113 89.7098 158.113C89.1495 158.113 88.5852 158.007 88.0411 157.788C86.4537 157.151 85.3899 155.697 85.2641 153.992L84.8297 148.21C83.2828 147.228 81.8253 146.111 80.4692 144.877C76.5919 147.224 72.8933 148.413 69.422 148.413C67.802 148.413 66.2308 148.158 64.7124 147.642C57.0065 145.031 52.849 136.587 51.0545 131.784C50.7297 130.915 50.884 129.965 51.4646 129.246C52.0533 128.519 52.9587 128.166 53.8843 128.3C56.1133 128.625 57.851 127.858 59.0202 127.029C53.1211 125.361 50.2912 119.088 49.0692 115.158C48.7931 114.265 49.0448 113.319 49.731 112.694C50.4293 112.056 51.4077 111.886 52.2888 112.247C55.5733 113.595 58.3788 109.929 59.7835 107.578C58.9066 107.42 58.1758 107.083 57.5992 106.567C56.4462 105.536 56.4097 104.204 56.4097 104.054C56.4097 103.449 56.8238 102.917 57.4165 102.775C59.3329 102.312 60.2139 101.374 60.6848 99.7827C53.6367 99.3361 47.3883 95.8283 44.3555 89.8276C39.4307 80.0836 44.8143 67.4083 56.3569 61.5741C59.3653 60.0516 62.6458 59.0893 65.9019 58.7686C66.9372 52.3457 70.8511 46.4465 77.0142 42.0536C83.4696 37.4536 91.8494 34.9202 100.615 34.9202C109.372 34.9202 117.748 37.4495 124.199 42.0414C130.334 46.4059 134.24 52.2685 135.308 58.6509C139.181 58.7483 143.099 59.7511 146.704 61.5741C158.247 67.4123 163.63 80.0836 158.705 89.8276C155.786 95.605 149.887 99.0722 143.164 99.7218C143.631 101.35 144.512 102.308 146.448 102.775C147.037 102.917 147.455 103.445 147.455 104.054C147.455 104.204 147.423 105.532 146.266 106.567C145.689 107.083 144.962 107.42 144.085 107.578C145.494 109.925 148.312 113.587 151.576 112.247C152.457 111.886 153.436 112.056 154.134 112.694C154.824 113.327 155.076 114.273 154.8 115.166ZM177.13 104.135C176.951 104.176 176.785 104.168 176.626 104.131C176.216 105.361 175.116 106.234 173.382 106.234C172.14 106.234 170.829 105.783 169.911 105.077C169.018 104.387 168.003 103.875 166.935 103.53C166.785 103.883 166.505 104.168 166.147 104.318C166.493 105.39 167.004 106.401 167.694 107.294C168.401 108.215 168.851 109.523 168.851 110.765C168.851 112.499 167.978 113.599 166.748 114.009C166.769 114.094 166.781 114.184 166.781 114.273C166.781 114.906 166.29 115.426 165.664 115.466C165.08 115.507 164.54 115.085 164.414 114.512C164.373 114.334 164.381 114.167 164.418 114.009C163.188 113.599 162.315 112.499 162.315 110.765C162.315 109.523 162.765 108.211 163.472 107.294C164.162 106.401 164.674 105.386 165.019 104.318C164.666 104.168 164.381 103.887 164.231 103.53C163.159 103.875 162.148 104.387 161.255 105.077C160.333 105.783 159.026 106.234 157.784 106.234C156.05 106.234 154.95 105.361 154.54 104.131C154.455 104.151 154.365 104.163 154.276 104.163C153.643 104.163 153.123 103.672 153.082 103.047C153.042 102.462 153.464 101.922 154.036 101.796C154.215 101.756 154.382 101.764 154.54 101.801C154.95 100.57 156.05 99.6975 157.784 99.6975C159.026 99.6975 160.338 100.148 161.255 100.855C162.148 101.545 163.163 102.056 164.231 102.401C164.381 102.048 164.661 101.764 165.019 101.614C164.674 100.546 164.162 99.531 163.472 98.6378C162.765 97.7162 162.315 96.4089 162.315 95.1665C162.315 93.4329 163.188 92.3326 164.418 91.9226C164.398 91.8373 164.385 91.748 164.385 91.6587C164.385 91.0253 164.877 90.5056 165.502 90.465C166.087 90.4244 166.626 90.8467 166.752 91.4191C166.793 91.5978 166.785 91.7642 166.748 91.9226C167.978 92.3326 168.851 93.4329 168.851 95.1665C168.851 96.4089 168.401 97.7202 167.694 98.6378C167.004 99.531 166.493 100.546 166.147 101.614C166.501 101.764 166.785 102.044 166.935 102.401C168.003 102.056 169.018 101.545 169.911 100.855C170.833 100.148 172.14 99.6975 173.382 99.6975C175.116 99.6975 176.216 100.57 176.626 101.801C176.712 101.78 176.801 101.768 176.89 101.768C177.524 101.768 178.043 102.259 178.084 102.885C178.124 103.473 177.702 104.009 177.13 104.135Z" fill="white"/>
<path d="M156.363 88.6501C160.634 80.2012 155.77 69.1093 145.523 63.9247C141.938 62.1099 138.012 61.2045 134.199 61.2816C134.187 61.2816 134.179 61.2816 134.171 61.2816C133.505 61.2816 132.941 60.7782 132.864 60.1124C132.186 54.0345 128.568 48.3749 122.681 44.185C116.668 39.9057 108.832 37.5469 100.619 37.5469C83.9324 37.5469 69.7671 47.4695 68.3745 60.1367C68.3055 60.7741 67.7818 61.2695 67.1403 61.306C63.8882 61.4887 60.5712 62.39 57.5465 63.9206C47.295 69.1053 42.4311 80.1931 46.7063 88.646C49.3494 93.8713 54.8791 96.8716 61.1355 97.1842C61.1883 96.6564 61.233 96.0921 61.2776 95.4831C61.6268 90.6192 62.1099 83.9567 69.759 78.5488C80.2987 71.0987 89.7017 71.9797 93.6764 72.8608C93.4937 72.0528 93.1649 71.184 92.5965 70.6237C92.1742 70.2055 92.0849 69.56 92.3772 69.0444C92.6696 68.5287 93.2704 68.273 93.847 68.4191C94.5534 68.6018 99.5188 69.9497 101.727 72.6984C102.738 71.6387 104.375 70.4856 106.981 69.8239C107.334 69.7346 107.708 69.7955 108.016 69.9944C108.325 70.1933 108.532 70.51 108.597 70.8673L109.007 73.1693C111.922 72.3208 122.299 70.1974 134.118 78.5529C141.767 83.9608 142.246 90.6232 142.599 95.4871C142.64 96.0718 142.685 96.6158 142.733 97.1233C148.657 96.6036 153.833 93.652 156.363 88.6501ZM91.618 64.2495C91.2689 64.5459 90.7451 64.5053 90.4487 64.1561L86.5755 59.6089C86.4415 59.4506 86.3278 59.2598 86.2507 59.0568C85.8853 58.0905 86.3766 57.0105 87.3428 56.6451C88.3091 56.2797 89.3891 56.771 89.7545 57.7373L91.8576 63.3279C91.9753 63.6446 91.89 64.0181 91.618 64.2495ZM103.213 56.4096L102.186 62.2926C102.109 62.7432 101.679 63.0477 101.228 62.9665C100.875 62.9056 100.611 62.6255 100.554 62.2926L99.5269 56.4096C99.3483 55.3906 100.03 54.4243 101.049 54.2457C102.068 54.067 103.035 54.7491 103.213 55.7682C103.254 55.9833 103.25 56.2026 103.213 56.4096ZM116.818 59.0527C116.741 59.2598 116.628 59.4465 116.494 59.6049L112.62 64.1521C112.324 64.5012 111.8 64.5418 111.451 64.2454C111.179 64.014 111.094 63.6405 111.212 63.3198L113.315 57.7291C113.68 56.7629 114.756 56.2716 115.726 56.637C116.693 57.0065 117.184 58.0864 116.818 59.0527Z" fill="white"/>
</g>
<defs>
<clipPath id="clip0_19_1035">
<rect width="203" height="203" fill="white"/>
</clipPath>
</defs>
</svg>
